999
Generated by Autodesk CAM - http://cam.autodesk.com
0
SECTION
2
HEADER
9
$ACADVER
1
AC1006
9
$ANGBASE
50
0
9
$ANGDIR
70
0
0
ENDSEC
0
SECTION
2
BLOCKS
0
ENDSEC
9
$EXTMIN
10
-75.05
20
-100.25
30
0
9
$EXTMAX
10
75.05
20
100.05
30
15
0
SECTION
2
ENTITIES
0
POLYLINE
8
0
62
1
66
1
70
1
0
VERTEX
8
0
10
-50
20
18.058
42
-0.414
0
VERTEX
8
0
10
-50.05
20
18.108
0
VERTEX
8
0
10
-50.05
20
23.246
42
-0.414
0
VERTEX
8
0
10
-50
20
23.296
0
VERTEX
8
0
10
-47.45
20
23.296
0
VERTEX
8
0
10
-47.45
20
28.396
0
VERTEX
8
0
10
-50
20
28.396
42
-0.414
0
VERTEX
8
0
10
-50.05
20
28.446
0
VERTEX
8
0
10
-50.05
20
33.585
42
-0.414
0
VERTEX
8
0
10
-50
20
33.635
0
VERTEX
8
0
10
-47.45
20
33.635
0
VERTEX
8
0
10
-47.45
20
38.735
0
VERTEX
8
0
10
-50
20
38.735
42
-0.414
0
VERTEX
8
0
10
-50.05
20
38.785
0
VERTEX
8
0
10
-50.05
20
43.923
42
-0.414
0
VERTEX
8
0
10
-50
20
43.973
0
VERTEX
8
0
10
-47.45
20
43.973
0
VERTEX
8
0
10
-47.45
20
49.073
0
VERTEX
8
0
10
-50
20
49.073
42
-0.414
0
VERTEX
8
0
10
-50.05
20
49.123
0
VERTEX
8
0
10
-50.05
20
54.262
42
-0.414
0
VERTEX
8
0
10
-50
20
54.312
0
VERTEX
8
0
10
-47.45
20
54.312
0
VERTEX
8
0
10
-47.45
20
59.411
0
VERTEX
8
0
10
-50
20
59.411
42
-0.414
0
VERTEX
8
0
10
-50.05
20
59.461
0
VERTEX
8
0
10
-50.05
20
64.6
42
-0.414
0
VERTEX
8
0
10
-50
20
64.65
0
VERTEX
8
0
10
-47.45
20
64.65
0
VERTEX
8
0
10
-47.45
20
69.75
0
VERTEX
8
0
10
-50
20
69.75
42
-0.414
0
VERTEX
8
0
10
-50.05
20
69.8
0
VERTEX
8
0
10
-50.05
20
75
42
-0.414
0
VERTEX
8
0
10
-50
20
75.05
0
VERTEX
8
0
10
-44.8
20
75.05
42
-0.414
0
VERTEX
8
0
10
-44.75
20
75
0
VERTEX
8
0
10
-44.75
20
72.45
0
VERTEX
8
0
10
-39.65
20
72.45
0
VERTEX
8
0
10
-39.65
20
75
42
-0.414
0
VERTEX
8
0
10
-39.6
20
75.05
0
VERTEX
8
0
10
-34.25
20
75.05
42
-0.414
0
VERTEX
8
0
10
-34.2
20
75
0
VERTEX
8
0
10
-34.2
20
72.45
0
VERTEX
8
0
10
-29.1
20
72.45
0
VERTEX
8
0
10
-29.1
20
75
42
-0.414
0
VERTEX
8
0
10
-29.05
20
75.05
0
VERTEX
8
0
10
-23.7
20
75.05
42
-0.414
0
VERTEX
8
0
10
-23.65
20
75
0
VERTEX
8
0
10
-23.65
20
72.45
0
VERTEX
8
0
10
-18.55
20
72.45
0
VERTEX
8
0
10
-18.55
20
75
42
-0.414
0
VERTEX
8
0
10
-18.5
20
75.05
0
VERTEX
8
0
10
-13.15
20
75.05
42
-0.414
0
VERTEX
8
0
10
-13.1
20
75
0
VERTEX
8
0
10
-13.1
20
72.45
0
VERTEX
8
0
10
-8
20
72.45
0
VERTEX
8
0
10
-8
20
75
42
-0.414
0
VERTEX
8
0
10
-7.95
20
75.05
0
VERTEX
8
0
10
-2.6
20
75.05
42
-0.414
0
VERTEX
8
0
10
-2.55
20
75
0
VERTEX
8
0
10
-2.55
20
72.45
0
VERTEX
8
0
10
2.55
20
72.45
0
VERTEX
8
0
10
2.55
20
75
42
-0.414
0
VERTEX
8
0
10
2.6
20
75.05
0
VERTEX
8
0
10
7.95
20
75.05
42
-0.414
0
VERTEX
8
0
10
8
20
75
0
VERTEX
8
0
10
8
20
72.45
0
VERTEX
8
0
10
13.1
20
72.45
0
VERTEX
8
0
10
13.1
20
75
42
-0.414
0
VERTEX
8
0
10
13.15
20
75.05
0
VERTEX
8
0
10
18.5
20
75.05
42
-0.414
0
VERTEX
8
0
10
18.55
20
75
0
VERTEX
8
0
10
18.55
20
72.45
0
VERTEX
8
0
10
23.65
20
72.45
0
VERTEX
8
0
10
23.65
20
75
42
-0.414
0
VERTEX
8
0
10
23.7
20
75.05
0
VERTEX
8
0
10
29.05
20
75.05
42
-0.414
0
VERTEX
8
0
10
29.1
20
75
0
VERTEX
8
0
10
29.1
20
72.45
0
VERTEX
8
0
10
34.2
20
72.45
0
VERTEX
8
0
10
34.2
20
75
42
-0.414
0
VERTEX
8
0
10
34.25
20
75.05
0
VERTEX
8
0
10
39.6
20
75.05
42
-0.414
0
VERTEX
8
0
10
39.65
20
75
0
VERTEX
8
0
10
39.65
20
72.45
0
VERTEX
8
0
10
44.75
20
72.45
0
VERTEX
8
0
10
44.75
20
75
42
-0.414
0
VERTEX
8
0
10
44.8
20
75.05
0
VERTEX
8
0
10
50
20
75.05
42
-0.414
0
VERTEX
8
0
10
50.05
20
75
0
VERTEX
8
0
10
50.05
20
69.8
42
-0.414
0
VERTEX
8
0
10
50
20
69.75
0
VERTEX
8
0
10
47.45
20
69.75
0
VERTEX
8
0
10
47.45
20
64.65
0
VERTEX
8
0
10
50
20
64.65
42
-0.414
0
VERTEX
8
0
10
50.05
20
64.6
0
VERTEX
8
0
10
50.05
20
59.461
42
-0.414
0
VERTEX
8
0
10
50
20
59.411
0
VERTEX
8
0
10
47.45
20
59.411
0
VERTEX
8
0
10
47.45
20
54.312
0
VERTEX
8
0
10
50
20
54.312
42
-0.414
0
VERTEX
8
0
10
50.05
20
54.262
0
VERTEX
8
0
10
50.05
20
49.123
42
-0.414
0
VERTEX
8
0
10
50
20
49.073
0
VERTEX
8
0
10
47.45
20
49.073
0
VERTEX
8
0
10
47.45
20
43.973
0
VERTEX
8
0
10
50
20
43.973
42
-0.414
0
VERTEX
8
0
10
50.05
20
43.923
0
VERTEX
8
0
10
50.05
20
38.785
42
-0.414
0
VERTEX
8
0
10
50
20
38.735
0
VERTEX
8
0
10
47.45
20
38.735
0
VERTEX
8
0
10
47.45
20
33.635
0
VERTEX
8
0
10
50
20
33.635
42
-0.414
0
VERTEX
8
0
10
50.05
20
33.585
0
VERTEX
8
0
10
50.05
20
28.446
42
-0.414
0
VERTEX
8
0
10
50
20
28.396
0
VERTEX
8
0
10
47.45
20
28.396
0
VERTEX
8
0
10
47.45
20
23.296
0
VERTEX
8
0
10
50
20
23.296
42
-0.414
0
VERTEX
8
0
10
50.05
20
23.246
0
VERTEX
8
0
10
50.05
20
18.108
42
-0.414
0
VERTEX
8
0
10
50
20
18.058
0
VERTEX
8
0
10
47.45
20
18.058
0
VERTEX
8
0
10
47.45
20
12.958
0
VERTEX
8
0
10
50
20
12.958
42
-0.414
0
VERTEX
8
0
10
50.05
20
12.908
0
VERTEX
8
0
10
50.05
20
7.769
42
-0.414
0
VERTEX
8
0
10
50
20
7.719
0
VERTEX
8
0
10
47.45
20
7.719
0
VERTEX
8
0
10
47.45
20
2.619
0
VERTEX
8
0
10
50
20
2.619
42
-0.414
0
VERTEX
8
0
10
50.05
20
2.569
0
VERTEX
8
0
10
50.05
20
-2.569
42
-0.414
0
VERTEX
8
0
10
50
20
-2.619
0
VERTEX
8
0
10
47.45
20
-2.619
0
VERTEX
8
0
10
47.45
20
-7.719
0
VERTEX
8
0
10
50
20
-7.719
42
-0.414
0
VERTEX
8
0
10
50.05
20
-7.769
0
VERTEX
8
0
10
50.05
20
-12.908
42
-0.414
0
VERTEX
8
0
10
50
20
-12.958
0
VERTEX
8
0
10
47.45
20
-12.958
0
VERTEX
8
0
10
47.45
20
-18.058
0
VERTEX
8
0
10
50
20
-18.058
42
-0.414
0
VERTEX
8
0
10
50.05
20
-18.108
0
VERTEX
8
0
10
50.05
20
-23.246
42
-0.414
0
VERTEX
8
0
10
50
20
-23.296
0
VERTEX
8
0
10
47.45
20
-23.296
0
VERTEX
8
0
10
47.45
20
-28.396
0
VERTEX
8
0
10
50
20
-28.396
42
-0.414
0
VERTEX
8
0
10
50.05
20
-28.446
0
VERTEX
8
0
10
50.05
20
-33.585
42
-0.414
0
VERTEX
8
0
10
50
20
-33.635
0
VERTEX
8
0
10
47.45
20
-33.635
0
VERTEX
8
0
10
47.45
20
-38.735
0
VERTEX
8
0
10
50
20
-38.735
42
-0.414
0
VERTEX
8
0
10
50.05
20
-38.785
0
VERTEX
8
0
10
50.05
20
-43.923
42
-0.414
0
VERTEX
8
0
10
50
20
-43.973
0
VERTEX
8
0
10
47.45
20
-43.973
0
VERTEX
8
0
10
47.45
20
-49.073
0
VERTEX
8
0
10
50
20
-49.073
42
-0.414
0
VERTEX
8
0
10
50.05
20
-49.123
0
VERTEX
8
0
10
50.05
20
-54.262
42
-0.414
0
VERTEX
8
0
10
50
20
-54.312
0
VERTEX
8
0
10
47.45
20
-54.312
0
VERTEX
8
0
10
47.45
20
-59.411
0
VERTEX
8
0
10
50
20
-59.411
42
-0.414
0
VERTEX
8
0
10
50.05
20
-59.461
0
VERTEX
8
0
10
50.05
20
-64.6
42
-0.414
0
VERTEX
8
0
10
50
20
-64.65
0
VERTEX
8
0
10
47.45
20
-64.65
0
VERTEX
8
0
10
47.45
20
-69.75
0
VERTEX
8
0
10
50
20
-69.75
42
-0.414
0
VERTEX
8
0
10
50.05
20
-69.8
0
VERTEX
8
0
10
50.05
20
-75
42
-0.414
0
VERTEX
8
0
10
50
20
-75.05
0
VERTEX
8
0
10
44.8
20
-75.05
42
-0.414
0
VERTEX
8
0
10
44.75
20
-75
0
VERTEX
8
0
10
44.75
20
-72.45
0
VERTEX
8
0
10
39.65
20
-72.45
0
VERTEX
8
0
10
39.65
20
-75
42
-0.414
0
VERTEX
8
0
10
39.6
20
-75.05
0
VERTEX
8
0
10
34.25
20
-75.05
42
-0.414
0
VERTEX
8
0
10
34.2
20
-75
0
VERTEX
8
0
10
34.2
20
-72.45
0
VERTEX
8
0
10
29.1
20
-72.45
0
VERTEX
8
0
10
29.1
20
-75
42
-0.414
0
VERTEX
8
0
10
29.05
20
-75.05
0
VERTEX
8
0
10
23.7
20
-75.05
42
-0.414
0
VERTEX
8
0
10
23.65
20
-75
0
VERTEX
8
0
10
23.65
20
-72.45
0
VERTEX
8
0
10
18.55
20
-72.45
0
VERTEX
8
0
10
18.55
20
-75
42
-0.414
0
VERTEX
8
0
10
18.5
20
-75.05
0
VERTEX
8
0
10
13.15
20
-75.05
42
-0.414
0
VERTEX
8
0
10
13.1
20
-75
0
VERTEX
8
0
10
13.1
20
-72.45
0
VERTEX
8
0
10
8
20
-72.45
0
VERTEX
8
0
10
8
20
-75
42
-0.414
0
VERTEX
8
0
10
7.95
20
-75.05
0
VERTEX
8
0
10
2.6
20
-75.05
42
-0.414
0
VERTEX
8
0
10
2.55
20
-75
0
VERTEX
8
0
10
2.55
20
-72.45
0
VERTEX
8
0
10
-2.55
20
-72.45
0
VERTEX
8
0
10
-2.55
20
-75
42
-0.414
0
VERTEX
8
0
10
-2.6
20
-75.05
0
VERTEX
8
0
10
-7.95
20
-75.05
42
-0.414
0
VERTEX
8
0
10
-8
20
-75
0
VERTEX
8
0
10
-8
20
-72.45
0
VERTEX
8
0
10
-13.1
20
-72.45
0
VERTEX
8
0
10
-13.1
20
-75
42
-0.414
0
VERTEX
8
0
10
-13.15
20
-75.05
0
VERTEX
8
0
10
-18.5
20
-75.05
42
-0.414
0
VERTEX
8
0
10
-18.55
20
-75
0
VERTEX
8
0
10
-18.55
20
-72.45
0
VERTEX
8
0
10
-23.65
20
-72.45
0
VERTEX
8
0
10
-23.65
20
-75
42
-0.414
0
VERTEX
8
0
10
-23.7
20
-75.05
0
VERTEX
8
0
10
-29.05
20
-75.05
42
-0.414
0
VERTEX
8
0
10
-29.1
20
-75
0
VERTEX
8
0
10
-29.1
20
-72.45
0
VERTEX
8
0
10
-34.2
20
-72.45
0
VERTEX
8
0
10
-34.2
20
-75
42
-0.414
0
VERTEX
8
0
10
-34.25
20
-75.05
0
VERTEX
8
0
10
-39.6
20
-75.05
42
-0.414
0
VERTEX
8
0
10
-39.65
20
-75
0
VERTEX
8
0
10
-39.65
20
-72.45
0
VERTEX
8
0
10
-44.75
20
-72.45
0
VERTEX
8
0
10
-44.75
20
-75
42
-0.414
0
VERTEX
8
0
10
-44.8
20
-75.05
0
VERTEX
8
0
10
-50
20
-75.05
42
-0.414
0
VERTEX
8
0
10
-50.05
20
-75
0
VERTEX
8
0
10
-50.05
20
-69.8
42
-0.414
0
VERTEX
8
0
10
-50
20
-69.75
0
VERTEX
8
0
10
-47.45
20
-69.75
0
VERTEX
8
0
10
-47.45
20
-64.65
0
VERTEX
8
0
10
-50
20
-64.65
42
-0.414
0
VERTEX
8
0
10
-50.05
20
-64.6
0
VERTEX
8
0
10
-50.05
20
-59.461
42
-0.414
0
VERTEX
8
0
10
-50
20
-59.411
0
VERTEX
8
0
10
-47.45
20
-59.411
0
VERTEX
8
0
10
-47.45
20
-54.312
0
VERTEX
8
0
10
-50
20
-54.312
42
-0.414
0
VERTEX
8
0
10
-50.05
20
-54.262
0
VERTEX
8
0
10
-50.05
20
-49.123
42
-0.414
0
VERTEX
8
0
10
-50
20
-49.073
0
VERTEX
8
0
10
-47.45
20
-49.073
0
VERTEX
8
0
10
-47.45
20
-43.973
0
VERTEX
8
0
10
-50
20
-43.973
42
-0.414
0
VERTEX
8
0
10
-50.05
20
-43.923
0
VERTEX
8
0
10
-50.05
20
-38.785
42
-0.414
0
VERTEX
8
0
10
-50
20
-38.735
0
VERTEX
8
0
10
-47.45
20
-38.735
0
VERTEX
8
0
10
-47.45
20
-33.635
0
VERTEX
8
0
10
-50
20
-33.635
42
-0.414
0
VERTEX
8
0
10
-50.05
20
-33.585
0
VERTEX
8
0
10
-50.05
20
-28.446
42
-0.414
0
VERTEX
8
0
10
-50
20
-28.396
0
VERTEX
8
0
10
-47.45
20
-28.396
0
VERTEX
8
0
10
-47.45
20
-23.296
0
VERTEX
8
0
10
-50
20
-23.296
42
-0.414
0
VERTEX
8
0
10
-50.05
20
-23.246
0
VERTEX
8
0
10
-50.05
20
-18.108
42
-0.414
0
VERTEX
8
0
10
-50
20
-18.058
0
VERTEX
8
0
10
-47.45
20
-18.058
0
VERTEX
8
0
10
-47.45
20
-12.958
0
VERTEX
8
0
10
-50
20
-12.958
42
-0.414
0
VERTEX
8
0
10
-50.05
20
-12.908
0
VERTEX
8
0
10
-50.05
20
-7.769
42
-0.414
0
VERTEX
8
0
10
-50
20
-7.719
0
VERTEX
8
0
10
-47.45
20
-7.719
0
VERTEX
8
0
10
-47.45
20
-2.619
0
VERTEX
8
0
10
-50
20
-2.619
42
-0.414
0
VERTEX
8
0
10
-50.05
20
-2.569
0
VERTEX
8
0
10
-50.05
20
2.569
42
-0.414
0
VERTEX
8
0
10
-50
20
2.619
0
VERTEX
8
0
10
-47.45
20
2.619
0
VERTEX
8
0
10
-47.45
20
7.719
0
VERTEX
8
0
10
-50
20
7.719
42
-0.414
0
VERTEX
8
0
10
-50.05
20
7.769
0
VERTEX
8
0
10
-50.05
20
12.908
42
-0.414
0
VERTEX
8
0
10
-50
20
12.958
0
VERTEX
8
0
10
-47.45
20
12.958
0
VERTEX
8
0
10
-47.45
20
18.058
0
VERTEX
8
0
10
-50
20
18.058
42
-0.414
0
SEQEND
8
0
0
POLYLINE
8
0
62
1
66
1
70
1
0
VERTEX
8
0
10
-50
20
18.058
42
-0.414
0
VERTEX
8
0
10
-50.05
20
18.108
0
VERTEX
8
0
10
-50.05
20
23.246
42
-0.414
0
VERTEX
8
0
10
-50
20
23.296
0
VERTEX
8
0
10
-47.45
20
23.296
0
VERTEX
8
0
10
-47.45
20
28.396
0
VERTEX
8
0
10
-50
20
28.396
42
-0.414
0
VERTEX
8
0
10
-50.05
20
28.446
0
VERTEX
8
0
10
-50.05
20
33.585
42
-0.414
0
VERTEX
8
0
10
-50
20
33.635
0
VERTEX
8
0
10
-47.45
20
33.635
0
VERTEX
8
0
10
-47.45
20
38.735
0
VERTEX
8
0
10
-50
20
38.735
42
-0.414
0
VERTEX
8
0
10
-50.05
20
38.785
0
VERTEX
8
0
10
-50.05
20
43.923
42
-0.414
0
VERTEX
8
0
10
-50
20
43.973
0
VERTEX
8
0
10
-47.45
20
43.973
0
VERTEX
8
0
10
-47.45
20
49.073
0
VERTEX
8
0
10
-50
20
49.073
42
-0.414
0
VERTEX
8
0
10
-50.05
20
49.123
0
VERTEX
8
0
10
-50.05
20
54.262
42
-0.414
0
VERTEX
8
0
10
-50
20
54.312
0
VERTEX
8
0
10
-47.45
20
54.312
0
VERTEX
8
0
10
-47.45
20
59.411
0
VERTEX
8
0
10
-50
20
59.411
42
-0.414
0
VERTEX
8
0
10
-50.05
20
59.461
0
VERTEX
8
0
10
-50.05
20
64.6
42
-0.414
0
VERTEX
8
0
10
-50
20
64.65
0
VERTEX
8
0
10
-47.45
20
64.65
0
VERTEX
8
0
10
-47.45
20
69.75
0
VERTEX
8
0
10
-50
20
69.75
42
-0.414
0
VERTEX
8
0
10
-50.05
20
69.8
0
VERTEX
8
0
10
-50.05
20
75
42
-0.414
0
VERTEX
8
0
10
-50
20
75.05
0
VERTEX
8
0
10
-44.8
20
75.05
42
-0.414
0
VERTEX
8
0
10
-44.75
20
75
0
VERTEX
8
0
10
-44.75
20
72.45
0
VERTEX
8
0
10
-39.65
20
72.45
0
VERTEX
8
0
10
-39.65
20
75
42
-0.414
0
VERTEX
8
0
10
-39.6
20
75.05
0
VERTEX
8
0
10
-34.25
20
75.05
42
-0.414
0
VERTEX
8
0
10
-34.2
20
75
0
VERTEX
8
0
10
-34.2
20
72.45
0
VERTEX
8
0
10
-29.1
20
72.45
0
VERTEX
8
0
10
-29.1
20
75
42
-0.414
0
VERTEX
8
0
10
-29.05
20
75.05
0
VERTEX
8
0
10
-23.7
20
75.05
42
-0.414
0
VERTEX
8
0
10
-23.65
20
75
0
VERTEX
8
0
10
-23.65
20
72.45
0
VERTEX
8
0
10
-18.55
20
72.45
0
VERTEX
8
0
10
-18.55
20
75
42
-0.414
0
VERTEX
8
0
10
-18.5
20
75.05
0
VERTEX
8
0
10
-13.15
20
75.05
42
-0.414
0
VERTEX
8
0
10
-13.1
20
75
0
VERTEX
8
0
10
-13.1
20
72.45
0
VERTEX
8
0
10
-8
20
72.45
0
VERTEX
8
0
10
-8
20
75
42
-0.414
0
VERTEX
8
0
10
-7.95
20
75.05
0
VERTEX
8
0
10
-2.6
20
75.05
42
-0.414
0
VERTEX
8
0
10
-2.55
20
75
0
VERTEX
8
0
10
-2.55
20
72.45
0
VERTEX
8
0
10
2.55
20
72.45
0
VERTEX
8
0
10
2.55
20
75
42
-0.414
0
VERTEX
8
0
10
2.6
20
75.05
0
VERTEX
8
0
10
7.95
20
75.05
42
-0.414
0
VERTEX
8
0
10
8
20
75
0
VERTEX
8
0
10
8
20
72.45
0
VERTEX
8
0
10
13.1
20
72.45
0
VERTEX
8
0
10
13.1
20
75
42
-0.414
0
VERTEX
8
0
10
13.15
20
75.05
0
VERTEX
8
0
10
18.5
20
75.05
42
-0.414
0
VERTEX
8
0
10
18.55
20
75
0
VERTEX
8
0
10
18.55
20
72.45
0
VERTEX
8
0
10
23.65
20
72.45
0
VERTEX
8
0
10
23.65
20
75
42
-0.414
0
VERTEX
8
0
10
23.7
20
75.05
0
VERTEX
8
0
10
29.05
20
75.05
42
-0.414
0
VERTEX
8
0
10
29.1
20
75
0
VERTEX
8
0
10
29.1
20
72.45
0
VERTEX
8
0
10
34.2
20
72.45
0
VERTEX
8
0
10
34.2
20
75
42
-0.414
0
VERTEX
8
0
10
34.25
20
75.05
0
VERTEX
8
0
10
39.6
20
75.05
42
-0.414
0
VERTEX
8
0
10
39.65
20
75
0
VERTEX
8
0
10
39.65
20
72.45
0
VERTEX
8
0
10
44.75
20
72.45
0
VERTEX
8
0
10
44.75
20
75
42
-0.414
0
VERTEX
8
0
10
44.8
20
75.05
0
VERTEX
8
0
10
50
20
75.05
42
-0.414
0
VERTEX
8
0
10
50.05
20
75
0
VERTEX
8
0
10
50.05
20
69.8
42
-0.414
0
VERTEX
8
0
10
50
20
69.75
0
VERTEX
8
0
10
47.45
20
69.75
0
VERTEX
8
0
10
47.45
20
64.65
0
VERTEX
8
0
10
50
20
64.65
42
-0.414
0
VERTEX
8
0
10
50.05
20
64.6
0
VERTEX
8
0
10
50.05
20
59.461
42
-0.414
0
VERTEX
8
0
10
50
20
59.411
0
VERTEX
8
0
10
47.45
20
59.411
0
VERTEX
8
0
10
47.45
20
54.312
0
VERTEX
8
0
10
50
20
54.312
42
-0.414
0
VERTEX
8
0
10
50.05
20
54.262
0
VERTEX
8
0
10
50.05
20
49.123
42
-0.414
0
VERTEX
8
0
10
50
20
49.073
0
VERTEX
8
0
10
47.45
20
49.073
0
VERTEX
8
0
10
47.45
20
43.973
0
VERTEX
8
0
10
50
20
43.973
42
-0.414
0
VERTEX
8
0
10
50.05
20
43.923
0
VERTEX
8
0
10
50.05
20
38.785
42
-0.414
0
VERTEX
8
0
10
50
20
38.735
0
VERTEX
8
0
10
47.45
20
38.735
0
VERTEX
8
0
10
47.45
20
33.635
0
VERTEX
8
0
10
50
20
33.635
42
-0.414
0
VERTEX
8
0
10
50.05
20
33.585
0
VERTEX
8
0
10
50.05
20
28.446
42
-0.414
0
VERTEX
8
0
10
50
20
28.396
0
VERTEX
8
0
10
47.45
20
28.396
0
VERTEX
8
0
10
47.45
20
23.296
0
VERTEX
8
0
10
50
20
23.296
42
-0.414
0
VERTEX
8
0
10
50.05
20
23.246
0
VERTEX
8
0
10
50.05
20
18.108
42
-0.414
0
VERTEX
8
0
10
50
20
18.058
0
VERTEX
8
0
10
47.45
20
18.058
0
VERTEX
8
0
10
47.45
20
12.958
0
VERTEX
8
0
10
50
20
12.958
42
-0.414
0
VERTEX
8
0
10
50.05
20
12.908
0
VERTEX
8
0
10
50.05
20
7.769
42
-0.414
0
VERTEX
8
0
10
50
20
7.719
0
VERTEX
8
0
10
47.45
20
7.719
0
VERTEX
8
0
10
47.45
20
2.619
0
VERTEX
8
0
10
50
20
2.619
42
-0.414
0
VERTEX
8
0
10
50.05
20
2.569
0
VERTEX
8
0
10
50.05
20
-2.569
42
-0.414
0
VERTEX
8
0
10
50
20
-2.619
0
VERTEX
8
0
10
47.45
20
-2.619
0
VERTEX
8
0
10
47.45
20
-7.719
0
VERTEX
8
0
10
50
20
-7.719
42
-0.414
0
VERTEX
8
0
10
50.05
20
-7.769
0
VERTEX
8
0
10
50.05
20
-12.908
42
-0.414
0
VERTEX
8
0
10
50
20
-12.958
0
VERTEX
8
0
10
47.45
20
-12.958
0
VERTEX
8
0
10
47.45
20
-18.058
0
VERTEX
8
0
10
50
20
-18.058
42
-0.414
0
VERTEX
8
0
10
50.05
20
-18.108
0
VERTEX
8
0
10
50.05
20
-23.246
42
-0.414
0
VERTEX
8
0
10
50
20
-23.296
0
VERTEX
8
0
10
47.45
20
-23.296
0
VERTEX
8
0
10
47.45
20
-28.396
0
VERTEX
8
0
10
50
20
-28.396
42
-0.414
0
VERTEX
8
0
10
50.05
20
-28.446
0
VERTEX
8
0
10
50.05
20
-33.585
42
-0.414
0
VERTEX
8
0
10
50
20
-33.635
0
VERTEX
8
0
10
47.45
20
-33.635
0
VERTEX
8
0
10
47.45
20
-38.735
0
VERTEX
8
0
10
50
20
-38.735
42
-0.414
0
VERTEX
8
0
10
50.05
20
-38.785
0
VERTEX
8
0
10
50.05
20
-43.923
42
-0.414
0
VERTEX
8
0
10
50
20
-43.973
0
VERTEX
8
0
10
47.45
20
-43.973
0
VERTEX
8
0
10
47.45
20
-49.073
0
VERTEX
8
0
10
50
20
-49.073
42
-0.414
0
VERTEX
8
0
10
50.05
20
-49.123
0
VERTEX
8
0
10
50.05
20
-54.262
42
-0.414
0
VERTEX
8
0
10
50
20
-54.312
0
VERTEX
8
0
10
47.45
20
-54.312
0
VERTEX
8
0
10
47.45
20
-59.411
0
VERTEX
8
0
10
50
20
-59.411
42
-0.414
0
VERTEX
8
0
10
50.05
20
-59.461
0
VERTEX
8
0
10
50.05
20
-64.6
42
-0.414
0
VERTEX
8
0
10
50
20
-64.65
0
VERTEX
8
0
10
47.45
20
-64.65
0
VERTEX
8
0
10
47.45
20
-69.75
0
VERTEX
8
0
10
50
20
-69.75
42
-0.414
0
VERTEX
8
0
10
50.05
20
-69.8
0
VERTEX
8
0
10
50.05
20
-75
42
-0.414
0
VERTEX
8
0
10
50
20
-75.05
0
VERTEX
8
0
10
44.8
20
-75.05
42
-0.414
0
VERTEX
8
0
10
44.75
20
-75
0
VERTEX
8
0
10
44.75
20
-72.45
0
VERTEX
8
0
10
39.65
20
-72.45
0
VERTEX
8
0
10
39.65
20
-75
42
-0.414
0
VERTEX
8
0
10
39.6
20
-75.05
0
VERTEX
8
0
10
34.25
20
-75.05
42
-0.414
0
VERTEX
8
0
10
34.2
20
-75
0
VERTEX
8
0
10
34.2
20
-72.45
0
VERTEX
8
0
10
29.1
20
-72.45
0
VERTEX
8
0
10
29.1
20
-75
42
-0.414
0
VERTEX
8
0
10
29.05
20
-75.05
0
VERTEX
8
0
10
23.7
20
-75.05
42
-0.414
0
VERTEX
8
0
10
23.65
20
-75
0
VERTEX
8
0
10
23.65
20
-72.45
0
VERTEX
8
0
10
18.55
20
-72.45
0
VERTEX
8
0
10
18.55
20
-75
42
-0.414
0
VERTEX
8
0
10
18.5
20
-75.05
0
VERTEX
8
0
10
13.15
20
-75.05
42
-0.414
0
VERTEX
8
0
10
13.1
20
-75
0
VERTEX
8
0
10
13.1
20
-72.45
0
VERTEX
8
0
10
8
20
-72.45
0
VERTEX
8
0
10
8
20
-75
42
-0.414
0
VERTEX
8
0
10
7.95
20
-75.05
0
VERTEX
8
0
10
2.6
20
-75.05
42
-0.414
0
VERTEX
8
0
10
2.55
20
-75
0
VERTEX
8
0
10
2.55
20
-72.45
0
VERTEX
8
0
10
-2.55
20
-72.45
0
VERTEX
8
0
10
-2.55
20
-75
42
-0.414
0
VERTEX
8
0
10
-2.6
20
-75.05
0
VERTEX
8
0
10
-7.95
20
-75.05
42
-0.414
0
VERTEX
8
0
10
-8
20
-75
0
VERTEX
8
0
10
-8
20
-72.45
0
VERTEX
8
0
10
-13.1
20
-72.45
0
VERTEX
8
0
10
-13.1
20
-75
42
-0.414
0
VERTEX
8
0
10
-13.15
20
-75.05
0
VERTEX
8
0
10
-18.5
20
-75.05
42
-0.414
0
VERTEX
8
0
10
-18.55
20
-75
0
VERTEX
8
0
10
-18.55
20
-72.45
0
VERTEX
8
0
10
-23.65
20
-72.45
0
VERTEX
8
0
10
-23.65
20
-75
42
-0.414
0
VERTEX
8
0
10
-23.7
20
-75.05
0
VERTEX
8
0
10
-29.05
20
-75.05
42
-0.414
0
VERTEX
8
0
10
-29.1
20
-75
0
VERTEX
8
0
10
-29.1
20
-72.45
0
VERTEX
8
0
10
-34.2
20
-72.45
0
VERTEX
8
0
10
-34.2
20
-75
42
-0.414
0
VERTEX
8
0
10
-34.25
20
-75.05
0
VERTEX
8
0
10
-39.6
20
-75.05
42
-0.414
0
VERTEX
8
0
10
-39.65
20
-75
0
VERTEX
8
0
10
-39.65
20
-72.45
0
VERTEX
8
0
10
-44.75
20
-72.45
0
VERTEX
8
0
10
-44.75
20
-75
42
-0.414
0
VERTEX
8
0
10
-44.8
20
-75.05
0
VERTEX
8
0
10
-50
20
-75.05
42
-0.414
0
VERTEX
8
0
10
-50.05
20
-75
0
VERTEX
8
0
10
-50.05
20
-69.8
42
-0.414
0
VERTEX
8
0
10
-50
20
-69.75
0
VERTEX
8
0
10
-47.45
20
-69.75
0
VERTEX
8
0
10
-47.45
20
-64.65
0
VERTEX
8
0
10
-50
20
-64.65
42
-0.414
0
VERTEX
8
0
10
-50.05
20
-64.6
0
VERTEX
8
0
10
-50.05
20
-59.461
42
-0.414
0
VERTEX
8
0
10
-50
20
-59.411
0
VERTEX
8
0
10
-47.45
20
-59.411
0
VERTEX
8
0
10
-47.45
20
-54.312
0
VERTEX
8
0
10
-50
20
-54.312
42
-0.414
0
VERTEX
8
0
10
-50.05
20
-54.262
0
VERTEX
8
0
10
-50.05
20
-49.123
42
-0.414
0
VERTEX
8
0
10
-50
20
-49.073
0
VERTEX
8
0
10
-47.45
20
-49.073
0
VERTEX
8
0
10
-47.45
20
-43.973
0
VERTEX
8
0
10
-50
20
-43.973
42
-0.414
0
VERTEX
8
0
10
-50.05
20
-43.923
0
VERTEX
8
0
10
-50.05
20
-38.785
42
-0.414
0
VERTEX
8
0
10
-50
20
-38.735
0
VERTEX
8
0
10
-47.45
20
-38.735
0
VERTEX
8
0
10
-47.45
20
-33.635
0
VERTEX
8
0
10
-50
20
-33.635
42
-0.414
0
VERTEX
8
0
10
-50.05
20
-33.585
0
VERTEX
8
0
10
-50.05
20
-28.446
42
-0.414
0
VERTEX
8
0
10
-50
20
-28.396
0
VERTEX
8
0
10
-47.45
20
-28.396
0
VERTEX
8
0
10
-47.45
20
-23.296
0
VERTEX
8
0
10
-50
20
-23.296
42
-0.414
0
VERTEX
8
0
10
-50.05
20
-23.246
0
VERTEX
8
0
10
-50.05
20
-18.108
42
-0.414
0
VERTEX
8
0
10
-50
20
-18.058
0
VERTEX
8
0
10
-47.45
20
-18.058
0
VERTEX
8
0
10
-47.45
20
-12.958
0
VERTEX
8
0
10
-50
20
-12.958
42
-0.414
0
VERTEX
8
0
10
-50.05
20
-12.908
0
VERTEX
8
0
10
-50.05
20
-7.769
42
-0.414
0
VERTEX
8
0
10
-50
20
-7.719
0
VERTEX
8
0
10
-47.45
20
-7.719
0
VERTEX
8
0
10
-47.45
20
-2.619
0
VERTEX
8
0
10
-50
20
-2.619
42
-0.414
0
VERTEX
8
0
10
-50.05
20
-2.569
0
VERTEX
8
0
10
-50.05
20
2.569
42
-0.414
0
VERTEX
8
0
10
-50
20
2.619
0
VERTEX
8
0
10
-47.45
20
2.619
0
VERTEX
8
0
10
-47.45
20
7.719
0
VERTEX
8
0
10
-50
20
7.719
42
-0.414
0
VERTEX
8
0
10
-50.05
20
7.769
0
VERTEX
8
0
10
-50.05
20
12.908
42
-0.414
0
VERTEX
8
0
10
-50
20
12.958
0
VERTEX
8
0
10
-47.45
20
12.958
0
VERTEX
8
0
10
-47.45
20
18.058
0
VERTEX
8
0
10
-50
20
18.058
42
-0.414
0
SEQEND
8
0
0
POLYLINE
8
0
62
1
66
1
70
1
0
VERTEX
8
0
10
-50.05
20
-71.711
0
VERTEX
8
0
10
-50.05
20
-66.511
42
-0.414
0
VERTEX
8
0
10
-50
20
-66.461
0
VERTEX
8
0
10
-47.45
20
-66.461
0
VERTEX
8
0
10
-47.45
20
-61.517
0
VERTEX
8
0
10
-50
20
-61.517
42
-0.414
0
VERTEX
8
0
10
-50.05
20
-61.467
0
VERTEX
8
0
10
-50.05
20
-56.267
42
-0.414
0
VERTEX
8
0
10
-50
20
-56.217
0
VERTEX
8
0
10
-47.45
20
-56.217
0
VERTEX
8
0
10
-47.45
20
-51.272
0
VERTEX
8
0
10
-50
20
-51.272
42
-0.414
0
VERTEX
8
0
10
-50.05
20
-51.222
0
VERTEX
8
0
10
-50.05
20
-46.022
42
-0.414
0
VERTEX
8
0
10
-50
20
-45.972
0
VERTEX
8
0
10
-47.45
20
-45.972
0
VERTEX
8
0
10
-47.45
20
-41.028
0
VERTEX
8
0
10
-50
20
-41.028
42
-0.414
0
VERTEX
8
0
10
-50.05
20
-40.978
0
VERTEX
8
0
10
-50.05
20
-35.778
42
-0.414
0
VERTEX
8
0
10
-50
20
-35.728
0
VERTEX
8
0
10
-47.45
20
-35.728
0
VERTEX
8
0
10
-47.45
20
-30.783
0
VERTEX
8
0
10
-50
20
-30.783
42
-0.414
0
VERTEX
8
0
10
-50.05
20
-30.733
0
VERTEX
8
0
10
-50.05
20
-25.533
42
-0.414
0
VERTEX
8
0
10
-50
20
-25.483
0
VERTEX
8
0
10
-47.45
20
-25.483
0
VERTEX
8
0
10
-47.45
20
-20.539
0
VERTEX
8
0
10
-50
20
-20.539
42
-0.414
0
VERTEX
8
0
10
-50.05
20
-20.489
0
VERTEX
8
0
10
-50.05
20
-15.289
42
-0.414
0
VERTEX
8
0
10
-50
20
-15.239
0
VERTEX
8
0
10
-47.45
20
-15.239
0
VERTEX
8
0
10
-47.45
20
-10.294
0
VERTEX
8
0
10
-50
20
-10.294
42
-0.414
0
VERTEX
8
0
10
-50.05
20
-10.244
0
VERTEX
8
0
10
-50.05
20
-5.044
42
-0.414
0
VERTEX
8
0
10
-50
20
-4.994
0
VERTEX
8
0
10
-47.45
20
-4.994
0
VERTEX
8
0
10
-47.45
20
-0.05
0
VERTEX
8
0
10
-50
20
-0.05
42
-0.414
0
VERTEX
8
0
10
-50.05
20
0
0
VERTEX
8
0
10
-50.05
20
5.2
42
-0.414
0
VERTEX
8
0
10
-50
20
5.25
0
VERTEX
8
0
10
-47.45
20
5.25
0
VERTEX
8
0
10
-47.45
20
10.194
0
VERTEX
8
0
10
-50
20
10.194
42
-0.414
0
VERTEX
8
0
10
-50.05
20
10.244
0
VERTEX
8
0
10
-50.05
20
15.444
42
-0.414
0
VERTEX
8
0
10
-50
20
15.494
0
VERTEX
8
0
10
-47.45
20
15.494
0
VERTEX
8
0
10
-47.45
20
20.439
0
VERTEX
8
0
10
-50
20
20.439
42
-0.414
0
VERTEX
8
0
10
-50.05
20
20.489
0
VERTEX
8
0
10
-50.05
20
25.689
42
-0.414
0
VERTEX
8
0
10
-50
20
25.739
0
VERTEX
8
0
10
-47.45
20
25.739
0
VERTEX
8
0
10
-47.45
20
30.683
0
VERTEX
8
0
10
-50
20
30.683
42
-0.414
0
VERTEX
8
0
10
-50.05
20
30.733
0
VERTEX
8
0
10
-50.05
20
35.933
42
-0.414
0
VERTEX
8
0
10
-50
20
35.983
0
VERTEX
8
0
10
-47.45
20
35.983
0
VERTEX
8
0
10
-47.45
20
40.928
0
VERTEX
8
0
10
-50
20
40.928
42
-0.414
0
VERTEX
8
0
10
-50.05
20
40.978
0
VERTEX
8
0
10
-50.05
20
46.178
42
-0.414
0
VERTEX
8
0
10
-50
20
46.228
0
VERTEX
8
0
10
-47.45
20
46.228
0
VERTEX
8
0
10
-47.45
20
51.172
0
VERTEX
8
0
10
-50
20
51.172
42
-0.414
0
VERTEX
8
0
10
-50.05
20
51.222
0
VERTEX
8
0
10
-50.05
20
56.422
42
-0.414
0
VERTEX
8
0
10
-50
20
56.472
0
VERTEX
8
0
10
-47.45
20
56.472
0
VERTEX
8
0
10
-47.45
20
61.417
0
VERTEX
8
0
10
-50
20
61.417
42
-0.414
0
VERTEX
8
0
10
-50.05
20
61.467
0
VERTEX
8
0
10
-50.05
20
66.667
42
-0.414
0
VERTEX
8
0
10
-50
20
66.717
0
VERTEX
8
0
10
-47.45
20
66.717
0
VERTEX
8
0
10
-47.45
20
71.661
0
VERTEX
8
0
10
-50
20
71.661
42
-0.414
0
VERTEX
8
0
10
-50.05
20
71.711
0
VERTEX
8
0
10
-50.05
20
76.911
42
-0.414
0
VERTEX
8
0
10
-50
20
76.961
0
VERTEX
8
0
10
-47.45
20
76.961
0
VERTEX
8
0
10
-47.45
20
81.906
0
VERTEX
8
0
10
-50
20
81.906
42
-0.414
0
VERTEX
8
0
10
-50.05
20
81.956
0
VERTEX
8
0
10
-50.05
20
87.156
42
-0.414
0
VERTEX
8
0
10
-50
20
87.206
0
VERTEX
8
0
10
-47.45
20
87.206
0
VERTEX
8
0
10
-47.45
20
92.15
0
VERTEX
8
0
10
-50
20
92.15
42
-0.414
0
VERTEX
8
0
10
-50.05
20
92.2
0
VERTEX
8
0
10
-50.05
20
97.4
42
-0.414
0
VERTEX
8
0
10
-50
20
97.45
0
VERTEX
8
0
10
-44.85
20
97.45
0
VERTEX
8
0
10
-44.85
20
100
42
-0.414
0
VERTEX
8
0
10
-44.8
20
100.05
0
VERTEX
8
0
10
-39.6
20
100.05
42
-0.414
0
VERTEX
8
0
10
-39.55
20
100
0
VERTEX
8
0
10
-39.55
20
97.45
0
VERTEX
8
0
10
-34.3
20
97.45
0
VERTEX
8
0
10
-34.3
20
100
42
-0.414
0
VERTEX
8
0
10
-34.25
20
100.05
0
VERTEX
8
0
10
-29.05
20
100.05
42
-0.414
0
VERTEX
8
0
10
-29
20
100
0
VERTEX
8
0
10
-29
20
97.45
0
VERTEX
8
0
10
-23.75
20
97.45
0
VERTEX
8
0
10
-23.75
20
100
42
-0.414
0
VERTEX
8
0
10
-23.7
20
100.05
0
VERTEX
8
0
10
-18.5
20
100.05
42
-0.414
0
VERTEX
8
0
10
-18.45
20
100
0
VERTEX
8
0
10
-18.45
20
97.45
0
VERTEX
8
0
10
-13.2
20
97.45
0
VERTEX
8
0
10
-13.2
20
100
42
-0.414
0
VERTEX
8
0
10
-13.15
20
100.05
0
VERTEX
8
0
10
-7.95
20
100.05
42
-0.414
0
VERTEX
8
0
10
-7.9
20
100
0
VERTEX
8
0
10
-7.9
20
97.45
0
VERTEX
8
0
10
-2.65
20
97.45
0
VERTEX
8
0
10
-2.65
20
100
42
-0.414
0
VERTEX
8
0
10
-2.6
20
100.05
0
VERTEX
8
0
10
2.6
20
100.05
42
-0.414
0
VERTEX
8
0
10
2.65
20
100
0
VERTEX
8
0
10
2.65
20
97.45
0
VERTEX
8
0
10
7.9
20
97.45
0
VERTEX
8
0
10
7.9
20
100
42
-0.414
0
VERTEX
8
0
10
7.95
20
100.05
0
VERTEX
8
0
10
13.15
20
100.05
42
-0.414
0
VERTEX
8
0
10
13.2
20
100
0
VERTEX
8
0
10
13.2
20
97.45
0
VERTEX
8
0
10
18.45
20
97.45
0
VERTEX
8
0
10
18.45
20
100
42
-0.414
0
VERTEX
8
0
10
18.5
20
100.05
0
VERTEX
8
0
10
23.7
20
100.05
42
-0.414
0
VERTEX
8
0
10
23.75
20
100
0
VERTEX
8
0
10
23.75
20
97.45
0
VERTEX
8
0
10
29
20
97.45
0
VERTEX
8
0
10
29
20
100
42
-0.414
0
VERTEX
8
0
10
29.05
20
100.05
0
VERTEX
8
0
10
34.25
20
100.05
42
-0.414
0
VERTEX
8
0
10
34.3
20
100
0
VERTEX
8
0
10
34.3
20
97.45
0
VERTEX
8
0
10
39.55
20
97.45
0
VERTEX
8
0
10
39.55
20
100
42
-0.414
0
VERTEX
8
0
10
39.6
20
100.05
0
VERTEX
8
0
10
44.8
20
100.05
42
-0.414
0
VERTEX
8
0
10
44.85
20
100
0
VERTEX
8
0
10
44.85
20
97.45
0
VERTEX
8
0
10
50
20
97.45
42
-0.414
0
VERTEX
8
0
10
50.05
20
97.4
0
VERTEX
8
0
10
50.05
20
92.2
42
-0.414
0
VERTEX
8
0
10
50
20
92.15
0
VERTEX
8
0
10
47.45
20
92.15
0
VERTEX
8
0
10
47.45
20
87.206
0
VERTEX
8
0
10
50
20
87.206
42
-0.414
0
VERTEX
8
0
10
50.05
20
87.156
0
VERTEX
8
0
10
50.05
20
81.956
42
-0.414
0
VERTEX
8
0
10
50
20
81.906
0
VERTEX
8
0
10
47.45
20
81.906
0
VERTEX
8
0
10
47.45
20
76.961
0
VERTEX
8
0
10
50
20
76.961
42
-0.414
0
VERTEX
8
0
10
50.05
20
76.911
0
VERTEX
8
0
10
50.05
20
71.711
42
-0.414
0
VERTEX
8
0
10
50
20
71.661
0
VERTEX
8
0
10
47.45
20
71.661
0
VERTEX
8
0
10
47.45
20
66.717
0
VERTEX
8
0
10
50
20
66.717
42
-0.414
0
VERTEX
8
0
10
50.05
20
66.667
0
VERTEX
8
0
10
50.05
20
61.467
42
-0.414
0
VERTEX
8
0
10
50
20
61.417
0
VERTEX
8
0
10
47.45
20
61.417
0
VERTEX
8
0
10
47.45
20
56.472
0
VERTEX
8
0
10
50
20
56.472
42
-0.414
0
VERTEX
8
0
10
50.05
20
56.422
0
VERTEX
8
0
10
50.05
20
51.222
42
-0.414
0
VERTEX
8
0
10
50
20
51.172
0
VERTEX
8
0
10
47.45
20
51.172
0
VERTEX
8
0
10
47.45
20
46.228
0
VERTEX
8
0
10
50
20
46.228
42
-0.414
0
VERTEX
8
0
10
50.05
20
46.178
0
VERTEX
8
0
10
50.05
20
40.978
42
-0.414
0
VERTEX
8
0
10
50
20
40.928
0
VERTEX
8
0
10
47.45
20
40.928
0
VERTEX
8
0
10
47.45
20
35.983
0
VERTEX
8
0
10
50
20
35.983
42
-0.414
0
VERTEX
8
0
10
50.05
20
35.933
0
VERTEX
8
0
10
50.05
20
30.733
42
-0.414
0
VERTEX
8
0
10
50
20
30.683
0
VERTEX
8
0
10
47.45
20
30.683
0
VERTEX
8
0
10
47.45
20
25.739
0
VERTEX
8
0
10
50
20
25.739
42
-0.414
0
VERTEX
8
0
10
50.05
20
25.689
0
VERTEX
8
0
10
50.05
20
20.489
42
-0.414
0
VERTEX
8
0
10
50
20
20.439
0
VERTEX
8
0
10
47.45
20
20.439
0
VERTEX
8
0
10
47.45
20
15.494
0
VERTEX
8
0
10
50
20
15.494
42
-0.414
0
VERTEX
8
0
10
50.05
20
15.444
0
VERTEX
8
0
10
50.05
20
10.244
42
-0.414
0
VERTEX
8
0
10
50
20
10.194
0
VERTEX
8
0
10
47.45
20
10.194
0
VERTEX
8
0
10
47.45
20
5.25
0
VERTEX
8
0
10
50
20
5.25
42
-0.414
0
VERTEX
8
0
10
50.05
20
5.2
0
VERTEX
8
0
10
50.05
20
0
42
-0.414
0
VERTEX
8
0
10
50
20
-0.05
0
VERTEX
8
0
10
47.45
20
-0.05
0
VERTEX
8
0
10
47.45
20
-4.994
0
VERTEX
8
0
10
50
20
-4.994
42
-0.414
0
VERTEX
8
0
10
50.05
20
-5.044
0
VERTEX
8
0
10
50.05
20
-10.244
42
-0.414
0
VERTEX
8
0
10
50
20
-10.294
0
VERTEX
8
0
10
47.45
20
-10.294
0
VERTEX
8
0
10
47.45
20
-15.239
0
VERTEX
8
0
10
50
20
-15.239
42
-0.414
0
VERTEX
8
0
10
50.05
20
-15.289
0
VERTEX
8
0
10
50.05
20
-20.489
42
-0.414
0
VERTEX
8
0
10
50
20
-20.539
0
VERTEX
8
0
10
47.45
20
-20.539
0
VERTEX
8
0
10
47.45
20
-25.483
0
VERTEX
8
0
10
50
20
-25.483
42
-0.414
0
VERTEX
8
0
10
50.05
20
-25.533
0
VERTEX
8
0
10
50.05
20
-30.733
42
-0.414
0
VERTEX
8
0
10
50
20
-30.783
0
VERTEX
8
0
10
47.45
20
-30.783
0
VERTEX
8
0
10
47.45
20
-35.728
0
VERTEX
8
0
10
50
20
-35.728
42
-0.414
0
VERTEX
8
0
10
50.05
20
-35.778
0
VERTEX
8
0
10
50.05
20
-40.978
42
-0.414
0
VERTEX
8
0
10
50
20
-41.028
0
VERTEX
8
0
10
47.45
20
-41.028
0
VERTEX
8
0
10
47.45
20
-45.972
0
VERTEX
8
0
10
50
20
-45.972
42
-0.414
0
VERTEX
8
0
10
50.05
20
-46.022
0
VERTEX
8
0
10
50.05
20
-51.222
42
-0.414
0
VERTEX
8
0
10
50
20
-51.272
0
VERTEX
8
0
10
47.45
20
-51.272
0
VERTEX
8
0
10
47.45
20
-56.217
0
VERTEX
8
0
10
50
20
-56.217
42
-0.414
0
VERTEX
8
0
10
50.05
20
-56.267
0
VERTEX
8
0
10
50.05
20
-61.467
42
-0.414
0
VERTEX
8
0
10
50
20
-61.517
0
VERTEX
8
0
10
47.45
20
-61.517
0
VERTEX
8
0
10
47.45
20
-66.461
0
VERTEX
8
0
10
50
20
-66.461
42
-0.414
0
VERTEX
8
0
10
50.05
20
-66.511
0
VERTEX
8
0
10
50.05
20
-71.711
42
-0.414
0
VERTEX
8
0
10
50
20
-71.761
0
VERTEX
8
0
10
47.45
20
-71.761
0
VERTEX
8
0
10
47.45
20
-76.706
0
VERTEX
8
0
10
50
20
-76.706
42
-0.414
0
VERTEX
8
0
10
50.05
20
-76.756
0
VERTEX
8
0
10
50.05
20
-81.956
42
-0.414
0
VERTEX
8
0
10
50
20
-82.006
0
VERTEX
8
0
10
47.45
20
-82.006
0
VERTEX
8
0
10
47.45
20
-86.95
0
VERTEX
8
0
10
50
20
-86.95
42
-0.414
0
VERTEX
8
0
10
50.05
20
-87
0
VERTEX
8
0
10
50.05
20
-92.2
42
-0.414
0
VERTEX
8
0
10
50
20
-92.25
0
VERTEX
8
0
10
47.45
20
-92.25
0
VERTEX
8
0
10
47.45
20
-97.4
42
-0.414
0
VERTEX
8
0
10
47.4
20
-97.45
0
VERTEX
8
0
10
44.85
20
-97.45
0
VERTEX
8
0
10
44.85
20
-100
42
-0.414
0
VERTEX
8
0
10
44.8
20
-100.05
0
VERTEX
8
0
10
39.6
20
-100.05
42
-0.414
0
VERTEX
8
0
10
39.55
20
-100
0
VERTEX
8
0
10
39.55
20
-97.45
0
VERTEX
8
0
10
34.3
20
-97.45
0
VERTEX
8
0
10
34.3
20
-100
42
-0.414
0
VERTEX
8
0
10
34.25
20
-100.05
0
VERTEX
8
0
10
29.05
20
-100.05
42
-0.414
0
VERTEX
8
0
10
29
20
-100
0
VERTEX
8
0
10
29
20
-97.45
0
VERTEX
8
0
10
23.75
20
-97.45
0
VERTEX
8
0
10
23.75
20
-100
42
-0.414
0
VERTEX
8
0
10
23.7
20
-100.05
0
VERTEX
8
0
10
18.5
20
-100.05
42
-0.414
0
VERTEX
8
0
10
18.45
20
-100
0
VERTEX
8
0
10
18.45
20
-97.45
0
VERTEX
8
0
10
13.2
20
-97.45
0
VERTEX
8
0
10
13.2
20
-100
42
-0.414
0
VERTEX
8
0
10
13.15
20
-100.05
0
VERTEX
8
0
10
7.95
20
-100.05
42
-0.414
0
VERTEX
8
0
10
7.9
20
-100
0
VERTEX
8
0
10
7.9
20
-97.45
0
VERTEX
8
0
10
2.65
20
-97.45
0
VERTEX
8
0
10
2.65
20
-100
42
-0.414
0
VERTEX
8
0
10
2.6
20
-100.05
0
VERTEX
8
0
10
-2.6
20
-100.05
42
-0.414
0
VERTEX
8
0
10
-2.65
20
-100
0
VERTEX
8
0
10
-2.65
20
-97.45
0
VERTEX
8
0
10
-7.9
20
-97.45
0
VERTEX
8
0
10
-7.9
20
-100
42
-0.414
0
VERTEX
8
0
10
-7.95
20
-100.05
0
VERTEX
8
0
10
-13.15
20
-100.05
42
-0.414
0
VERTEX
8
0
10
-13.2
20
-100
0
VERTEX
8
0
10
-13.2
20
-97.45
0
VERTEX
8
0
10
-18.45
20
-97.45
0
VERTEX
8
0
10
-18.45
20
-100
42
-0.414
0
VERTEX
8
0
10
-18.5
20
-100.05
0
VERTEX
8
0
10
-23.7
20
-100.05
42
-0.414
0
VERTEX
8
0
10
-23.75
20
-100
0
VERTEX
8
0
10
-23.75
20
-97.45
0
VERTEX
8
0
10
-29
20
-97.45
0
VERTEX
8
0
10
-29
20
-100
42
-0.414
0
VERTEX
8
0
10
-29.05
20
-100.05
0
VERTEX
8
0
10
-34.25
20
-100.05
42
-0.414
0
VERTEX
8
0
10
-34.3
20
-100
0
VERTEX
8
0
10
-34.3
20
-97.45
0
VERTEX
8
0
10
-39.55
20
-97.45
0
VERTEX
8
0
10
-39.55
20
-100
42
-0.414
0
VERTEX
8
0
10
-39.6
20
-100.05
0
VERTEX
8
0
10
-44.8
20
-100.05
42
-0.414
0
VERTEX
8
0
10
-44.85
20
-100
0
VERTEX
8
0
10
-44.85
20
-97.45
0
VERTEX
8
0
10
-47.4
20
-97.45
42
-0.414
0
VERTEX
8
0
10
-47.45
20
-97.4
0
VERTEX
8
0
10
-47.45
20
-92.25
0
VERTEX
8
0
10
-50
20
-92.25
42
-0.414
0
VERTEX
8
0
10
-50.05
20
-92.2
0
VERTEX
8
0
10
-50.05
20
-87
42
-0.414
0
VERTEX
8
0
10
-50
20
-86.95
0
VERTEX
8
0
10
-47.45
20
-86.95
0
VERTEX
8
0
10
-47.45
20
-82.006
0
VERTEX
8
0
10
-50
20
-82.006
42
-0.414
0
VERTEX
8
0
10
-50.05
20
-81.956
0
VERTEX
8
0
10
-50.05
20
-76.756
42
-0.414
0
VERTEX
8
0
10
-50
20
-76.706
0
VERTEX
8
0
10
-47.45
20
-76.706
0
VERTEX
8
0
10
-47.45
20
-71.761
0
VERTEX
8
0
10
-50
20
-71.761
42
-0.414
0
VERTEX
8
0
10
-50.05
20
-71.711
0
SEQEND
8
0
0
POLYLINE
8
0
62
1
66
1
70
1
0
VERTEX
8
0
10
-50.05
20
-71.711
0
VERTEX
8
0
10
-50.05
20
-66.511
42
-0.414
0
VERTEX
8
0
10
-50
20
-66.461
0
VERTEX
8
0
10
-47.45
20
-66.461
0
VERTEX
8
0
10
-47.45
20
-61.517
0
VERTEX
8
0
10
-50
20
-61.517
42
-0.414
0
VERTEX
8
0
10
-50.05
20
-61.467
0
VERTEX
8
0
10
-50.05
20
-56.267
42
-0.414
0
VERTEX
8
0
10
-50
20
-56.217
0
VERTEX
8
0
10
-47.45
20
-56.217
0
VERTEX
8
0
10
-47.45
20
-51.272
0
VERTEX
8
0
10
-50
20
-51.272
42
-0.414
0
VERTEX
8
0
10
-50.05
20
-51.222
0
VERTEX
8
0
10
-50.05
20
-46.022
42
-0.414
0
VERTEX
8
0
10
-50
20
-45.972
0
VERTEX
8
0
10
-47.45
20
-45.972
0
VERTEX
8
0
10
-47.45
20
-41.028
0
VERTEX
8
0
10
-50
20
-41.028
42
-0.414
0
VERTEX
8
0
10
-50.05
20
-40.978
0
VERTEX
8
0
10
-50.05
20
-35.778
42
-0.414
0
VERTEX
8
0
10
-50
20
-35.728
0
VERTEX
8
0
10
-47.45
20
-35.728
0
VERTEX
8
0
10
-47.45
20
-30.783
0
VERTEX
8
0
10
-50
20
-30.783
42
-0.414
0
VERTEX
8
0
10
-50.05
20
-30.733
0
VERTEX
8
0
10
-50.05
20
-25.533
42
-0.414
0
VERTEX
8
0
10
-50
20
-25.483
0
VERTEX
8
0
10
-47.45
20
-25.483
0
VERTEX
8
0
10
-47.45
20
-20.539
0
VERTEX
8
0
10
-50
20
-20.539
42
-0.414
0
VERTEX
8
0
10
-50.05
20
-20.489
0
VERTEX
8
0
10
-50.05
20
-15.289
42
-0.414
0
VERTEX
8
0
10
-50
20
-15.239
0
VERTEX
8
0
10
-47.45
20
-15.239
0
VERTEX
8
0
10
-47.45
20
-10.294
0
VERTEX
8
0
10
-50
20
-10.294
42
-0.414
0
VERTEX
8
0
10
-50.05
20
-10.244
0
VERTEX
8
0
10
-50.05
20
-5.044
42
-0.414
0
VERTEX
8
0
10
-50
20
-4.994
0
VERTEX
8
0
10
-47.45
20
-4.994
0
VERTEX
8
0
10
-47.45
20
-0.05
0
VERTEX
8
0
10
-50
20
-0.05
42
-0.414
0
VERTEX
8
0
10
-50.05
20
0
0
VERTEX
8
0
10
-50.05
20
5.2
42
-0.414
0
VERTEX
8
0
10
-50
20
5.25
0
VERTEX
8
0
10
-47.45
20
5.25
0
VERTEX
8
0
10
-47.45
20
10.194
0
VERTEX
8
0
10
-50
20
10.194
42
-0.414
0
VERTEX
8
0
10
-50.05
20
10.244
0
VERTEX
8
0
10
-50.05
20
15.444
42
-0.414
0
VERTEX
8
0
10
-50
20
15.494
0
VERTEX
8
0
10
-47.45
20
15.494
0
VERTEX
8
0
10
-47.45
20
20.439
0
VERTEX
8
0
10
-50
20
20.439
42
-0.414
0
VERTEX
8
0
10
-50.05
20
20.489
0
VERTEX
8
0
10
-50.05
20
25.689
42
-0.414
0
VERTEX
8
0
10
-50
20
25.739
0
VERTEX
8
0
10
-47.45
20
25.739
0
VERTEX
8
0
10
-47.45
20
30.683
0
VERTEX
8
0
10
-50
20
30.683
42
-0.414
0
VERTEX
8
0
10
-50.05
20
30.733
0
VERTEX
8
0
10
-50.05
20
35.933
42
-0.414
0
VERTEX
8
0
10
-50
20
35.983
0
VERTEX
8
0
10
-47.45
20
35.983
0
VERTEX
8
0
10
-47.45
20
40.928
0
VERTEX
8
0
10
-50
20
40.928
42
-0.414
0
VERTEX
8
0
10
-50.05
20
40.978
0
VERTEX
8
0
10
-50.05
20
46.178
42
-0.414
0
VERTEX
8
0
10
-50
20
46.228
0
VERTEX
8
0
10
-47.45
20
46.228
0
VERTEX
8
0
10
-47.45
20
51.172
0
VERTEX
8
0
10
-50
20
51.172
42
-0.414
0
VERTEX
8
0
10
-50.05
20
51.222
0
VERTEX
8
0
10
-50.05
20
56.422
42
-0.414
0
VERTEX
8
0
10
-50
20
56.472
0
VERTEX
8
0
10
-47.45
20
56.472
0
VERTEX
8
0
10
-47.45
20
61.417
0
VERTEX
8
0
10
-50
20
61.417
42
-0.414
0
VERTEX
8
0
10
-50.05
20
61.467
0
VERTEX
8
0
10
-50.05
20
66.667
42
-0.414
0
VERTEX
8
0
10
-50
20
66.717
0
VERTEX
8
0
10
-47.45
20
66.717
0
VERTEX
8
0
10
-47.45
20
71.661
0
VERTEX
8
0
10
-50
20
71.661
42
-0.414
0
VERTEX
8
0
10
-50.05
20
71.711
0
VERTEX
8
0
10
-50.05
20
76.911
42
-0.414
0
VERTEX
8
0
10
-50
20
76.961
0
VERTEX
8
0
10
-47.45
20
76.961
0
VERTEX
8
0
10
-47.45
20
81.906
0
VERTEX
8
0
10
-50
20
81.906
42
-0.414
0
VERTEX
8
0
10
-50.05
20
81.956
0
VERTEX
8
0
10
-50.05
20
87.156
42
-0.414
0
VERTEX
8
0
10
-50
20
87.206
0
VERTEX
8
0
10
-47.45
20
87.206
0
VERTEX
8
0
10
-47.45
20
92.15
0
VERTEX
8
0
10
-50
20
92.15
42
-0.414
0
VERTEX
8
0
10
-50.05
20
92.2
0
VERTEX
8
0
10
-50.05
20
97.4
42
-0.414
0
VERTEX
8
0
10
-50
20
97.45
0
VERTEX
8
0
10
-44.85
20
97.45
0
VERTEX
8
0
10
-44.85
20
100
42
-0.414
0
VERTEX
8
0
10
-44.8
20
100.05
0
VERTEX
8
0
10
-39.6
20
100.05
42
-0.414
0
VERTEX
8
0
10
-39.55
20
100
0
VERTEX
8
0
10
-39.55
20
97.45
0
VERTEX
8
0
10
-34.3
20
97.45
0
VERTEX
8
0
10
-34.3
20
100
42
-0.414
0
VERTEX
8
0
10
-34.25
20
100.05
0
VERTEX
8
0
10
-29.05
20
100.05
42
-0.414
0
VERTEX
8
0
10
-29
20
100
0
VERTEX
8
0
10
-29
20
97.45
0
VERTEX
8
0
10
-23.75
20
97.45
0
VERTEX
8
0
10
-23.75
20
100
42
-0.414
0
VERTEX
8
0
10
-23.7
20
100.05
0
VERTEX
8
0
10
-18.5
20
100.05
42
-0.414
0
VERTEX
8
0
10
-18.45
20
100
0
VERTEX
8
0
10
-18.45
20
97.45
0
VERTEX
8
0
10
-13.2
20
97.45
0
VERTEX
8
0
10
-13.2
20
100
42
-0.414
0
VERTEX
8
0
10
-13.15
20
100.05
0
VERTEX
8
0
10
-7.95
20
100.05
42
-0.414
0
VERTEX
8
0
10
-7.9
20
100
0
VERTEX
8
0
10
-7.9
20
97.45
0
VERTEX
8
0
10
-2.65
20
97.45
0
VERTEX
8
0
10
-2.65
20
100
42
-0.414
0
VERTEX
8
0
10
-2.6
20
100.05
0
VERTEX
8
0
10
2.6
20
100.05
42
-0.414
0
VERTEX
8
0
10
2.65
20
100
0
VERTEX
8
0
10
2.65
20
97.45
0
VERTEX
8
0
10
7.9
20
97.45
0
VERTEX
8
0
10
7.9
20
100
42
-0.414
0
VERTEX
8
0
10
7.95
20
100.05
0
VERTEX
8
0
10
13.15
20
100.05
42
-0.414
0
VERTEX
8
0
10
13.2
20
100
0
VERTEX
8
0
10
13.2
20
97.45
0
VERTEX
8
0
10
18.45
20
97.45
0
VERTEX
8
0
10
18.45
20
100
42
-0.414
0
VERTEX
8
0
10
18.5
20
100.05
0
VERTEX
8
0
10
23.7
20
100.05
42
-0.414
0
VERTEX
8
0
10
23.75
20
100
0
VERTEX
8
0
10
23.75
20
97.45
0
VERTEX
8
0
10
29
20
97.45
0
VERTEX
8
0
10
29
20
100
42
-0.414
0
VERTEX
8
0
10
29.05
20
100.05
0
VERTEX
8
0
10
34.25
20
100.05
42
-0.414
0
VERTEX
8
0
10
34.3
20
100
0
VERTEX
8
0
10
34.3
20
97.45
0
VERTEX
8
0
10
39.55
20
97.45
0
VERTEX
8
0
10
39.55
20
100
42
-0.414
0
VERTEX
8
0
10
39.6
20
100.05
0
VERTEX
8
0
10
44.8
20
100.05
42
-0.414
0
VERTEX
8
0
10
44.85
20
100
0
VERTEX
8
0
10
44.85
20
97.45
0
VERTEX
8
0
10
50
20
97.45
42
-0.414
0
VERTEX
8
0
10
50.05
20
97.4
0
VERTEX
8
0
10
50.05
20
92.2
42
-0.414
0
VERTEX
8
0
10
50
20
92.15
0
VERTEX
8
0
10
47.45
20
92.15
0
VERTEX
8
0
10
47.45
20
87.206
0
VERTEX
8
0
10
50
20
87.206
42
-0.414
0
VERTEX
8
0
10
50.05
20
87.156
0
VERTEX
8
0
10
50.05
20
81.956
42
-0.414
0
VERTEX
8
0
10
50
20
81.906
0
VERTEX
8
0
10
47.45
20
81.906
0
VERTEX
8
0
10
47.45
20
76.961
0
VERTEX
8
0
10
50
20
76.961
42
-0.414
0
VERTEX
8
0
10
50.05
20
76.911
0
VERTEX
8
0
10
50.05
20
71.711
42
-0.414
0
VERTEX
8
0
10
50
20
71.661
0
VERTEX
8
0
10
47.45
20
71.661
0
VERTEX
8
0
10
47.45
20
66.717
0
VERTEX
8
0
10
50
20
66.717
42
-0.414
0
VERTEX
8
0
10
50.05
20
66.667
0
VERTEX
8
0
10
50.05
20
61.467
42
-0.414
0
VERTEX
8
0
10
50
20
61.417
0
VERTEX
8
0
10
47.45
20
61.417
0
VERTEX
8
0
10
47.45
20
56.472
0
VERTEX
8
0
10
50
20
56.472
42
-0.414
0
VERTEX
8
0
10
50.05
20
56.422
0
VERTEX
8
0
10
50.05
20
51.222
42
-0.414
0
VERTEX
8
0
10
50
20
51.172
0
VERTEX
8
0
10
47.45
20
51.172
0
VERTEX
8
0
10
47.45
20
46.228
0
VERTEX
8
0
10
50
20
46.228
42
-0.414
0
VERTEX
8
0
10
50.05
20
46.178
0
VERTEX
8
0
10
50.05
20
40.978
42
-0.414
0
VERTEX
8
0
10
50
20
40.928
0
VERTEX
8
0
10
47.45
20
40.928
0
VERTEX
8
0
10
47.45
20
35.983
0
VERTEX
8
0
10
50
20
35.983
42
-0.414
0
VERTEX
8
0
10
50.05
20
35.933
0
VERTEX
8
0
10
50.05
20
30.733
42
-0.414
0
VERTEX
8
0
10
50
20
30.683
0
VERTEX
8
0
10
47.45
20
30.683
0
VERTEX
8
0
10
47.45
20
25.739
0
VERTEX
8
0
10
50
20
25.739
42
-0.414
0
VERTEX
8
0
10
50.05
20
25.689
0
VERTEX
8
0
10
50.05
20
20.489
42
-0.414
0
VERTEX
8
0
10
50
20
20.439
0
VERTEX
8
0
10
47.45
20
20.439
0
VERTEX
8
0
10
47.45
20
15.494
0
VERTEX
8
0
10
50
20
15.494
42
-0.414
0
VERTEX
8
0
10
50.05
20
15.444
0
VERTEX
8
0
10
50.05
20
10.244
42
-0.414
0
VERTEX
8
0
10
50
20
10.194
0
VERTEX
8
0
10
47.45
20
10.194
0
VERTEX
8
0
10
47.45
20
5.25
0
VERTEX
8
0
10
50
20
5.25
42
-0.414
0
VERTEX
8
0
10
50.05
20
5.2
0
VERTEX
8
0
10
50.05
20
0
42
-0.414
0
VERTEX
8
0
10
50
20
-0.05
0
VERTEX
8
0
10
47.45
20
-0.05
0
VERTEX
8
0
10
47.45
20
-4.994
0
VERTEX
8
0
10
50
20
-4.994
42
-0.414
0
VERTEX
8
0
10
50.05
20
-5.044
0
VERTEX
8
0
10
50.05
20
-10.244
42
-0.414
0
VERTEX
8
0
10
50
20
-10.294
0
VERTEX
8
0
10
47.45
20
-10.294
0
VERTEX
8
0
10
47.45
20
-15.239
0
VERTEX
8
0
10
50
20
-15.239
42
-0.414
0
VERTEX
8
0
10
50.05
20
-15.289
0
VERTEX
8
0
10
50.05
20
-20.489
42
-0.414
0
VERTEX
8
0
10
50
20
-20.539
0
VERTEX
8
0
10
47.45
20
-20.539
0
VERTEX
8
0
10
47.45
20
-25.483
0
VERTEX
8
0
10
50
20
-25.483
42
-0.414
0
VERTEX
8
0
10
50.05
20
-25.533
0
VERTEX
8
0
10
50.05
20
-30.733
42
-0.414
0
VERTEX
8
0
10
50
20
-30.783
0
VERTEX
8
0
10
47.45
20
-30.783
0
VERTEX
8
0
10
47.45
20
-35.728
0
VERTEX
8
0
10
50
20
-35.728
42
-0.414
0
VERTEX
8
0
10
50.05
20
-35.778
0
VERTEX
8
0
10
50.05
20
-40.978
42
-0.414
0
VERTEX
8
0
10
50
20
-41.028
0
VERTEX
8
0
10
47.45
20
-41.028
0
VERTEX
8
0
10
47.45
20
-45.972
0
VERTEX
8
0
10
50
20
-45.972
42
-0.414
0
VERTEX
8
0
10
50.05
20
-46.022
0
VERTEX
8
0
10
50.05
20
-51.222
42
-0.414
0
VERTEX
8
0
10
50
20
-51.272
0
VERTEX
8
0
10
47.45
20
-51.272
0
VERTEX
8
0
10
47.45
20
-56.217
0
VERTEX
8
0
10
50
20
-56.217
42
-0.414
0
VERTEX
8
0
10
50.05
20
-56.267
0
VERTEX
8
0
10
50.05
20
-61.467
42
-0.414
0
VERTEX
8
0
10
50
20
-61.517
0
VERTEX
8
0
10
47.45
20
-61.517
0
VERTEX
8
0
10
47.45
20
-66.461
0
VERTEX
8
0
10
50
20
-66.461
42
-0.414
0
VERTEX
8
0
10
50.05
20
-66.511
0
VERTEX
8
0
10
50.05
20
-71.711
42
-0.414
0
VERTEX
8
0
10
50
20
-71.761
0
VERTEX
8
0
10
47.45
20
-71.761
0
VERTEX
8
0
10
47.45
20
-76.706
0
VERTEX
8
0
10
50
20
-76.706
42
-0.414
0
VERTEX
8
0
10
50.05
20
-76.756
0
VERTEX
8
0
10
50.05
20
-81.956
42
-0.414
0
VERTEX
8
0
10
50
20
-82.006
0
VERTEX
8
0
10
47.45
20
-82.006
0
VERTEX
8
0
10
47.45
20
-86.95
0
VERTEX
8
0
10
50
20
-86.95
42
-0.414
0
VERTEX
8
0
10
50.05
20
-87
0
VERTEX
8
0
10
50.05
20
-92.2
42
-0.414
0
VERTEX
8
0
10
50
20
-92.25
0
VERTEX
8
0
10
47.45
20
-92.25
0
VERTEX
8
0
10
47.45
20
-97.4
42
-0.414
0
VERTEX
8
0
10
47.4
20
-97.45
0
VERTEX
8
0
10
44.85
20
-97.45
0
VERTEX
8
0
10
44.85
20
-100
42
-0.414
0
VERTEX
8
0
10
44.8
20
-100.05
0
VERTEX
8
0
10
39.6
20
-100.05
42
-0.414
0
VERTEX
8
0
10
39.55
20
-100
0
VERTEX
8
0
10
39.55
20
-97.45
0
VERTEX
8
0
10
34.3
20
-97.45
0
VERTEX
8
0
10
34.3
20
-100
42
-0.414
0
VERTEX
8
0
10
34.25
20
-100.05
0
VERTEX
8
0
10
29.05
20
-100.05
42
-0.414
0
VERTEX
8
0
10
29
20
-100
0
VERTEX
8
0
10
29
20
-97.45
0
VERTEX
8
0
10
23.75
20
-97.45
0
VERTEX
8
0
10
23.75
20
-100
42
-0.414
0
VERTEX
8
0
10
23.7
20
-100.05
0
VERTEX
8
0
10
18.5
20
-100.05
42
-0.414
0
VERTEX
8
0
10
18.45
20
-100
0
VERTEX
8
0
10
18.45
20
-97.45
0
VERTEX
8
0
10
13.2
20
-97.45
0
VERTEX
8
0
10
13.2
20
-100
42
-0.414
0
VERTEX
8
0
10
13.15
20
-100.05
0
VERTEX
8
0
10
7.95
20
-100.05
42
-0.414
0
VERTEX
8
0
10
7.9
20
-100
0
VERTEX
8
0
10
7.9
20
-97.45
0
VERTEX
8
0
10
2.65
20
-97.45
0
VERTEX
8
0
10
2.65
20
-100
42
-0.414
0
VERTEX
8
0
10
2.6
20
-100.05
0
VERTEX
8
0
10
-2.6
20
-100.05
42
-0.414
0
VERTEX
8
0
10
-2.65
20
-100
0
VERTEX
8
0
10
-2.65
20
-97.45
0
VERTEX
8
0
10
-7.9
20
-97.45
0
VERTEX
8
0
10
-7.9
20
-100
42
-0.414
0
VERTEX
8
0
10
-7.95
20
-100.05
0
VERTEX
8
0
10
-13.15
20
-100.05
42
-0.414
0
VERTEX
8
0
10
-13.2
20
-100
0
VERTEX
8
0
10
-13.2
20
-97.45
0
VERTEX
8
0
10
-18.45
20
-97.45
0
VERTEX
8
0
10
-18.45
20
-100
42
-0.414
0
VERTEX
8
0
10
-18.5
20
-100.05
0
VERTEX
8
0
10
-23.7
20
-100.05
42
-0.414
0
VERTEX
8
0
10
-23.75
20
-100
0
VERTEX
8
0
10
-23.75
20
-97.45
0
VERTEX
8
0
10
-29
20
-97.45
0
VERTEX
8
0
10
-29
20
-100
42
-0.414
0
VERTEX
8
0
10
-29.05
20
-100.05
0
VERTEX
8
0
10
-34.25
20
-100.05
42
-0.414
0
VERTEX
8
0
10
-34.3
20
-100
0
VERTEX
8
0
10
-34.3
20
-97.45
0
VERTEX
8
0
10
-39.55
20
-97.45
0
VERTEX
8
0
10
-39.55
20
-100
42
-0.414
0
VERTEX
8
0
10
-39.6
20
-100.05
0
VERTEX
8
0
10
-44.8
20
-100.05
42
-0.414
0
VERTEX
8
0
10
-44.85
20
-100
0
VERTEX
8
0
10
-44.85
20
-97.45
0
VERTEX
8
0
10
-47.4
20
-97.45
42
-0.414
0
VERTEX
8
0
10
-47.45
20
-97.4
0
VERTEX
8
0
10
-47.45
20
-92.25
0
VERTEX
8
0
10
-50
20
-92.25
42
-0.414
0
VERTEX
8
0
10
-50.05
20
-92.2
0
VERTEX
8
0
10
-50.05
20
-87
42
-0.414
0
VERTEX
8
0
10
-50
20
-86.95
0
VERTEX
8
0
10
-47.45
20
-86.95
0
VERTEX
8
0
10
-47.45
20
-82.006
0
VERTEX
8
0
10
-50
20
-82.006
42
-0.414
0
VERTEX
8
0
10
-50.05
20
-81.956
0
VERTEX
8
0
10
-50.05
20
-76.756
42
-0.414
0
VERTEX
8
0
10
-50
20
-76.706
0
VERTEX
8
0
10
-47.45
20
-76.706
0
VERTEX
8
0
10
-47.45
20
-71.761
0
VERTEX
8
0
10
-50
20
-71.761
42
-0.414
0
VERTEX
8
0
10
-50.05
20
-71.711
0
SEQEND
8
0
0
POLYLINE
8
0
62
1
66
1
70
1
0
VERTEX
8
0
10
-2.519
20
-100
42
-0.414
0
VERTEX
8
0
10
-2.569
20
-100.05
0
VERTEX
8
0
10
-7.769
20
-100.05
42
-0.414
0
VERTEX
8
0
10
-7.819
20
-100
0
VERTEX
8
0
10
-7.819
20
-97.45
0
VERTEX
8
0
10
-12.858
20
-97.45
0
VERTEX
8
0
10
-12.858
20
-100
42
-0.414
0
VERTEX
8
0
10
-12.908
20
-100.05
0
VERTEX
8
0
10
-18.108
20
-100.05
42
-0.414
0
VERTEX
8
0
10
-18.158
20
-100
0
VERTEX
8
0
10
-18.158
20
-97.45
0
VERTEX
8
0
10
-23.196
20
-97.45
0
VERTEX
8
0
10
-23.196
20
-100
42
-0.414
0
VERTEX
8
0
10
-23.246
20
-100.05
0
VERTEX
8
0
10
-28.446
20
-100.05
42
-0.414
0
VERTEX
8
0
10
-28.496
20
-100
0
VERTEX
8
0
10
-28.496
20
-97.45
0
VERTEX
8
0
10
-33.535
20
-97.45
0
VERTEX
8
0
10
-33.535
20
-100
42
-0.414
0
VERTEX
8
0
10
-33.585
20
-100.05
0
VERTEX
8
0
10
-38.785
20
-100.05
42
-0.414
0
VERTEX
8
0
10
-38.835
20
-100
0
VERTEX
8
0
10
-38.835
20
-97.45
0
VERTEX
8
0
10
-43.873
20
-97.45
0
VERTEX
8
0
10
-43.873
20
-100
42
-0.414
0
VERTEX
8
0
10
-43.923
20
-100.05
0
VERTEX
8
0
10
-49.123
20
-100.05
42
-0.414
0
VERTEX
8
0
10
-49.173
20
-100
0
VERTEX
8
0
10
-49.173
20
-97.45
0
VERTEX
8
0
10
-54.211
20
-97.45
0
VERTEX
8
0
10
-54.211
20
-100
42
-0.414
0
VERTEX
8
0
10
-54.262
20
-100.05
0
VERTEX
8
0
10
-59.461
20
-100.05
42
-0.414
0
VERTEX
8
0
10
-59.512
20
-100
0
VERTEX
8
0
10
-59.512
20
-97.45
0
VERTEX
8
0
10
-64.55
20
-97.45
0
VERTEX
8
0
10
-64.55
20
-100
42
-0.414
0
VERTEX
8
0
10
-64.6
20
-100.05
0
VERTEX
8
0
10
-69.8
20
-100.05
42
-0.414
0
VERTEX
8
0
10
-69.85
20
-100
0
VERTEX
8
0
10
-69.85
20
-97.45
0
VERTEX
8
0
10
-72.4
20
-97.45
42
-0.414
0
VERTEX
8
0
10
-72.45
20
-97.4
0
VERTEX
8
0
10
-72.45
20
-92.25
0
VERTEX
8
0
10
-75
20
-92.25
42
-0.414
0
VERTEX
8
0
10
-75.05
20
-92.2
0
VERTEX
8
0
10
-75.05
20
-87.156
42
-0.414
0
VERTEX
8
0
10
-75
20
-87.106
0
VERTEX
8
0
10
-72.45
20
-87.106
0
VERTEX
8
0
10
-72.45
20
-82.006
0
VERTEX
8
0
10
-75
20
-82.006
42
-0.414
0
VERTEX
8
0
10
-75.05
20
-81.956
0
VERTEX
8
0
10
-75.05
20
-76.911
42
-0.414
0
VERTEX
8
0
10
-75
20
-76.861
0
VERTEX
8
0
10
-72.45
20
-76.861
0
VERTEX
8
0
10
-72.45
20
-71.761
0
VERTEX
8
0
10
-75
20
-71.761
42
-0.414
0
VERTEX
8
0
10
-75.05
20
-71.711
0
VERTEX
8
0
10
-75.05
20
-66.667
42
-0.414
0
VERTEX
8
0
10
-75
20
-66.617
0
VERTEX
8
0
10
-72.45
20
-66.617
0
VERTEX
8
0
10
-72.45
20
-61.517
0
VERTEX
8
0
10
-75
20
-61.517
42
-0.414
0
VERTEX
8
0
10
-75.05
20
-61.467
0
VERTEX
8
0
10
-75.05
20
-56.422
42
-0.414
0
VERTEX
8
0
10
-75
20
-56.372
0
VERTEX
8
0
10
-72.45
20
-56.372
0
VERTEX
8
0
10
-72.45
20
-51.272
0
VERTEX
8
0
10
-75
20
-51.272
42
-0.414
0
VERTEX
8
0
10
-75.05
20
-51.222
0
VERTEX
8
0
10
-75.05
20
-46.178
42
-0.414
0
VERTEX
8
0
10
-75
20
-46.128
0
VERTEX
8
0
10
-72.45
20
-46.128
0
VERTEX
8
0
10
-72.45
20
-41.028
0
VERTEX
8
0
10
-75
20
-41.028
42
-0.414
0
VERTEX
8
0
10
-75.05
20
-40.978
0
VERTEX
8
0
10
-75.05
20
-35.933
42
-0.414
0
VERTEX
8
0
10
-75
20
-35.883
0
VERTEX
8
0
10
-72.45
20
-35.883
0
VERTEX
8
0
10
-72.45
20
-30.783
0
VERTEX
8
0
10
-75
20
-30.783
42
-0.414
0
VERTEX
8
0
10
-75.05
20
-30.733
0
VERTEX
8
0
10
-75.05
20
-25.689
42
-0.414
0
VERTEX
8
0
10
-75
20
-25.639
0
VERTEX
8
0
10
-72.45
20
-25.639
0
VERTEX
8
0
10
-72.45
20
-20.539
0
VERTEX
8
0
10
-75
20
-20.539
42
-0.414
0
VERTEX
8
0
10
-75.05
20
-20.489
0
VERTEX
8
0
10
-75.05
20
-15.444
42
-0.414
0
VERTEX
8
0
10
-75
20
-15.394
0
VERTEX
8
0
10
-72.45
20
-15.394
0
VERTEX
8
0
10
-72.45
20
-10.294
0
VERTEX
8
0
10
-75
20
-10.294
42
-0.414
0
VERTEX
8
0
10
-75.05
20
-10.244
0
VERTEX
8
0
10
-75.05
20
-5.2
42
-0.414
0
VERTEX
8
0
10
-75
20
-5.15
0
VERTEX
8
0
10
-72.45
20
-5.15
0
VERTEX
8
0
10
-72.45
20
-0.05
0
VERTEX
8
0
10
-75
20
-0.05
42
-0.414
0
VERTEX
8
0
10
-75.05
20
0
0
VERTEX
8
0
10
-75.05
20
5.044
42
-0.414
0
VERTEX
8
0
10
-75
20
5.094
0
VERTEX
8
0
10
-72.45
20
5.094
0
VERTEX
8
0
10
-72.45
20
10.194
0
VERTEX
8
0
10
-75
20
10.194
42
-0.414
0
VERTEX
8
0
10
-75.05
20
10.244
0
VERTEX
8
0
10
-75.05
20
15.289
42
-0.414
0
VERTEX
8
0
10
-75
20
15.339
0
VERTEX
8
0
10
-72.45
20
15.339
0
VERTEX
8
0
10
-72.45
20
20.439
0
VERTEX
8
0
10
-75
20
20.439
42
-0.414
0
VERTEX
8
0
10
-75.05
20
20.489
0
VERTEX
8
0
10
-75.05
20
25.533
42
-0.414
0
VERTEX
8
0
10
-75
20
25.583
0
VERTEX
8
0
10
-72.45
20
25.583
0
VERTEX
8
0
10
-72.45
20
30.683
0
VERTEX
8
0
10
-75
20
30.683
42
-0.414
0
VERTEX
8
0
10
-75.05
20
30.733
0
VERTEX
8
0
10
-75.05
20
35.778
42
-0.414
0
VERTEX
8
0
10
-75
20
35.828
0
VERTEX
8
0
10
-72.45
20
35.828
0
VERTEX
8
0
10
-72.45
20
40.928
0
VERTEX
8
0
10
-75
20
40.928
42
-0.414
0
VERTEX
8
0
10
-75.05
20
40.978
0
VERTEX
8
0
10
-75.05
20
46.022
42
-0.414
0
VERTEX
8
0
10
-75
20
46.072
0
VERTEX
8
0
10
-72.45
20
46.072
0
VERTEX
8
0
10
-72.45
20
51.172
0
VERTEX
8
0
10
-75
20
51.172
42
-0.414
0
VERTEX
8
0
10
-75.05
20
51.222
0
VERTEX
8
0
10
-75.05
20
56.267
42
-0.414
0
VERTEX
8
0
10
-75
20
56.317
0
VERTEX
8
0
10
-72.45
20
56.317
0
VERTEX
8
0
10
-72.45
20
61.417
0
VERTEX
8
0
10
-75
20
61.417
42
-0.414
0
VERTEX
8
0
10
-75.05
20
61.467
0
VERTEX
8
0
10
-75.05
20
66.511
42
-0.414
0
VERTEX
8
0
10
-75
20
66.561
0
VERTEX
8
0
10
-72.45
20
66.561
0
VERTEX
8
0
10
-72.45
20
71.661
0
VERTEX
8
0
10
-75
20
71.661
42
-0.414
0
VERTEX
8
0
10
-75.05
20
71.711
0
VERTEX
8
0
10
-75.05
20
76.756
42
-0.414
0
VERTEX
8
0
10
-75
20
76.806
0
VERTEX
8
0
10
-72.45
20
76.806
0
VERTEX
8
0
10
-72.45
20
81.906
0
VERTEX
8
0
10
-75
20
81.906
42
-0.414
0
VERTEX
8
0
10
-75.05
20
81.956
0
VERTEX
8
0
10
-75.05
20
87
42
-0.414
0
VERTEX
8
0
10
-75
20
87.05
0
VERTEX
8
0
10
-72.45
20
87.05
0
VERTEX
8
0
10
-72.45
20
92.15
0
VERTEX
8
0
10
-75
20
92.15
42
-0.414
0
VERTEX
8
0
10
-75.05
20
92.2
0
VERTEX
8
0
10
-75.05
20
97.4
42
-0.414
0
VERTEX
8
0
10
-75
20
97.45
0
VERTEX
8
0
10
-69.85
20
97.45
0
VERTEX
8
0
10
-69.85
20
100
42
-0.414
0
VERTEX
8
0
10
-69.8
20
100.05
0
VERTEX
8
0
10
-64.6
20
100.05
42
-0.414
0
VERTEX
8
0
10
-64.55
20
100
0
VERTEX
8
0
10
-64.55
20
97.45
0
VERTEX
8
0
10
-59.512
20
97.45
0
VERTEX
8
0
10
-59.512
20
100
42
-0.414
0
VERTEX
8
0
10
-59.461
20
100.05
0
VERTEX
8
0
10
-54.262
20
100.05
42
-0.414
0
VERTEX
8
0
10
-54.211
20
100
0
VERTEX
8
0
10
-54.211
20
97.45
0
VERTEX
8
0
10
-49.173
20
97.45
0
VERTEX
8
0
10
-49.173
20
100
42
-0.414
0
VERTEX
8
0
10
-49.123
20
100.05
0
VERTEX
8
0
10
-43.923
20
100.05
42
-0.414
0
VERTEX
8
0
10
-43.873
20
100
0
VERTEX
8
0
10
-43.873
20
97.45
0
VERTEX
8
0
10
-38.835
20
97.45
0
VERTEX
8
0
10
-38.835
20
100
42
-0.414
0
VERTEX
8
0
10
-38.785
20
100.05
0
VERTEX
8
0
10
-33.585
20
100.05
42
-0.414
0
VERTEX
8
0
10
-33.535
20
100
0
VERTEX
8
0
10
-33.535
20
97.45
0
VERTEX
8
0
10
-28.496
20
97.45
0
VERTEX
8
0
10
-28.496
20
100
42
-0.414
0
VERTEX
8
0
10
-28.446
20
100.05
0
VERTEX
8
0
10
-23.246
20
100.05
42
-0.414
0
VERTEX
8
0
10
-23.196
20
100
0
VERTEX
8
0
10
-23.196
20
97.45
0
VERTEX
8
0
10
-18.158
20
97.45
0
VERTEX
8
0
10
-18.158
20
100
42
-0.414
0
VERTEX
8
0
10
-18.108
20
100.05
0
VERTEX
8
0
10
-12.908
20
100.05
42
-0.414
0
VERTEX
8
0
10
-12.858
20
100
0
VERTEX
8
0
10
-12.858
20
97.45
0
VERTEX
8
0
10
-7.819
20
97.45
0
VERTEX
8
0
10
-7.819
20
100
42
-0.414
0
VERTEX
8
0
10
-7.769
20
100.05
0
VERTEX
8
0
10
-2.569
20
100.05
42
-0.414
0
VERTEX
8
0
10
-2.519
20
100
0
VERTEX
8
0
10
-2.519
20
97.45
0
VERTEX
8
0
10
2.519
20
97.45
0
VERTEX
8
0
10
2.519
20
100
42
-0.414
0
VERTEX
8
0
10
2.569
20
100.05
0
VERTEX
8
0
10
7.769
20
100.05
42
-0.414
0
VERTEX
8
0
10
7.819
20
100
0
VERTEX
8
0
10
7.819
20
97.45
0
VERTEX
8
0
10
12.858
20
97.45
0
VERTEX
8
0
10
12.858
20
100
42
-0.414
0
VERTEX
8
0
10
12.908
20
100.05
0
VERTEX
8
0
10
18.108
20
100.05
42
-0.414
0
VERTEX
8
0
10
18.158
20
100
0
VERTEX
8
0
10
18.158
20
97.45
0
VERTEX
8
0
10
23.196
20
97.45
0
VERTEX
8
0
10
23.196
20
100
42
-0.414
0
VERTEX
8
0
10
23.246
20
100.05
0
VERTEX
8
0
10
28.446
20
100.05
42
-0.414
0
VERTEX
8
0
10
28.496
20
100
0
VERTEX
8
0
10
28.496
20
97.45
0
VERTEX
8
0
10
33.535
20
97.45
0
VERTEX
8
0
10
33.535
20
100
42
-0.414
0
VERTEX
8
0
10
33.585
20
100.05
0
VERTEX
8
0
10
38.785
20
100.05
42
-0.414
0
VERTEX
8
0
10
38.835
20
100
0
VERTEX
8
0
10
38.835
20
97.45
0
VERTEX
8
0
10
43.873
20
97.45
0
VERTEX
8
0
10
43.873
20
100
42
-0.414
0
VERTEX
8
0
10
43.923
20
100.05
0
VERTEX
8
0
10
49.123
20
100.05
42
-0.414
0
VERTEX
8
0
10
49.173
20
100
0
VERTEX
8
0
10
49.173
20
97.45
0
VERTEX
8
0
10
54.211
20
97.45
0
VERTEX
8
0
10
54.211
20
100
42
-0.414
0
VERTEX
8
0
10
54.262
20
100.05
0
VERTEX
8
0
10
59.461
20
100.05
42
-0.414
0
VERTEX
8
0
10
59.512
20
100
0
VERTEX
8
0
10
59.512
20
97.45
0
VERTEX
8
0
10
64.55
20
97.45
0
VERTEX
8
0
10
64.55
20
100
42
-0.414
0
VERTEX
8
0
10
64.6
20
100.05
0
VERTEX
8
0
10
69.8
20
100.05
42
-0.414
0
VERTEX
8
0
10
69.85
20
100
0
VERTEX
8
0
10
69.85
20
97.45
0
VERTEX
8
0
10
75
20
97.45
42
-0.414
0
VERTEX
8
0
10
75.05
20
97.4
0
VERTEX
8
0
10
75.05
20
92.2
42
-0.414
0
VERTEX
8
0
10
75
20
92.15
0
VERTEX
8
0
10
72.45
20
92.15
0
VERTEX
8
0
10
72.45
20
87.05
0
VERTEX
8
0
10
75
20
87.05
42
-0.414
0
VERTEX
8
0
10
75.05
20
87
0
VERTEX
8
0
10
75.05
20
81.956
42
-0.414
0
VERTEX
8
0
10
75
20
81.906
0
VERTEX
8
0
10
72.45
20
81.906
0
VERTEX
8
0
10
72.45
20
76.806
0
VERTEX
8
0
10
75
20
76.806
42
-0.414
0
VERTEX
8
0
10
75.05
20
76.756
0
VERTEX
8
0
10
75.05
20
71.711
42
-0.414
0
VERTEX
8
0
10
75
20
71.661
0
VERTEX
8
0
10
72.45
20
71.661
0
VERTEX
8
0
10
72.45
20
66.561
0
VERTEX
8
0
10
75
20
66.561
42
-0.414
0
VERTEX
8
0
10
75.05
20
66.511
0
VERTEX
8
0
10
75.05
20
61.467
42
-0.414
0
VERTEX
8
0
10
75
20
61.417
0
VERTEX
8
0
10
72.45
20
61.417
0
VERTEX
8
0
10
72.45
20
56.317
0
VERTEX
8
0
10
75
20
56.317
42
-0.414
0
VERTEX
8
0
10
75.05
20
56.267
0
VERTEX
8
0
10
75.05
20
51.222
42
-0.414
0
VERTEX
8
0
10
75
20
51.172
0
VERTEX
8
0
10
72.45
20
51.172
0
VERTEX
8
0
10
72.45
20
46.072
0
VERTEX
8
0
10
75
20
46.072
42
-0.414
0
VERTEX
8
0
10
75.05
20
46.022
0
VERTEX
8
0
10
75.05
20
40.978
42
-0.414
0
VERTEX
8
0
10
75
20
40.928
0
VERTEX
8
0
10
72.45
20
40.928
0
VERTEX
8
0
10
72.45
20
35.828
0
VERTEX
8
0
10
75
20
35.828
42
-0.414
0
VERTEX
8
0
10
75.05
20
35.778
0
VERTEX
8
0
10
75.05
20
30.733
42
-0.414
0
VERTEX
8
0
10
75
20
30.683
0
VERTEX
8
0
10
72.45
20
30.683
0
VERTEX
8
0
10
72.45
20
25.583
0
VERTEX
8
0
10
75
20
25.583
42
-0.414
0
VERTEX
8
0
10
75.05
20
25.533
0
VERTEX
8
0
10
75.05
20
20.489
42
-0.414
0
VERTEX
8
0
10
75
20
20.439
0
VERTEX
8
0
10
72.45
20
20.439
0
VERTEX
8
0
10
72.45
20
15.339
0
VERTEX
8
0
10
75
20
15.339
42
-0.414
0
VERTEX
8
0
10
75.05
20
15.289
0
VERTEX
8
0
10
75.05
20
10.244
42
-0.414
0
VERTEX
8
0
10
75
20
10.194
0
VERTEX
8
0
10
72.45
20
10.194
0
VERTEX
8
0
10
72.45
20
5.094
0
VERTEX
8
0
10
75
20
5.094
42
-0.414
0
VERTEX
8
0
10
75.05
20
5.044
0
VERTEX
8
0
10
75.05
20
0
42
-0.414
0
VERTEX
8
0
10
75
20
-0.05
0
VERTEX
8
0
10
72.45
20
-0.05
0
VERTEX
8
0
10
72.45
20
-5.15
0
VERTEX
8
0
10
75
20
-5.15
42
-0.414
0
VERTEX
8
0
10
75.05
20
-5.2
0
VERTEX
8
0
10
75.05
20
-10.244
42
-0.414
0
VERTEX
8
0
10
75
20
-10.294
0
VERTEX
8
0
10
72.45
20
-10.294
0
VERTEX
8
0
10
72.45
20
-15.394
0
VERTEX
8
0
10
75
20
-15.394
42
-0.414
0
VERTEX
8
0
10
75.05
20
-15.444
0
VERTEX
8
0
10
75.05
20
-20.489
42
-0.414
0
VERTEX
8
0
10
75
20
-20.539
0
VERTEX
8
0
10
72.45
20
-20.539
0
VERTEX
8
0
10
72.45
20
-25.639
0
VERTEX
8
0
10
75
20
-25.639
42
-0.414
0
VERTEX
8
0
10
75.05
20
-25.689
0
VERTEX
8
0
10
75.05
20
-30.733
42
-0.414
0
VERTEX
8
0
10
75
20
-30.783
0
VERTEX
8
0
10
72.45
20
-30.783
0
VERTEX
8
0
10
72.45
20
-35.883
0
VERTEX
8
0
10
75
20
-35.883
42
-0.414
0
VERTEX
8
0
10
75.05
20
-35.933
0
VERTEX
8
0
10
75.05
20
-40.978
42
-0.414
0
VERTEX
8
0
10
75
20
-41.028
0
VERTEX
8
0
10
72.45
20
-41.028
0
VERTEX
8
0
10
72.45
20
-46.128
0
VERTEX
8
0
10
75
20
-46.128
42
-0.414
0
VERTEX
8
0
10
75.05
20
-46.178
0
VERTEX
8
0
10
75.05
20
-51.222
42
-0.414
0
VERTEX
8
0
10
75
20
-51.272
0
VERTEX
8
0
10
72.45
20
-51.272
0
VERTEX
8
0
10
72.45
20
-56.372
0
VERTEX
8
0
10
75
20
-56.372
42
-0.414
0
VERTEX
8
0
10
75.05
20
-56.422
0
VERTEX
8
0
10
75.05
20
-61.467
42
-0.414
0
VERTEX
8
0
10
75
20
-61.517
0
VERTEX
8
0
10
72.45
20
-61.517
0
VERTEX
8
0
10
72.45
20
-66.617
0
VERTEX
8
0
10
75
20
-66.617
42
-0.414
0
VERTEX
8
0
10
75.05
20
-66.667
0
VERTEX
8
0
10
75.05
20
-71.711
42
-0.414
0
VERTEX
8
0
10
75
20
-71.761
0
VERTEX
8
0
10
72.45
20
-71.761
0
VERTEX
8
0
10
72.45
20
-76.861
0
VERTEX
8
0
10
75
20
-76.861
42
-0.414
0
VERTEX
8
0
10
75.05
20
-76.911
0
VERTEX
8
0
10
75.05
20
-81.956
42
-0.414
0
VERTEX
8
0
10
75
20
-82.006
0
VERTEX
8
0
10
72.45
20
-82.006
0
VERTEX
8
0
10
72.45
20
-87.106
0
VERTEX
8
0
10
75
20
-87.106
42
-0.414
0
VERTEX
8
0
10
75.05
20
-87.156
0
VERTEX
8
0
10
75.05
20
-92.2
42
-0.414
0
VERTEX
8
0
10
75
20
-92.25
0
VERTEX
8
0
10
72.45
20
-92.25
0
VERTEX
8
0
10
72.45
20
-97.4
42
-0.414
0
VERTEX
8
0
10
72.4
20
-97.45
0
VERTEX
8
0
10
69.85
20
-97.45
0
VERTEX
8
0
10
69.85
20
-100
42
-0.414
0
VERTEX
8
0
10
69.8
20
-100.05
0
VERTEX
8
0
10
64.6
20
-100.05
42
-0.414
0
VERTEX
8
0
10
64.55
20
-100
0
VERTEX
8
0
10
64.55
20
-97.45
0
VERTEX
8
0
10
59.512
20
-97.45
0
VERTEX
8
0
10
59.512
20
-100
42
-0.414
0
VERTEX
8
0
10
59.461
20
-100.05
0
VERTEX
8
0
10
54.262
20
-100.05
42
-0.414
0
VERTEX
8
0
10
54.211
20
-100
0
VERTEX
8
0
10
54.211
20
-97.45
0
VERTEX
8
0
10
49.173
20
-97.45
0
VERTEX
8
0
10
49.173
20
-100
42
-0.414
0
VERTEX
8
0
10
49.123
20
-100.05
0
VERTEX
8
0
10
43.923
20
-100.05
42
-0.414
0
VERTEX
8
0
10
43.873
20
-100
0
VERTEX
8
0
10
43.873
20
-97.45
0
VERTEX
8
0
10
38.835
20
-97.45
0
VERTEX
8
0
10
38.835
20
-100
42
-0.414
0
VERTEX
8
0
10
38.785
20
-100.05
0
VERTEX
8
0
10
33.585
20
-100.05
42
-0.414
0
VERTEX
8
0
10
33.535
20
-100
0
VERTEX
8
0
10
33.535
20
-97.45
0
VERTEX
8
0
10
28.496
20
-97.45
0
VERTEX
8
0
10
28.496
20
-100
42
-0.414
0
VERTEX
8
0
10
28.446
20
-100.05
0
VERTEX
8
0
10
23.246
20
-100.05
42
-0.414
0
VERTEX
8
0
10
23.196
20
-100
0
VERTEX
8
0
10
23.196
20
-97.45
0
VERTEX
8
0
10
18.158
20
-97.45
0
VERTEX
8
0
10
18.158
20
-100
42
-0.414
0
VERTEX
8
0
10
18.108
20
-100.05
0
VERTEX
8
0
10
12.908
20
-100.05
42
-0.414
0
VERTEX
8
0
10
12.858
20
-100
0
VERTEX
8
0
10
12.858
20
-97.45
0
VERTEX
8
0
10
7.819
20
-97.45
0
VERTEX
8
0
10
7.819
20
-100
42
-0.414
0
VERTEX
8
0
10
7.769
20
-100.05
0
VERTEX
8
0
10
2.569
20
-100.05
42
-0.414
0
VERTEX
8
0
10
2.519
20
-100
0
VERTEX
8
0
10
2.519
20
-97.45
0
VERTEX
8
0
10
-2.519
20
-97.45
0
VERTEX
8
0
10
-2.519
20
-100
42
-0.414
0
SEQEND
8
0
0
POLYLINE
8
0
62
1
66
1
70
1
0
VERTEX
8
0
10
-2.519
20
-100
42
-0.414
0
VERTEX
8
0
10
-2.569
20
-100.05
0
VERTEX
8
0
10
-7.769
20
-100.05
42
-0.414
0
VERTEX
8
0
10
-7.819
20
-100
0
VERTEX
8
0
10
-7.819
20
-97.45
0
VERTEX
8
0
10
-12.858
20
-97.45
0
VERTEX
8
0
10
-12.858
20
-100
42
-0.414
0
VERTEX
8
0
10
-12.908
20
-100.05
0
VERTEX
8
0
10
-18.108
20
-100.05
42
-0.414
0
VERTEX
8
0
10
-18.158
20
-100
0
VERTEX
8
0
10
-18.158
20
-97.45
0
VERTEX
8
0
10
-23.196
20
-97.45
0
VERTEX
8
0
10
-23.196
20
-100
42
-0.414
0
VERTEX
8
0
10
-23.246
20
-100.05
0
VERTEX
8
0
10
-28.446
20
-100.05
42
-0.414
0
VERTEX
8
0
10
-28.496
20
-100
0
VERTEX
8
0
10
-28.496
20
-97.45
0
VERTEX
8
0
10
-33.535
20
-97.45
0
VERTEX
8
0
10
-33.535
20
-100
42
-0.414
0
VERTEX
8
0
10
-33.585
20
-100.05
0
VERTEX
8
0
10
-38.785
20
-100.05
42
-0.414
0
VERTEX
8
0
10
-38.835
20
-100
0
VERTEX
8
0
10
-38.835
20
-97.45
0
VERTEX
8
0
10
-43.873
20
-97.45
0
VERTEX
8
0
10
-43.873
20
-100
42
-0.414
0
VERTEX
8
0
10
-43.923
20
-100.05
0
VERTEX
8
0
10
-49.123
20
-100.05
42
-0.414
0
VERTEX
8
0
10
-49.173
20
-100
0
VERTEX
8
0
10
-49.173
20
-97.45
0
VERTEX
8
0
10
-54.211
20
-97.45
0
VERTEX
8
0
10
-54.211
20
-100
42
-0.414
0
VERTEX
8
0
10
-54.262
20
-100.05
0
VERTEX
8
0
10
-59.461
20
-100.05
42
-0.414
0
VERTEX
8
0
10
-59.512
20
-100
0
VERTEX
8
0
10
-59.512
20
-97.45
0
VERTEX
8
0
10
-64.55
20
-97.45
0
VERTEX
8
0
10
-64.55
20
-100
42
-0.414
0
VERTEX
8
0
10
-64.6
20
-100.05
0
VERTEX
8
0
10
-69.8
20
-100.05
42
-0.414
0
VERTEX
8
0
10
-69.85
20
-100
0
VERTEX
8
0
10
-69.85
20
-97.45
0
VERTEX
8
0
10
-72.4
20
-97.45
42
-0.414
0
VERTEX
8
0
10
-72.45
20
-97.4
0
VERTEX
8
0
10
-72.45
20
-92.25
0
VERTEX
8
0
10
-75
20
-92.25
42
-0.414
0
VERTEX
8
0
10
-75.05
20
-92.2
0
VERTEX
8
0
10
-75.05
20
-87.156
42
-0.414
0
VERTEX
8
0
10
-75
20
-87.106
0
VERTEX
8
0
10
-72.45
20
-87.106
0
VERTEX
8
0
10
-72.45
20
-82.006
0
VERTEX
8
0
10
-75
20
-82.006
42
-0.414
0
VERTEX
8
0
10
-75.05
20
-81.956
0
VERTEX
8
0
10
-75.05
20
-76.911
42
-0.414
0
VERTEX
8
0
10
-75
20
-76.861
0
VERTEX
8
0
10
-72.45
20
-76.861
0
VERTEX
8
0
10
-72.45
20
-71.761
0
VERTEX
8
0
10
-75
20
-71.761
42
-0.414
0
VERTEX
8
0
10
-75.05
20
-71.711
0
VERTEX
8
0
10
-75.05
20
-66.667
42
-0.414
0
VERTEX
8
0
10
-75
20
-66.617
0
VERTEX
8
0
10
-72.45
20
-66.617
0
VERTEX
8
0
10
-72.45
20
-61.517
0
VERTEX
8
0
10
-75
20
-61.517
42
-0.414
0
VERTEX
8
0
10
-75.05
20
-61.467
0
VERTEX
8
0
10
-75.05
20
-56.422
42
-0.414
0
VERTEX
8
0
10
-75
20
-56.372
0
VERTEX
8
0
10
-72.45
20
-56.372
0
VERTEX
8
0
10
-72.45
20
-51.272
0
VERTEX
8
0
10
-75
20
-51.272
42
-0.414
0
VERTEX
8
0
10
-75.05
20
-51.222
0
VERTEX
8
0
10
-75.05
20
-46.178
42
-0.414
0
VERTEX
8
0
10
-75
20
-46.128
0
VERTEX
8
0
10
-72.45
20
-46.128
0
VERTEX
8
0
10
-72.45
20
-41.028
0
VERTEX
8
0
10
-75
20
-41.028
42
-0.414
0
VERTEX
8
0
10
-75.05
20
-40.978
0
VERTEX
8
0
10
-75.05
20
-35.933
42
-0.414
0
VERTEX
8
0
10
-75
20
-35.883
0
VERTEX
8
0
10
-72.45
20
-35.883
0
VERTEX
8
0
10
-72.45
20
-30.783
0
VERTEX
8
0
10
-75
20
-30.783
42
-0.414
0
VERTEX
8
0
10
-75.05
20
-30.733
0
VERTEX
8
0
10
-75.05
20
-25.689
42
-0.414
0
VERTEX
8
0
10
-75
20
-25.639
0
VERTEX
8
0
10
-72.45
20
-25.639
0
VERTEX
8
0
10
-72.45
20
-20.539
0
VERTEX
8
0
10
-75
20
-20.539
42
-0.414
0
VERTEX
8
0
10
-75.05
20
-20.489
0
VERTEX
8
0
10
-75.05
20
-15.444
42
-0.414
0
VERTEX
8
0
10
-75
20
-15.394
0
VERTEX
8
0
10
-72.45
20
-15.394
0
VERTEX
8
0
10
-72.45
20
-10.294
0
VERTEX
8
0
10
-75
20
-10.294
42
-0.414
0
VERTEX
8
0
10
-75.05
20
-10.244
0
VERTEX
8
0
10
-75.05
20
-5.2
42
-0.414
0
VERTEX
8
0
10
-75
20
-5.15
0
VERTEX
8
0
10
-72.45
20
-5.15
0
VERTEX
8
0
10
-72.45
20
-0.05
0
VERTEX
8
0
10
-75
20
-0.05
42
-0.414
0
VERTEX
8
0
10
-75.05
20
0
0
VERTEX
8
0
10
-75.05
20
5.044
42
-0.414
0
VERTEX
8
0
10
-75
20
5.094
0
VERTEX
8
0
10
-72.45
20
5.094
0
VERTEX
8
0
10
-72.45
20
10.194
0
VERTEX
8
0
10
-75
20
10.194
42
-0.414
0
VERTEX
8
0
10
-75.05
20
10.244
0
VERTEX
8
0
10
-75.05
20
15.289
42
-0.414
0
VERTEX
8
0
10
-75
20
15.339
0
VERTEX
8
0
10
-72.45
20
15.339
0
VERTEX
8
0
10
-72.45
20
20.439
0
VERTEX
8
0
10
-75
20
20.439
42
-0.414
0
VERTEX
8
0
10
-75.05
20
20.489
0
VERTEX
8
0
10
-75.05
20
25.533
42
-0.414
0
VERTEX
8
0
10
-75
20
25.583
0
VERTEX
8
0
10
-72.45
20
25.583
0
VERTEX
8
0
10
-72.45
20
30.683
0
VERTEX
8
0
10
-75
20
30.683
42
-0.414
0
VERTEX
8
0
10
-75.05
20
30.733
0
VERTEX
8
0
10
-75.05
20
35.778
42
-0.414
0
VERTEX
8
0
10
-75
20
35.828
0
VERTEX
8
0
10
-72.45
20
35.828
0
VERTEX
8
0
10
-72.45
20
40.928
0
VERTEX
8
0
10
-75
20
40.928
42
-0.414
0
VERTEX
8
0
10
-75.05
20
40.978
0
VERTEX
8
0
10
-75.05
20
46.022
42
-0.414
0
VERTEX
8
0
10
-75
20
46.072
0
VERTEX
8
0
10
-72.45
20
46.072
0
VERTEX
8
0
10
-72.45
20
51.172
0
VERTEX
8
0
10
-75
20
51.172
42
-0.414
0
VERTEX
8
0
10
-75.05
20
51.222
0
VERTEX
8
0
10
-75.05
20
56.267
42
-0.414
0
VERTEX
8
0
10
-75
20
56.317
0
VERTEX
8
0
10
-72.45
20
56.317
0
VERTEX
8
0
10
-72.45
20
61.417
0
VERTEX
8
0
10
-75
20
61.417
42
-0.414
0
VERTEX
8
0
10
-75.05
20
61.467
0
VERTEX
8
0
10
-75.05
20
66.511
42
-0.414
0
VERTEX
8
0
10
-75
20
66.561
0
VERTEX
8
0
10
-72.45
20
66.561
0
VERTEX
8
0
10
-72.45
20
71.661
0
VERTEX
8
0
10
-75
20
71.661
42
-0.414
0
VERTEX
8
0
10
-75.05
20
71.711
0
VERTEX
8
0
10
-75.05
20
76.756
42
-0.414
0
VERTEX
8
0
10
-75
20
76.806
0
VERTEX
8
0
10
-72.45
20
76.806
0
VERTEX
8
0
10
-72.45
20
81.906
0
VERTEX
8
0
10
-75
20
81.906
42
-0.414
0
VERTEX
8
0
10
-75.05
20
81.956
0
VERTEX
8
0
10
-75.05
20
87
42
-0.414
0
VERTEX
8
0
10
-75
20
87.05
0
VERTEX
8
0
10
-72.45
20
87.05
0
VERTEX
8
0
10
-72.45
20
92.15
0
VERTEX
8
0
10
-75
20
92.15
42
-0.414
0
VERTEX
8
0
10
-75.05
20
92.2
0
VERTEX
8
0
10
-75.05
20
97.4
42
-0.414
0
VERTEX
8
0
10
-75
20
97.45
0
VERTEX
8
0
10
-69.85
20
97.45
0
VERTEX
8
0
10
-69.85
20
100
42
-0.414
0
VERTEX
8
0
10
-69.8
20
100.05
0
VERTEX
8
0
10
-64.6
20
100.05
42
-0.414
0
VERTEX
8
0
10
-64.55
20
100
0
VERTEX
8
0
10
-64.55
20
97.45
0
VERTEX
8
0
10
-59.512
20
97.45
0
VERTEX
8
0
10
-59.512
20
100
42
-0.414
0
VERTEX
8
0
10
-59.461
20
100.05
0
VERTEX
8
0
10
-54.262
20
100.05
42
-0.414
0
VERTEX
8
0
10
-54.211
20
100
0
VERTEX
8
0
10
-54.211
20
97.45
0
VERTEX
8
0
10
-49.173
20
97.45
0
VERTEX
8
0
10
-49.173
20
100
42
-0.414
0
VERTEX
8
0
10
-49.123
20
100.05
0
VERTEX
8
0
10
-43.923
20
100.05
42
-0.414
0
VERTEX
8
0
10
-43.873
20
100
0
VERTEX
8
0
10
-43.873
20
97.45
0
VERTEX
8
0
10
-38.835
20
97.45
0
VERTEX
8
0
10
-38.835
20
100
42
-0.414
0
VERTEX
8
0
10
-38.785
20
100.05
0
VERTEX
8
0
10
-33.585
20
100.05
42
-0.414
0
VERTEX
8
0
10
-33.535
20
100
0
VERTEX
8
0
10
-33.535
20
97.45
0
VERTEX
8
0
10
-28.496
20
97.45
0
VERTEX
8
0
10
-28.496
20
100
42
-0.414
0
VERTEX
8
0
10
-28.446
20
100.05
0
VERTEX
8
0
10
-23.246
20
100.05
42
-0.414
0
VERTEX
8
0
10
-23.196
20
100
0
VERTEX
8
0
10
-23.196
20
97.45
0
VERTEX
8
0
10
-18.158
20
97.45
0
VERTEX
8
0
10
-18.158
20
100
42
-0.414
0
VERTEX
8
0
10
-18.108
20
100.05
0
VERTEX
8
0
10
-12.908
20
100.05
42
-0.414
0
VERTEX
8
0
10
-12.858
20
100
0
VERTEX
8
0
10
-12.858
20
97.45
0
VERTEX
8
0
10
-7.819
20
97.45
0
VERTEX
8
0
10
-7.819
20
100
42
-0.414
0
VERTEX
8
0
10
-7.769
20
100.05
0
VERTEX
8
0
10
-2.569
20
100.05
42
-0.414
0
VERTEX
8
0
10
-2.519
20
100
0
VERTEX
8
0
10
-2.519
20
97.45
0
VERTEX
8
0
10
2.519
20
97.45
0
VERTEX
8
0
10
2.519
20
100
42
-0.414
0
VERTEX
8
0
10
2.569
20
100.05
0
VERTEX
8
0
10
7.769
20
100.05
42
-0.414
0
VERTEX
8
0
10
7.819
20
100
0
VERTEX
8
0
10
7.819
20
97.45
0
VERTEX
8
0
10
12.858
20
97.45
0
VERTEX
8
0
10
12.858
20
100
42
-0.414
0
VERTEX
8
0
10
12.908
20
100.05
0
VERTEX
8
0
10
18.108
20
100.05
42
-0.414
0
VERTEX
8
0
10
18.158
20
100
0
VERTEX
8
0
10
18.158
20
97.45
0
VERTEX
8
0
10
23.196
20
97.45
0
VERTEX
8
0
10
23.196
20
100
42
-0.414
0
VERTEX
8
0
10
23.246
20
100.05
0
VERTEX
8
0
10
28.446
20
100.05
42
-0.414
0
VERTEX
8
0
10
28.496
20
100
0
VERTEX
8
0
10
28.496
20
97.45
0
VERTEX
8
0
10
33.535
20
97.45
0
VERTEX
8
0
10
33.535
20
100
42
-0.414
0
VERTEX
8
0
10
33.585
20
100.05
0
VERTEX
8
0
10
38.785
20
100.05
42
-0.414
0
VERTEX
8
0
10
38.835
20
100
0
VERTEX
8
0
10
38.835
20
97.45
0
VERTEX
8
0
10
43.873
20
97.45
0
VERTEX
8
0
10
43.873
20
100
42
-0.414
0
VERTEX
8
0
10
43.923
20
100.05
0
VERTEX
8
0
10
49.123
20
100.05
42
-0.414
0
VERTEX
8
0
10
49.173
20
100
0
VERTEX
8
0
10
49.173
20
97.45
0
VERTEX
8
0
10
54.211
20
97.45
0
VERTEX
8
0
10
54.211
20
100
42
-0.414
0
VERTEX
8
0
10
54.262
20
100.05
0
VERTEX
8
0
10
59.461
20
100.05
42
-0.414
0
VERTEX
8
0
10
59.512
20
100
0
VERTEX
8
0
10
59.512
20
97.45
0
VERTEX
8
0
10
64.55
20
97.45
0
VERTEX
8
0
10
64.55
20
100
42
-0.414
0
VERTEX
8
0
10
64.6
20
100.05
0
VERTEX
8
0
10
69.8
20
100.05
42
-0.414
0
VERTEX
8
0
10
69.85
20
100
0
VERTEX
8
0
10
69.85
20
97.45
0
VERTEX
8
0
10
75
20
97.45
42
-0.414
0
VERTEX
8
0
10
75.05
20
97.4
0
VERTEX
8
0
10
75.05
20
92.2
42
-0.414
0
VERTEX
8
0
10
75
20
92.15
0
VERTEX
8
0
10
72.45
20
92.15
0
VERTEX
8
0
10
72.45
20
87.05
0
VERTEX
8
0
10
75
20
87.05
42
-0.414
0
VERTEX
8
0
10
75.05
20
87
0
VERTEX
8
0
10
75.05
20
81.956
42
-0.414
0
VERTEX
8
0
10
75
20
81.906
0
VERTEX
8
0
10
72.45
20
81.906
0
VERTEX
8
0
10
72.45
20
76.806
0
VERTEX
8
0
10
75
20
76.806
42
-0.414
0
VERTEX
8
0
10
75.05
20
76.756
0
VERTEX
8
0
10
75.05
20
71.711
42
-0.414
0
VERTEX
8
0
10
75
20
71.661
0
VERTEX
8
0
10
72.45
20
71.661
0
VERTEX
8
0
10
72.45
20
66.561
0
VERTEX
8
0
10
75
20
66.561
42
-0.414
0
VERTEX
8
0
10
75.05
20
66.511
0
VERTEX
8
0
10
75.05
20
61.467
42
-0.414
0
VERTEX
8
0
10
75
20
61.417
0
VERTEX
8
0
10
72.45
20
61.417
0
VERTEX
8
0
10
72.45
20
56.317
0
VERTEX
8
0
10
75
20
56.317
42
-0.414
0
VERTEX
8
0
10
75.05
20
56.267
0
VERTEX
8
0
10
75.05
20
51.222
42
-0.414
0
VERTEX
8
0
10
75
20
51.172
0
VERTEX
8
0
10
72.45
20
51.172
0
VERTEX
8
0
10
72.45
20
46.072
0
VERTEX
8
0
10
75
20
46.072
42
-0.414
0
VERTEX
8
0
10
75.05
20
46.022
0
VERTEX
8
0
10
75.05
20
40.978
42
-0.414
0
VERTEX
8
0
10
75
20
40.928
0
VERTEX
8
0
10
72.45
20
40.928
0
VERTEX
8
0
10
72.45
20
35.828
0
VERTEX
8
0
10
75
20
35.828
42
-0.414
0
VERTEX
8
0
10
75.05
20
35.778
0
VERTEX
8
0
10
75.05
20
30.733
42
-0.414
0
VERTEX
8
0
10
75
20
30.683
0
VERTEX
8
0
10
72.45
20
30.683
0
VERTEX
8
0
10
72.45
20
25.583
0
VERTEX
8
0
10
75
20
25.583
42
-0.414
0
VERTEX
8
0
10
75.05
20
25.533
0
VERTEX
8
0
10
75.05
20
20.489
42
-0.414
0
VERTEX
8
0
10
75
20
20.439
0
VERTEX
8
0
10
72.45
20
20.439
0
VERTEX
8
0
10
72.45
20
15.339
0
VERTEX
8
0
10
75
20
15.339
42
-0.414
0
VERTEX
8
0
10
75.05
20
15.289
0
VERTEX
8
0
10
75.05
20
10.244
42
-0.414
0
VERTEX
8
0
10
75
20
10.194
0
VERTEX
8
0
10
72.45
20
10.194
0
VERTEX
8
0
10
72.45
20
5.094
0
VERTEX
8
0
10
75
20
5.094
42
-0.414
0
VERTEX
8
0
10
75.05
20
5.044
0
VERTEX
8
0
10
75.05
20
0
42
-0.414
0
VERTEX
8
0
10
75
20
-0.05
0
VERTEX
8
0
10
72.45
20
-0.05
0
VERTEX
8
0
10
72.45
20
-5.15
0
VERTEX
8
0
10
75
20
-5.15
42
-0.414
0
VERTEX
8
0
10
75.05
20
-5.2
0
VERTEX
8
0
10
75.05
20
-10.244
42
-0.414
0
VERTEX
8
0
10
75
20
-10.294
0
VERTEX
8
0
10
72.45
20
-10.294
0
VERTEX
8
0
10
72.45
20
-15.394
0
VERTEX
8
0
10
75
20
-15.394
42
-0.414
0
VERTEX
8
0
10
75.05
20
-15.444
0
VERTEX
8
0
10
75.05
20
-20.489
42
-0.414
0
VERTEX
8
0
10
75
20
-20.539
0
VERTEX
8
0
10
72.45
20
-20.539
0
VERTEX
8
0
10
72.45
20
-25.639
0
VERTEX
8
0
10
75
20
-25.639
42
-0.414
0
VERTEX
8
0
10
75.05
20
-25.689
0
VERTEX
8
0
10
75.05
20
-30.733
42
-0.414
0
VERTEX
8
0
10
75
20
-30.783
0
VERTEX
8
0
10
72.45
20
-30.783
0
VERTEX
8
0
10
72.45
20
-35.883
0
VERTEX
8
0
10
75
20
-35.883
42
-0.414
0
VERTEX
8
0
10
75.05
20
-35.933
0
VERTEX
8
0
10
75.05
20
-40.978
42
-0.414
0
VERTEX
8
0
10
75
20
-41.028
0
VERTEX
8
0
10
72.45
20
-41.028
0
VERTEX
8
0
10
72.45
20
-46.128
0
VERTEX
8
0
10
75
20
-46.128
42
-0.414
0
VERTEX
8
0
10
75.05
20
-46.178
0
VERTEX
8
0
10
75.05
20
-51.222
42
-0.414
0
VERTEX
8
0
10
75
20
-51.272
0
VERTEX
8
0
10
72.45
20
-51.272
0
VERTEX
8
0
10
72.45
20
-56.372
0
VERTEX
8
0
10
75
20
-56.372
42
-0.414
0
VERTEX
8
0
10
75.05
20
-56.422
0
VERTEX
8
0
10
75.05
20
-61.467
42
-0.414
0
VERTEX
8
0
10
75
20
-61.517
0
VERTEX
8
0
10
72.45
20
-61.517
0
VERTEX
8
0
10
72.45
20
-66.617
0
VERTEX
8
0
10
75
20
-66.617
42
-0.414
0
VERTEX
8
0
10
75.05
20
-66.667
0
VERTEX
8
0
10
75.05
20
-71.711
42
-0.414
0
VERTEX
8
0
10
75
20
-71.761
0
VERTEX
8
0
10
72.45
20
-71.761
0
VERTEX
8
0
10
72.45
20
-76.861
0
VERTEX
8
0
10
75
20
-76.861
42
-0.414
0
VERTEX
8
0
10
75.05
20
-76.911
0
VERTEX
8
0
10
75.05
20
-81.956
42
-0.414
0
VERTEX
8
0
10
75
20
-82.006
0
VERTEX
8
0
10
72.45
20
-82.006
0
VERTEX
8
0
10
72.45
20
-87.106
0
VERTEX
8
0
10
75
20
-87.106
42
-0.414
0
VERTEX
8
0
10
75.05
20
-87.156
0
VERTEX
8
0
10
75.05
20
-92.2
42
-0.414
0
VERTEX
8
0
10
75
20
-92.25
0
VERTEX
8
0
10
72.45
20
-92.25
0
VERTEX
8
0
10
72.45
20
-97.4
42
-0.414
0
VERTEX
8
0
10
72.4
20
-97.45
0
VERTEX
8
0
10
69.85
20
-97.45
0
VERTEX
8
0
10
69.85
20
-100
42
-0.414
0
VERTEX
8
0
10
69.8
20
-100.05
0
VERTEX
8
0
10
64.6
20
-100.05
42
-0.414
0
VERTEX
8
0
10
64.55
20
-100
0
VERTEX
8
0
10
64.55
20
-97.45
0
VERTEX
8
0
10
59.512
20
-97.45
0
VERTEX
8
0
10
59.512
20
-100
42
-0.414
0
VERTEX
8
0
10
59.461
20
-100.05
0
VERTEX
8
0
10
54.262
20
-100.05
42
-0.414
0
VERTEX
8
0
10
54.211
20
-100
0
VERTEX
8
0
10
54.211
20
-97.45
0
VERTEX
8
0
10
49.173
20
-97.45
0
VERTEX
8
0
10
49.173
20
-100
42
-0.414
0
VERTEX
8
0
10
49.123
20
-100.05
0
VERTEX
8
0
10
43.923
20
-100.05
42
-0.414
0
VERTEX
8
0
10
43.873
20
-100
0
VERTEX
8
0
10
43.873
20
-97.45
0
VERTEX
8
0
10
38.835
20
-97.45
0
VERTEX
8
0
10
38.835
20
-100
42
-0.414
0
VERTEX
8
0
10
38.785
20
-100.05
0
VERTEX
8
0
10
33.585
20
-100.05
42
-0.414
0
VERTEX
8
0
10
33.535
20
-100
0
VERTEX
8
0
10
33.535
20
-97.45
0
VERTEX
8
0
10
28.496
20
-97.45
0
VERTEX
8
0
10
28.496
20
-100
42
-0.414
0
VERTEX
8
0
10
28.446
20
-100.05
0
VERTEX
8
0
10
23.246
20
-100.05
42
-0.414
0
VERTEX
8
0
10
23.196
20
-100
0
VERTEX
8
0
10
23.196
20
-97.45
0
VERTEX
8
0
10
18.158
20
-97.45
0
VERTEX
8
0
10
18.158
20
-100
42
-0.414
0
VERTEX
8
0
10
18.108
20
-100.05
0
VERTEX
8
0
10
12.908
20
-100.05
42
-0.414
0
VERTEX
8
0
10
12.858
20
-100
0
VERTEX
8
0
10
12.858
20
-97.45
0
VERTEX
8
0
10
7.819
20
-97.45
0
VERTEX
8
0
10
7.819
20
-100
42
-0.414
0
VERTEX
8
0
10
7.769
20
-100.05
0
VERTEX
8
0
10
2.569
20
-100.05
42
-0.414
0
VERTEX
8
0
10
2.519
20
-100
0
VERTEX
8
0
10
2.519
20
-97.45
0
VERTEX
8
0
10
-2.519
20
-97.45
0
VERTEX
8
0
10
-2.519
20
-100
42
-0.414
0
SEQEND
8
0
0
ENDSEC
0
EOF
