999
Generated by Autodesk CAM - http://cam.autodesk.com
0
SECTION
2
HEADER
9
$ACADVER
1
AC1006
9
$ANGBASE
50
0
9
$ANGDIR
70
0
0
ENDSEC
0
SECTION
2
BLOCKS
0
ENDSEC
9
$EXTMIN
10
-65.25
20
-75.05
30
0
9
$EXTMAX
10
65.05
20
75.05
30
15
0
SECTION
2
ENTITIES
0
POLYLINE
8
0
62
1
66
1
70
1
0
VERTEX
8
0
10
-50.05
20
-23.4
0
VERTEX
8
0
10
-50.05
20
-18.2
42
-0.414
0
VERTEX
8
0
10
-50
20
-18.15
0
VERTEX
8
0
10
-47.45
20
-18.15
0
VERTEX
8
0
10
-47.45
20
-13.05
0
VERTEX
8
0
10
-50
20
-13.05
42
-0.414
0
VERTEX
8
0
10
-50.05
20
-13
0
VERTEX
8
0
10
-50.05
20
-7.8
42
-0.414
0
VERTEX
8
0
10
-50
20
-7.75
0
VERTEX
8
0
10
-47.45
20
-7.75
0
VERTEX
8
0
10
-47.45
20
-2.65
0
VERTEX
8
0
10
-50
20
-2.65
42
-0.414
0
VERTEX
8
0
10
-50.05
20
-2.6
0
VERTEX
8
0
10
-50.05
20
2.6
42
-0.414
0
VERTEX
8
0
10
-50
20
2.65
0
VERTEX
8
0
10
-47.45
20
2.65
0
VERTEX
8
0
10
-47.45
20
7.75
0
VERTEX
8
0
10
-50
20
7.75
42
-0.414
0
VERTEX
8
0
10
-50.05
20
7.8
0
VERTEX
8
0
10
-50.05
20
13
42
-0.414
0
VERTEX
8
0
10
-50
20
13.05
0
VERTEX
8
0
10
-47.45
20
13.05
0
VERTEX
8
0
10
-47.45
20
18.15
0
VERTEX
8
0
10
-50
20
18.15
42
-0.414
0
VERTEX
8
0
10
-50.05
20
18.2
0
VERTEX
8
0
10
-50.05
20
23.4
42
-0.414
0
VERTEX
8
0
10
-50
20
23.45
0
VERTEX
8
0
10
-47.45
20
23.45
0
VERTEX
8
0
10
-47.45
20
28.55
0
VERTEX
8
0
10
-50
20
28.55
42
-0.414
0
VERTEX
8
0
10
-50.05
20
28.6
0
VERTEX
8
0
10
-50.05
20
33.8
42
-0.414
0
VERTEX
8
0
10
-50
20
33.85
0
VERTEX
8
0
10
-47.45
20
33.85
0
VERTEX
8
0
10
-47.45
20
38.95
0
VERTEX
8
0
10
-50
20
38.95
42
-0.414
0
VERTEX
8
0
10
-50.05
20
39
0
VERTEX
8
0
10
-50.05
20
44.2
42
-0.414
0
VERTEX
8
0
10
-50
20
44.25
0
VERTEX
8
0
10
-47.45
20
44.25
0
VERTEX
8
0
10
-47.45
20
49.35
0
VERTEX
8
0
10
-50
20
49.35
42
-0.414
0
VERTEX
8
0
10
-50.05
20
49.4
0
VERTEX
8
0
10
-50.05
20
54.6
42
-0.414
0
VERTEX
8
0
10
-50
20
54.65
0
VERTEX
8
0
10
-47.45
20
54.65
0
VERTEX
8
0
10
-47.45
20
59.75
0
VERTEX
8
0
10
-50
20
59.75
42
-0.414
0
VERTEX
8
0
10
-50.05
20
59.8
0
VERTEX
8
0
10
-50.05
20
65
42
-0.414
0
VERTEX
8
0
10
-50
20
65.05
0
VERTEX
8
0
10
-44.8
20
65.05
42
-0.414
0
VERTEX
8
0
10
-44.75
20
65
0
VERTEX
8
0
10
-44.75
20
62.45
0
VERTEX
8
0
10
-39.65
20
62.45
0
VERTEX
8
0
10
-39.65
20
65
42
-0.414
0
VERTEX
8
0
10
-39.6
20
65.05
0
VERTEX
8
0
10
-34.25
20
65.05
42
-0.414
0
VERTEX
8
0
10
-34.2
20
65
0
VERTEX
8
0
10
-34.2
20
62.45
0
VERTEX
8
0
10
-29.1
20
62.45
0
VERTEX
8
0
10
-29.1
20
65
42
-0.414
0
VERTEX
8
0
10
-29.05
20
65.05
0
VERTEX
8
0
10
-23.7
20
65.05
42
-0.414
0
VERTEX
8
0
10
-23.65
20
65
0
VERTEX
8
0
10
-23.65
20
62.45
0
VERTEX
8
0
10
-18.55
20
62.45
0
VERTEX
8
0
10
-18.55
20
65
42
-0.414
0
VERTEX
8
0
10
-18.5
20
65.05
0
VERTEX
8
0
10
-13.15
20
65.05
42
-0.414
0
VERTEX
8
0
10
-13.1
20
65
0
VERTEX
8
0
10
-13.1
20
62.45
0
VERTEX
8
0
10
-8
20
62.45
0
VERTEX
8
0
10
-8
20
65
42
-0.414
0
VERTEX
8
0
10
-7.95
20
65.05
0
VERTEX
8
0
10
-2.6
20
65.05
42
-0.414
0
VERTEX
8
0
10
-2.55
20
65
0
VERTEX
8
0
10
-2.55
20
62.45
0
VERTEX
8
0
10
2.55
20
62.45
0
VERTEX
8
0
10
2.55
20
65
42
-0.414
0
VERTEX
8
0
10
2.6
20
65.05
0
VERTEX
8
0
10
7.95
20
65.05
42
-0.414
0
VERTEX
8
0
10
8
20
65
0
VERTEX
8
0
10
8
20
62.45
0
VERTEX
8
0
10
13.1
20
62.45
0
VERTEX
8
0
10
13.1
20
65
42
-0.414
0
VERTEX
8
0
10
13.15
20
65.05
0
VERTEX
8
0
10
18.5
20
65.05
42
-0.414
0
VERTEX
8
0
10
18.55
20
65
0
VERTEX
8
0
10
18.55
20
62.45
0
VERTEX
8
0
10
23.65
20
62.45
0
VERTEX
8
0
10
23.65
20
65
42
-0.414
0
VERTEX
8
0
10
23.7
20
65.05
0
VERTEX
8
0
10
29.05
20
65.05
42
-0.414
0
VERTEX
8
0
10
29.1
20
65
0
VERTEX
8
0
10
29.1
20
62.45
0
VERTEX
8
0
10
34.2
20
62.45
0
VERTEX
8
0
10
34.2
20
65
42
-0.414
0
VERTEX
8
0
10
34.25
20
65.05
0
VERTEX
8
0
10
39.6
20
65.05
42
-0.414
0
VERTEX
8
0
10
39.65
20
65
0
VERTEX
8
0
10
39.65
20
62.45
0
VERTEX
8
0
10
44.75
20
62.45
0
VERTEX
8
0
10
44.75
20
65
42
-0.414
0
VERTEX
8
0
10
44.8
20
65.05
0
VERTEX
8
0
10
50
20
65.05
42
-0.414
0
VERTEX
8
0
10
50.05
20
65
0
VERTEX
8
0
10
50.05
20
59.8
42
-0.414
0
VERTEX
8
0
10
50
20
59.75
0
VERTEX
8
0
10
47.45
20
59.75
0
VERTEX
8
0
10
47.45
20
54.65
0
VERTEX
8
0
10
50
20
54.65
42
-0.414
0
VERTEX
8
0
10
50.05
20
54.6
0
VERTEX
8
0
10
50.05
20
49.4
42
-0.414
0
VERTEX
8
0
10
50
20
49.35
0
VERTEX
8
0
10
47.45
20
49.35
0
VERTEX
8
0
10
47.45
20
44.25
0
VERTEX
8
0
10
50
20
44.25
42
-0.414
0
VERTEX
8
0
10
50.05
20
44.2
0
VERTEX
8
0
10
50.05
20
39
42
-0.414
0
VERTEX
8
0
10
50
20
38.95
0
VERTEX
8
0
10
47.45
20
38.95
0
VERTEX
8
0
10
47.45
20
33.85
0
VERTEX
8
0
10
50
20
33.85
42
-0.414
0
VERTEX
8
0
10
50.05
20
33.8
0
VERTEX
8
0
10
50.05
20
28.6
42
-0.414
0
VERTEX
8
0
10
50
20
28.55
0
VERTEX
8
0
10
47.45
20
28.55
0
VERTEX
8
0
10
47.45
20
23.45
0
VERTEX
8
0
10
50
20
23.45
42
-0.414
0
VERTEX
8
0
10
50.05
20
23.4
0
VERTEX
8
0
10
50.05
20
18.2
42
-0.414
0
VERTEX
8
0
10
50
20
18.15
0
VERTEX
8
0
10
47.45
20
18.15
0
VERTEX
8
0
10
47.45
20
13.05
0
VERTEX
8
0
10
50
20
13.05
42
-0.414
0
VERTEX
8
0
10
50.05
20
13
0
VERTEX
8
0
10
50.05
20
7.8
42
-0.414
0
VERTEX
8
0
10
50
20
7.75
0
VERTEX
8
0
10
47.45
20
7.75
0
VERTEX
8
0
10
47.45
20
2.65
0
VERTEX
8
0
10
50
20
2.65
42
-0.414
0
VERTEX
8
0
10
50.05
20
2.6
0
VERTEX
8
0
10
50.05
20
-2.6
42
-0.414
0
VERTEX
8
0
10
50
20
-2.65
0
VERTEX
8
0
10
47.45
20
-2.65
0
VERTEX
8
0
10
47.45
20
-7.75
0
VERTEX
8
0
10
50
20
-7.75
42
-0.414
0
VERTEX
8
0
10
50.05
20
-7.8
0
VERTEX
8
0
10
50.05
20
-13
42
-0.414
0
VERTEX
8
0
10
50
20
-13.05
0
VERTEX
8
0
10
47.45
20
-13.05
0
VERTEX
8
0
10
47.45
20
-18.15
0
VERTEX
8
0
10
50
20
-18.15
42
-0.414
0
VERTEX
8
0
10
50.05
20
-18.2
0
VERTEX
8
0
10
50.05
20
-23.4
42
-0.414
0
VERTEX
8
0
10
50
20
-23.45
0
VERTEX
8
0
10
47.45
20
-23.45
0
VERTEX
8
0
10
47.45
20
-28.55
0
VERTEX
8
0
10
50
20
-28.55
42
-0.414
0
VERTEX
8
0
10
50.05
20
-28.6
0
VERTEX
8
0
10
50.05
20
-33.8
42
-0.414
0
VERTEX
8
0
10
50
20
-33.85
0
VERTEX
8
0
10
47.45
20
-33.85
0
VERTEX
8
0
10
47.45
20
-38.95
0
VERTEX
8
0
10
50
20
-38.95
42
-0.414
0
VERTEX
8
0
10
50.05
20
-39
0
VERTEX
8
0
10
50.05
20
-44.2
42
-0.414
0
VERTEX
8
0
10
50
20
-44.25
0
VERTEX
8
0
10
47.45
20
-44.25
0
VERTEX
8
0
10
47.45
20
-49.35
0
VERTEX
8
0
10
50
20
-49.35
42
-0.414
0
VERTEX
8
0
10
50.05
20
-49.4
0
VERTEX
8
0
10
50.05
20
-54.6
42
-0.414
0
VERTEX
8
0
10
50
20
-54.65
0
VERTEX
8
0
10
47.45
20
-54.65
0
VERTEX
8
0
10
47.45
20
-59.75
0
VERTEX
8
0
10
50
20
-59.75
42
-0.414
0
VERTEX
8
0
10
50.05
20
-59.8
0
VERTEX
8
0
10
50.05
20
-65
42
-0.414
0
VERTEX
8
0
10
50
20
-65.05
0
VERTEX
8
0
10
44.8
20
-65.05
42
-0.414
0
VERTEX
8
0
10
44.75
20
-65
0
VERTEX
8
0
10
44.75
20
-62.45
0
VERTEX
8
0
10
39.65
20
-62.45
0
VERTEX
8
0
10
39.65
20
-65
42
-0.414
0
VERTEX
8
0
10
39.6
20
-65.05
0
VERTEX
8
0
10
34.25
20
-65.05
42
-0.414
0
VERTEX
8
0
10
34.2
20
-65
0
VERTEX
8
0
10
34.2
20
-62.45
0
VERTEX
8
0
10
29.1
20
-62.45
0
VERTEX
8
0
10
29.1
20
-65
42
-0.414
0
VERTEX
8
0
10
29.05
20
-65.05
0
VERTEX
8
0
10
23.7
20
-65.05
42
-0.414
0
VERTEX
8
0
10
23.65
20
-65
0
VERTEX
8
0
10
23.65
20
-62.45
0
VERTEX
8
0
10
18.55
20
-62.45
0
VERTEX
8
0
10
18.55
20
-65
42
-0.414
0
VERTEX
8
0
10
18.5
20
-65.05
0
VERTEX
8
0
10
13.15
20
-65.05
42
-0.414
0
VERTEX
8
0
10
13.1
20
-65
0
VERTEX
8
0
10
13.1
20
-62.45
0
VERTEX
8
0
10
8
20
-62.45
0
VERTEX
8
0
10
8
20
-65
42
-0.414
0
VERTEX
8
0
10
7.95
20
-65.05
0
VERTEX
8
0
10
2.6
20
-65.05
42
-0.414
0
VERTEX
8
0
10
2.55
20
-65
0
VERTEX
8
0
10
2.55
20
-62.45
0
VERTEX
8
0
10
-2.55
20
-62.45
0
VERTEX
8
0
10
-2.55
20
-65
42
-0.414
0
VERTEX
8
0
10
-2.6
20
-65.05
0
VERTEX
8
0
10
-7.95
20
-65.05
42
-0.414
0
VERTEX
8
0
10
-8
20
-65
0
VERTEX
8
0
10
-8
20
-62.45
0
VERTEX
8
0
10
-13.1
20
-62.45
0
VERTEX
8
0
10
-13.1
20
-65
42
-0.414
0
VERTEX
8
0
10
-13.15
20
-65.05
0
VERTEX
8
0
10
-18.5
20
-65.05
42
-0.414
0
VERTEX
8
0
10
-18.55
20
-65
0
VERTEX
8
0
10
-18.55
20
-62.45
0
VERTEX
8
0
10
-23.65
20
-62.45
0
VERTEX
8
0
10
-23.65
20
-65
42
-0.414
0
VERTEX
8
0
10
-23.7
20
-65.05
0
VERTEX
8
0
10
-29.05
20
-65.05
42
-0.414
0
VERTEX
8
0
10
-29.1
20
-65
0
VERTEX
8
0
10
-29.1
20
-62.45
0
VERTEX
8
0
10
-34.2
20
-62.45
0
VERTEX
8
0
10
-34.2
20
-65
42
-0.414
0
VERTEX
8
0
10
-34.25
20
-65.05
0
VERTEX
8
0
10
-39.6
20
-65.05
42
-0.414
0
VERTEX
8
0
10
-39.65
20
-65
0
VERTEX
8
0
10
-39.65
20
-62.45
0
VERTEX
8
0
10
-44.75
20
-62.45
0
VERTEX
8
0
10
-44.75
20
-65
42
-0.414
0
VERTEX
8
0
10
-44.8
20
-65.05
0
VERTEX
8
0
10
-50
20
-65.05
42
-0.414
0
VERTEX
8
0
10
-50.05
20
-65
0
VERTEX
8
0
10
-50.05
20
-59.8
42
-0.414
0
VERTEX
8
0
10
-50
20
-59.75
0
VERTEX
8
0
10
-47.45
20
-59.75
0
VERTEX
8
0
10
-47.45
20
-54.65
0
VERTEX
8
0
10
-50
20
-54.65
42
-0.414
0
VERTEX
8
0
10
-50.05
20
-54.6
0
VERTEX
8
0
10
-50.05
20
-49.4
42
-0.414
0
VERTEX
8
0
10
-50
20
-49.35
0
VERTEX
8
0
10
-47.45
20
-49.35
0
VERTEX
8
0
10
-47.45
20
-44.25
0
VERTEX
8
0
10
-50
20
-44.25
42
-0.414
0
VERTEX
8
0
10
-50.05
20
-44.2
0
VERTEX
8
0
10
-50.05
20
-39
42
-0.414
0
VERTEX
8
0
10
-50
20
-38.95
0
VERTEX
8
0
10
-47.45
20
-38.95
0
VERTEX
8
0
10
-47.45
20
-33.85
0
VERTEX
8
0
10
-50
20
-33.85
42
-0.414
0
VERTEX
8
0
10
-50.05
20
-33.8
0
VERTEX
8
0
10
-50.05
20
-28.6
42
-0.414
0
VERTEX
8
0
10
-50
20
-28.55
0
VERTEX
8
0
10
-47.45
20
-28.55
0
VERTEX
8
0
10
-47.45
20
-23.45
0
VERTEX
8
0
10
-50
20
-23.45
42
-0.414
0
VERTEX
8
0
10
-50.05
20
-23.4
0
SEQEND
8
0
0
POLYLINE
8
1
62
1
66
1
70
1
0
VERTEX
8
1
10
-50.05
20
-23.4
0
VERTEX
8
1
10
-50.05
20
-18.2
42
-0.414
0
VERTEX
8
1
10
-50
20
-18.15
0
VERTEX
8
1
10
-47.45
20
-18.15
0
VERTEX
8
1
10
-47.45
20
-13.05
0
VERTEX
8
1
10
-50
20
-13.05
42
-0.414
0
VERTEX
8
1
10
-50.05
20
-13
0
VERTEX
8
1
10
-50.05
20
-7.8
42
-0.414
0
VERTEX
8
1
10
-50
20
-7.75
0
VERTEX
8
1
10
-47.45
20
-7.75
0
VERTEX
8
1
10
-47.45
20
-2.65
0
VERTEX
8
1
10
-50
20
-2.65
42
-0.414
0
VERTEX
8
1
10
-50.05
20
-2.6
0
VERTEX
8
1
10
-50.05
20
2.6
42
-0.414
0
VERTEX
8
1
10
-50
20
2.65
0
VERTEX
8
1
10
-47.45
20
2.65
0
VERTEX
8
1
10
-47.45
20
7.75
0
VERTEX
8
1
10
-50
20
7.75
42
-0.414
0
VERTEX
8
1
10
-50.05
20
7.8
0
VERTEX
8
1
10
-50.05
20
13
42
-0.414
0
VERTEX
8
1
10
-50
20
13.05
0
VERTEX
8
1
10
-47.45
20
13.05
0
VERTEX
8
1
10
-47.45
20
18.15
0
VERTEX
8
1
10
-50
20
18.15
42
-0.414
0
VERTEX
8
1
10
-50.05
20
18.2
0
VERTEX
8
1
10
-50.05
20
23.4
42
-0.414
0
VERTEX
8
1
10
-50
20
23.45
0
VERTEX
8
1
10
-47.45
20
23.45
0
VERTEX
8
1
10
-47.45
20
28.55
0
VERTEX
8
1
10
-50
20
28.55
42
-0.414
0
VERTEX
8
1
10
-50.05
20
28.6
0
VERTEX
8
1
10
-50.05
20
33.8
42
-0.414
0
VERTEX
8
1
10
-50
20
33.85
0
VERTEX
8
1
10
-47.45
20
33.85
0
VERTEX
8
1
10
-47.45
20
38.95
0
VERTEX
8
1
10
-50
20
38.95
42
-0.414
0
VERTEX
8
1
10
-50.05
20
39
0
VERTEX
8
1
10
-50.05
20
44.2
42
-0.414
0
VERTEX
8
1
10
-50
20
44.25
0
VERTEX
8
1
10
-47.45
20
44.25
0
VERTEX
8
1
10
-47.45
20
49.35
0
VERTEX
8
1
10
-50
20
49.35
42
-0.414
0
VERTEX
8
1
10
-50.05
20
49.4
0
VERTEX
8
1
10
-50.05
20
54.6
42
-0.414
0
VERTEX
8
1
10
-50
20
54.65
0
VERTEX
8
1
10
-47.45
20
54.65
0
VERTEX
8
1
10
-47.45
20
59.75
0
VERTEX
8
1
10
-50
20
59.75
42
-0.414
0
VERTEX
8
1
10
-50.05
20
59.8
0
VERTEX
8
1
10
-50.05
20
65
42
-0.414
0
VERTEX
8
1
10
-50
20
65.05
0
VERTEX
8
1
10
-44.8
20
65.05
42
-0.414
0
VERTEX
8
1
10
-44.75
20
65
0
VERTEX
8
1
10
-44.75
20
62.45
0
VERTEX
8
1
10
-39.65
20
62.45
0
VERTEX
8
1
10
-39.65
20
65
42
-0.414
0
VERTEX
8
1
10
-39.6
20
65.05
0
VERTEX
8
1
10
-34.25
20
65.05
42
-0.414
0
VERTEX
8
1
10
-34.2
20
65
0
VERTEX
8
1
10
-34.2
20
62.45
0
VERTEX
8
1
10
-29.1
20
62.45
0
VERTEX
8
1
10
-29.1
20
65
42
-0.414
0
VERTEX
8
1
10
-29.05
20
65.05
0
VERTEX
8
1
10
-23.7
20
65.05
42
-0.414
0
VERTEX
8
1
10
-23.65
20
65
0
VERTEX
8
1
10
-23.65
20
62.45
0
VERTEX
8
1
10
-18.55
20
62.45
0
VERTEX
8
1
10
-18.55
20
65
42
-0.414
0
VERTEX
8
1
10
-18.5
20
65.05
0
VERTEX
8
1
10
-13.15
20
65.05
42
-0.414
0
VERTEX
8
1
10
-13.1
20
65
0
VERTEX
8
1
10
-13.1
20
62.45
0
VERTEX
8
1
10
-8
20
62.45
0
VERTEX
8
1
10
-8
20
65
42
-0.414
0
VERTEX
8
1
10
-7.95
20
65.05
0
VERTEX
8
1
10
-2.6
20
65.05
42
-0.414
0
VERTEX
8
1
10
-2.55
20
65
0
VERTEX
8
1
10
-2.55
20
62.45
0
VERTEX
8
1
10
2.55
20
62.45
0
VERTEX
8
1
10
2.55
20
65
42
-0.414
0
VERTEX
8
1
10
2.6
20
65.05
0
VERTEX
8
1
10
7.95
20
65.05
42
-0.414
0
VERTEX
8
1
10
8
20
65
0
VERTEX
8
1
10
8
20
62.45
0
VERTEX
8
1
10
13.1
20
62.45
0
VERTEX
8
1
10
13.1
20
65
42
-0.414
0
VERTEX
8
1
10
13.15
20
65.05
0
VERTEX
8
1
10
18.5
20
65.05
42
-0.414
0
VERTEX
8
1
10
18.55
20
65
0
VERTEX
8
1
10
18.55
20
62.45
0
VERTEX
8
1
10
23.65
20
62.45
0
VERTEX
8
1
10
23.65
20
65
42
-0.414
0
VERTEX
8
1
10
23.7
20
65.05
0
VERTEX
8
1
10
29.05
20
65.05
42
-0.414
0
VERTEX
8
1
10
29.1
20
65
0
VERTEX
8
1
10
29.1
20
62.45
0
VERTEX
8
1
10
34.2
20
62.45
0
VERTEX
8
1
10
34.2
20
65
42
-0.414
0
VERTEX
8
1
10
34.25
20
65.05
0
VERTEX
8
1
10
39.6
20
65.05
42
-0.414
0
VERTEX
8
1
10
39.65
20
65
0
VERTEX
8
1
10
39.65
20
62.45
0
VERTEX
8
1
10
44.75
20
62.45
0
VERTEX
8
1
10
44.75
20
65
42
-0.414
0
VERTEX
8
1
10
44.8
20
65.05
0
VERTEX
8
1
10
50
20
65.05
42
-0.414
0
VERTEX
8
1
10
50.05
20
65
0
VERTEX
8
1
10
50.05
20
59.8
42
-0.414
0
VERTEX
8
1
10
50
20
59.75
0
VERTEX
8
1
10
47.45
20
59.75
0
VERTEX
8
1
10
47.45
20
54.65
0
VERTEX
8
1
10
50
20
54.65
42
-0.414
0
VERTEX
8
1
10
50.05
20
54.6
0
VERTEX
8
1
10
50.05
20
49.4
42
-0.414
0
VERTEX
8
1
10
50
20
49.35
0
VERTEX
8
1
10
47.45
20
49.35
0
VERTEX
8
1
10
47.45
20
44.25
0
VERTEX
8
1
10
50
20
44.25
42
-0.414
0
VERTEX
8
1
10
50.05
20
44.2
0
VERTEX
8
1
10
50.05
20
39
42
-0.414
0
VERTEX
8
1
10
50
20
38.95
0
VERTEX
8
1
10
47.45
20
38.95
0
VERTEX
8
1
10
47.45
20
33.85
0
VERTEX
8
1
10
50
20
33.85
42
-0.414
0
VERTEX
8
1
10
50.05
20
33.8
0
VERTEX
8
1
10
50.05
20
28.6
42
-0.414
0
VERTEX
8
1
10
50
20
28.55
0
VERTEX
8
1
10
47.45
20
28.55
0
VERTEX
8
1
10
47.45
20
23.45
0
VERTEX
8
1
10
50
20
23.45
42
-0.414
0
VERTEX
8
1
10
50.05
20
23.4
0
VERTEX
8
1
10
50.05
20
18.2
42
-0.414
0
VERTEX
8
1
10
50
20
18.15
0
VERTEX
8
1
10
47.45
20
18.15
0
VERTEX
8
1
10
47.45
20
13.05
0
VERTEX
8
1
10
50
20
13.05
42
-0.414
0
VERTEX
8
1
10
50.05
20
13
0
VERTEX
8
1
10
50.05
20
7.8
42
-0.414
0
VERTEX
8
1
10
50
20
7.75
0
VERTEX
8
1
10
47.45
20
7.75
0
VERTEX
8
1
10
47.45
20
2.65
0
VERTEX
8
1
10
50
20
2.65
42
-0.414
0
VERTEX
8
1
10
50.05
20
2.6
0
VERTEX
8
1
10
50.05
20
-2.6
42
-0.414
0
VERTEX
8
1
10
50
20
-2.65
0
VERTEX
8
1
10
47.45
20
-2.65
0
VERTEX
8
1
10
47.45
20
-7.75
0
VERTEX
8
1
10
50
20
-7.75
42
-0.414
0
VERTEX
8
1
10
50.05
20
-7.8
0
VERTEX
8
1
10
50.05
20
-13
42
-0.414
0
VERTEX
8
1
10
50
20
-13.05
0
VERTEX
8
1
10
47.45
20
-13.05
0
VERTEX
8
1
10
47.45
20
-18.15
0
VERTEX
8
1
10
50
20
-18.15
42
-0.414
0
VERTEX
8
1
10
50.05
20
-18.2
0
VERTEX
8
1
10
50.05
20
-23.4
42
-0.414
0
VERTEX
8
1
10
50
20
-23.45
0
VERTEX
8
1
10
47.45
20
-23.45
0
VERTEX
8
1
10
47.45
20
-28.55
0
VERTEX
8
1
10
50
20
-28.55
42
-0.414
0
VERTEX
8
1
10
50.05
20
-28.6
0
VERTEX
8
1
10
50.05
20
-33.8
42
-0.414
0
VERTEX
8
1
10
50
20
-33.85
0
VERTEX
8
1
10
47.45
20
-33.85
0
VERTEX
8
1
10
47.45
20
-38.95
0
VERTEX
8
1
10
50
20
-38.95
42
-0.414
0
VERTEX
8
1
10
50.05
20
-39
0
VERTEX
8
1
10
50.05
20
-44.2
42
-0.414
0
VERTEX
8
1
10
50
20
-44.25
0
VERTEX
8
1
10
47.45
20
-44.25
0
VERTEX
8
1
10
47.45
20
-49.35
0
VERTEX
8
1
10
50
20
-49.35
42
-0.414
0
VERTEX
8
1
10
50.05
20
-49.4
0
VERTEX
8
1
10
50.05
20
-54.6
42
-0.414
0
VERTEX
8
1
10
50
20
-54.65
0
VERTEX
8
1
10
47.45
20
-54.65
0
VERTEX
8
1
10
47.45
20
-59.75
0
VERTEX
8
1
10
50
20
-59.75
42
-0.414
0
VERTEX
8
1
10
50.05
20
-59.8
0
VERTEX
8
1
10
50.05
20
-65
42
-0.414
0
VERTEX
8
1
10
50
20
-65.05
0
VERTEX
8
1
10
44.8
20
-65.05
42
-0.414
0
VERTEX
8
1
10
44.75
20
-65
0
VERTEX
8
1
10
44.75
20
-62.45
0
VERTEX
8
1
10
39.65
20
-62.45
0
VERTEX
8
1
10
39.65
20
-65
42
-0.414
0
VERTEX
8
1
10
39.6
20
-65.05
0
VERTEX
8
1
10
34.25
20
-65.05
42
-0.414
0
VERTEX
8
1
10
34.2
20
-65
0
VERTEX
8
1
10
34.2
20
-62.45
0
VERTEX
8
1
10
29.1
20
-62.45
0
VERTEX
8
1
10
29.1
20
-65
42
-0.414
0
VERTEX
8
1
10
29.05
20
-65.05
0
VERTEX
8
1
10
23.7
20
-65.05
42
-0.414
0
VERTEX
8
1
10
23.65
20
-65
0
VERTEX
8
1
10
23.65
20
-62.45
0
VERTEX
8
1
10
18.55
20
-62.45
0
VERTEX
8
1
10
18.55
20
-65
42
-0.414
0
VERTEX
8
1
10
18.5
20
-65.05
0
VERTEX
8
1
10
13.15
20
-65.05
42
-0.414
0
VERTEX
8
1
10
13.1
20
-65
0
VERTEX
8
1
10
13.1
20
-62.45
0
VERTEX
8
1
10
8
20
-62.45
0
VERTEX
8
1
10
8
20
-65
42
-0.414
0
VERTEX
8
1
10
7.95
20
-65.05
0
VERTEX
8
1
10
2.6
20
-65.05
42
-0.414
0
VERTEX
8
1
10
2.55
20
-65
0
VERTEX
8
1
10
2.55
20
-62.45
0
VERTEX
8
1
10
-2.55
20
-62.45
0
VERTEX
8
1
10
-2.55
20
-65
42
-0.414
0
VERTEX
8
1
10
-2.6
20
-65.05
0
VERTEX
8
1
10
-7.95
20
-65.05
42
-0.414
0
VERTEX
8
1
10
-8
20
-65
0
VERTEX
8
1
10
-8
20
-62.45
0
VERTEX
8
1
10
-13.1
20
-62.45
0
VERTEX
8
1
10
-13.1
20
-65
42
-0.414
0
VERTEX
8
1
10
-13.15
20
-65.05
0
VERTEX
8
1
10
-18.5
20
-65.05
42
-0.414
0
VERTEX
8
1
10
-18.55
20
-65
0
VERTEX
8
1
10
-18.55
20
-62.45
0
VERTEX
8
1
10
-23.65
20
-62.45
0
VERTEX
8
1
10
-23.65
20
-65
42
-0.414
0
VERTEX
8
1
10
-23.7
20
-65.05
0
VERTEX
8
1
10
-29.05
20
-65.05
42
-0.414
0
VERTEX
8
1
10
-29.1
20
-65
0
VERTEX
8
1
10
-29.1
20
-62.45
0
VERTEX
8
1
10
-34.2
20
-62.45
0
VERTEX
8
1
10
-34.2
20
-65
42
-0.414
0
VERTEX
8
1
10
-34.25
20
-65.05
0
VERTEX
8
1
10
-39.6
20
-65.05
42
-0.414
0
VERTEX
8
1
10
-39.65
20
-65
0
VERTEX
8
1
10
-39.65
20
-62.45
0
VERTEX
8
1
10
-44.75
20
-62.45
0
VERTEX
8
1
10
-44.75
20
-65
42
-0.414
0
VERTEX
8
1
10
-44.8
20
-65.05
0
VERTEX
8
1
10
-50
20
-65.05
42
-0.414
0
VERTEX
8
1
10
-50.05
20
-65
0
VERTEX
8
1
10
-50.05
20
-59.8
42
-0.414
0
VERTEX
8
1
10
-50
20
-59.75
0
VERTEX
8
1
10
-47.45
20
-59.75
0
VERTEX
8
1
10
-47.45
20
-54.65
0
VERTEX
8
1
10
-50
20
-54.65
42
-0.414
0
VERTEX
8
1
10
-50.05
20
-54.6
0
VERTEX
8
1
10
-50.05
20
-49.4
42
-0.414
0
VERTEX
8
1
10
-50
20
-49.35
0
VERTEX
8
1
10
-47.45
20
-49.35
0
VERTEX
8
1
10
-47.45
20
-44.25
0
VERTEX
8
1
10
-50
20
-44.25
42
-0.414
0
VERTEX
8
1
10
-50.05
20
-44.2
0
VERTEX
8
1
10
-50.05
20
-39
42
-0.414
0
VERTEX
8
1
10
-50
20
-38.95
0
VERTEX
8
1
10
-47.45
20
-38.95
0
VERTEX
8
1
10
-47.45
20
-33.85
0
VERTEX
8
1
10
-50
20
-33.85
42
-0.414
0
VERTEX
8
1
10
-50.05
20
-33.8
0
VERTEX
8
1
10
-50.05
20
-28.6
42
-0.414
0
VERTEX
8
1
10
-50
20
-28.55
0
VERTEX
8
1
10
-47.45
20
-28.55
0
VERTEX
8
1
10
-47.45
20
-23.45
0
VERTEX
8
1
10
-50
20
-23.45
42
-0.414
0
VERTEX
8
1
10
-50.05
20
-23.4
0
SEQEND
8
1
0
POLYLINE
8
2
62
1
66
1
70
1
0
VERTEX
8
2
10
50.05
20
0.031
0
VERTEX
8
2
10
50.05
20
-5.169
42
-0.414
0
VERTEX
8
2
10
50
20
-5.219
0
VERTEX
8
2
10
47.45
20
-5.219
0
VERTEX
8
2
10
47.45
20
-10.258
0
VERTEX
8
2
10
50
20
-10.258
42
-0.414
0
VERTEX
8
2
10
50.05
20
-10.308
0
VERTEX
8
2
10
50.05
20
-15.508
42
-0.414
0
VERTEX
8
2
10
50
20
-15.558
0
VERTEX
8
2
10
47.45
20
-15.558
0
VERTEX
8
2
10
47.45
20
-20.596
0
VERTEX
8
2
10
50
20
-20.596
42
-0.414
0
VERTEX
8
2
10
50.05
20
-20.646
0
VERTEX
8
2
10
50.05
20
-25.846
42
-0.414
0
VERTEX
8
2
10
50
20
-25.896
0
VERTEX
8
2
10
47.45
20
-25.896
0
VERTEX
8
2
10
47.45
20
-30.935
0
VERTEX
8
2
10
50
20
-30.935
42
-0.414
0
VERTEX
8
2
10
50.05
20
-30.985
0
VERTEX
8
2
10
50.05
20
-36.185
42
-0.414
0
VERTEX
8
2
10
50
20
-36.235
0
VERTEX
8
2
10
47.45
20
-36.235
0
VERTEX
8
2
10
47.45
20
-41.273
0
VERTEX
8
2
10
50
20
-41.273
42
-0.414
0
VERTEX
8
2
10
50.05
20
-41.323
0
VERTEX
8
2
10
50.05
20
-46.523
42
-0.414
0
VERTEX
8
2
10
50
20
-46.573
0
VERTEX
8
2
10
47.45
20
-46.573
0
VERTEX
8
2
10
47.45
20
-51.611
0
VERTEX
8
2
10
50
20
-51.611
42
-0.414
0
VERTEX
8
2
10
50.05
20
-51.661
0
VERTEX
8
2
10
50.05
20
-56.861
42
-0.414
0
VERTEX
8
2
10
50
20
-56.911
0
VERTEX
8
2
10
47.45
20
-56.911
0
VERTEX
8
2
10
47.45
20
-61.95
0
VERTEX
8
2
10
50
20
-61.95
42
-0.414
0
VERTEX
8
2
10
50.05
20
-62
0
VERTEX
8
2
10
50.05
20
-67.2
42
-0.414
0
VERTEX
8
2
10
50
20
-67.25
0
VERTEX
8
2
10
47.45
20
-67.25
0
VERTEX
8
2
10
47.45
20
-72.4
42
-0.414
0
VERTEX
8
2
10
47.4
20
-72.45
0
VERTEX
8
2
10
44.85
20
-72.45
0
VERTEX
8
2
10
44.85
20
-75
42
-0.414
0
VERTEX
8
2
10
44.8
20
-75.05
0
VERTEX
8
2
10
39.6
20
-75.05
42
-0.414
0
VERTEX
8
2
10
39.55
20
-75
0
VERTEX
8
2
10
39.55
20
-72.45
0
VERTEX
8
2
10
34.3
20
-72.45
0
VERTEX
8
2
10
34.3
20
-75
42
-0.414
0
VERTEX
8
2
10
34.25
20
-75.05
0
VERTEX
8
2
10
29.05
20
-75.05
42
-0.414
0
VERTEX
8
2
10
29
20
-75
0
VERTEX
8
2
10
29
20
-72.45
0
VERTEX
8
2
10
23.75
20
-72.45
0
VERTEX
8
2
10
23.75
20
-75
42
-0.414
0
VERTEX
8
2
10
23.7
20
-75.05
0
VERTEX
8
2
10
18.5
20
-75.05
42
-0.414
0
VERTEX
8
2
10
18.45
20
-75
0
VERTEX
8
2
10
18.45
20
-72.45
0
VERTEX
8
2
10
13.2
20
-72.45
0
VERTEX
8
2
10
13.2
20
-75
42
-0.414
0
VERTEX
8
2
10
13.15
20
-75.05
0
VERTEX
8
2
10
7.95
20
-75.05
42
-0.414
0
VERTEX
8
2
10
7.9
20
-75
0
VERTEX
8
2
10
7.9
20
-72.45
0
VERTEX
8
2
10
2.65
20
-72.45
0
VERTEX
8
2
10
2.65
20
-75
42
-0.414
0
VERTEX
8
2
10
2.6
20
-75.05
0
VERTEX
8
2
10
-2.6
20
-75.05
42
-0.414
0
VERTEX
8
2
10
-2.65
20
-75
0
VERTEX
8
2
10
-2.65
20
-72.45
0
VERTEX
8
2
10
-7.9
20
-72.45
0
VERTEX
8
2
10
-7.9
20
-75
42
-0.414
0
VERTEX
8
2
10
-7.95
20
-75.05
0
VERTEX
8
2
10
-13.15
20
-75.05
42
-0.414
0
VERTEX
8
2
10
-13.2
20
-75
0
VERTEX
8
2
10
-13.2
20
-72.45
0
VERTEX
8
2
10
-18.45
20
-72.45
0
VERTEX
8
2
10
-18.45
20
-75
42
-0.414
0
VERTEX
8
2
10
-18.5
20
-75.05
0
VERTEX
8
2
10
-23.7
20
-75.05
42
-0.414
0
VERTEX
8
2
10
-23.75
20
-75
0
VERTEX
8
2
10
-23.75
20
-72.45
0
VERTEX
8
2
10
-29
20
-72.45
0
VERTEX
8
2
10
-29
20
-75
42
-0.414
0
VERTEX
8
2
10
-29.05
20
-75.05
0
VERTEX
8
2
10
-34.25
20
-75.05
42
-0.414
0
VERTEX
8
2
10
-34.3
20
-75
0
VERTEX
8
2
10
-34.3
20
-72.45
0
VERTEX
8
2
10
-39.55
20
-72.45
0
VERTEX
8
2
10
-39.55
20
-75
42
-0.414
0
VERTEX
8
2
10
-39.6
20
-75.05
0
VERTEX
8
2
10
-44.8
20
-75.05
42
-0.414
0
VERTEX
8
2
10
-44.85
20
-75
0
VERTEX
8
2
10
-44.85
20
-72.45
0
VERTEX
8
2
10
-47.4
20
-72.45
42
-0.414
0
VERTEX
8
2
10
-47.45
20
-72.4
0
VERTEX
8
2
10
-47.45
20
-67.25
0
VERTEX
8
2
10
-50
20
-67.25
42
-0.414
0
VERTEX
8
2
10
-50.05
20
-67.2
0
VERTEX
8
2
10
-50.05
20
-62
42
-0.414
0
VERTEX
8
2
10
-50
20
-61.95
0
VERTEX
8
2
10
-47.45
20
-61.95
0
VERTEX
8
2
10
-47.45
20
-56.911
0
VERTEX
8
2
10
-50
20
-56.911
42
-0.414
0
VERTEX
8
2
10
-50.05
20
-56.861
0
VERTEX
8
2
10
-50.05
20
-51.661
42
-0.414
0
VERTEX
8
2
10
-50
20
-51.611
0
VERTEX
8
2
10
-47.45
20
-51.611
0
VERTEX
8
2
10
-47.45
20
-46.573
0
VERTEX
8
2
10
-50
20
-46.573
42
-0.414
0
VERTEX
8
2
10
-50.05
20
-46.523
0
VERTEX
8
2
10
-50.05
20
-41.323
42
-0.414
0
VERTEX
8
2
10
-50
20
-41.273
0
VERTEX
8
2
10
-47.45
20
-41.273
0
VERTEX
8
2
10
-47.45
20
-36.235
0
VERTEX
8
2
10
-50
20
-36.235
42
-0.414
0
VERTEX
8
2
10
-50.05
20
-36.185
0
VERTEX
8
2
10
-50.05
20
-30.985
42
-0.414
0
VERTEX
8
2
10
-50
20
-30.935
0
VERTEX
8
2
10
-47.45
20
-30.935
0
VERTEX
8
2
10
-47.45
20
-25.896
0
VERTEX
8
2
10
-50
20
-25.896
42
-0.414
0
VERTEX
8
2
10
-50.05
20
-25.846
0
VERTEX
8
2
10
-50.05
20
-20.646
42
-0.414
0
VERTEX
8
2
10
-50
20
-20.596
0
VERTEX
8
2
10
-47.45
20
-20.596
0
VERTEX
8
2
10
-47.45
20
-15.558
0
VERTEX
8
2
10
-50
20
-15.558
42
-0.414
0
VERTEX
8
2
10
-50.05
20
-15.508
0
VERTEX
8
2
10
-50.05
20
-10.308
42
-0.414
0
VERTEX
8
2
10
-50
20
-10.258
0
VERTEX
8
2
10
-47.45
20
-10.258
0
VERTEX
8
2
10
-47.45
20
-5.219
0
VERTEX
8
2
10
-50
20
-5.219
42
-0.414
0
VERTEX
8
2
10
-50.05
20
-5.169
0
VERTEX
8
2
10
-50.05
20
0.031
42
-0.414
0
VERTEX
8
2
10
-50
20
0.081
0
VERTEX
8
2
10
-47.45
20
0.081
0
VERTEX
8
2
10
-47.45
20
5.119
0
VERTEX
8
2
10
-50
20
5.119
42
-0.414
0
VERTEX
8
2
10
-50.05
20
5.169
0
VERTEX
8
2
10
-50.05
20
10.369
42
-0.414
0
VERTEX
8
2
10
-50
20
10.419
0
VERTEX
8
2
10
-47.45
20
10.419
0
VERTEX
8
2
10
-47.45
20
15.458
0
VERTEX
8
2
10
-50
20
15.458
42
-0.414
0
VERTEX
8
2
10
-50.05
20
15.508
0
VERTEX
8
2
10
-50.05
20
20.708
42
-0.414
0
VERTEX
8
2
10
-50
20
20.758
0
VERTEX
8
2
10
-47.45
20
20.758
0
VERTEX
8
2
10
-47.45
20
25.796
0
VERTEX
8
2
10
-50
20
25.796
42
-0.414
0
VERTEX
8
2
10
-50.05
20
25.846
0
VERTEX
8
2
10
-50.05
20
31.046
42
-0.414
0
VERTEX
8
2
10
-50
20
31.096
0
VERTEX
8
2
10
-47.45
20
31.096
0
VERTEX
8
2
10
-47.45
20
36.135
0
VERTEX
8
2
10
-50
20
36.135
42
-0.414
0
VERTEX
8
2
10
-50.05
20
36.185
0
VERTEX
8
2
10
-50.05
20
41.385
42
-0.414
0
VERTEX
8
2
10
-50
20
41.435
0
VERTEX
8
2
10
-47.45
20
41.435
0
VERTEX
8
2
10
-47.45
20
46.473
0
VERTEX
8
2
10
-50
20
46.473
42
-0.414
0
VERTEX
8
2
10
-50.05
20
46.523
0
VERTEX
8
2
10
-50.05
20
51.723
42
-0.414
0
VERTEX
8
2
10
-50
20
51.773
0
VERTEX
8
2
10
-47.45
20
51.773
0
VERTEX
8
2
10
-47.45
20
56.812
0
VERTEX
8
2
10
-50
20
56.812
42
-0.414
0
VERTEX
8
2
10
-50.05
20
56.861
0
VERTEX
8
2
10
-50.05
20
62.062
42
-0.414
0
VERTEX
8
2
10
-50
20
62.111
0
VERTEX
8
2
10
-47.45
20
62.111
0
VERTEX
8
2
10
-47.45
20
67.15
0
VERTEX
8
2
10
-50
20
67.15
42
-0.414
0
VERTEX
8
2
10
-50.05
20
67.2
0
VERTEX
8
2
10
-50.05
20
72.4
42
-0.414
0
VERTEX
8
2
10
-50
20
72.45
0
VERTEX
8
2
10
-44.85
20
72.45
0
VERTEX
8
2
10
-44.85
20
75
42
-0.414
0
VERTEX
8
2
10
-44.8
20
75.05
0
VERTEX
8
2
10
-39.6
20
75.05
42
-0.414
0
VERTEX
8
2
10
-39.55
20
75
0
VERTEX
8
2
10
-39.55
20
72.45
0
VERTEX
8
2
10
-34.3
20
72.45
0
VERTEX
8
2
10
-34.3
20
75
42
-0.414
0
VERTEX
8
2
10
-34.25
20
75.05
0
VERTEX
8
2
10
-29.05
20
75.05
42
-0.414
0
VERTEX
8
2
10
-29
20
75
0
VERTEX
8
2
10
-29
20
72.45
0
VERTEX
8
2
10
-23.75
20
72.45
0
VERTEX
8
2
10
-23.75
20
75
42
-0.414
0
VERTEX
8
2
10
-23.7
20
75.05
0
VERTEX
8
2
10
-18.5
20
75.05
42
-0.414
0
VERTEX
8
2
10
-18.45
20
75
0
VERTEX
8
2
10
-18.45
20
72.45
0
VERTEX
8
2
10
-13.2
20
72.45
0
VERTEX
8
2
10
-13.2
20
75
42
-0.414
0
VERTEX
8
2
10
-13.15
20
75.05
0
VERTEX
8
2
10
-7.95
20
75.05
42
-0.414
0
VERTEX
8
2
10
-7.9
20
75
0
VERTEX
8
2
10
-7.9
20
72.45
0
VERTEX
8
2
10
-2.65
20
72.45
0
VERTEX
8
2
10
-2.65
20
75
42
-0.414
0
VERTEX
8
2
10
-2.6
20
75.05
0
VERTEX
8
2
10
2.6
20
75.05
42
-0.414
0
VERTEX
8
2
10
2.65
20
75
0
VERTEX
8
2
10
2.65
20
72.45
0
VERTEX
8
2
10
7.9
20
72.45
0
VERTEX
8
2
10
7.9
20
75
42
-0.414
0
VERTEX
8
2
10
7.95
20
75.05
0
VERTEX
8
2
10
13.15
20
75.05
42
-0.414
0
VERTEX
8
2
10
13.2
20
75
0
VERTEX
8
2
10
13.2
20
72.45
0
VERTEX
8
2
10
18.45
20
72.45
0
VERTEX
8
2
10
18.45
20
75
42
-0.414
0
VERTEX
8
2
10
18.5
20
75.05
0
VERTEX
8
2
10
23.7
20
75.05
42
-0.414
0
VERTEX
8
2
10
23.75
20
75
0
VERTEX
8
2
10
23.75
20
72.45
0
VERTEX
8
2
10
29
20
72.45
0
VERTEX
8
2
10
29
20
75
42
-0.414
0
VERTEX
8
2
10
29.05
20
75.05
0
VERTEX
8
2
10
34.25
20
75.05
42
-0.414
0
VERTEX
8
2
10
34.3
20
75
0
VERTEX
8
2
10
34.3
20
72.45
0
VERTEX
8
2
10
39.55
20
72.45
0
VERTEX
8
2
10
39.55
20
75
42
-0.414
0
VERTEX
8
2
10
39.6
20
75.05
0
VERTEX
8
2
10
44.8
20
75.05
42
-0.414
0
VERTEX
8
2
10
44.85
20
75
0
VERTEX
8
2
10
44.85
20
72.45
0
VERTEX
8
2
10
50
20
72.45
42
-0.414
0
VERTEX
8
2
10
50.05
20
72.4
0
VERTEX
8
2
10
50.05
20
67.2
42
-0.414
0
VERTEX
8
2
10
50
20
67.15
0
VERTEX
8
2
10
47.45
20
67.15
0
VERTEX
8
2
10
47.45
20
62.111
0
VERTEX
8
2
10
50
20
62.111
42
-0.414
0
VERTEX
8
2
10
50.05
20
62.062
0
VERTEX
8
2
10
50.05
20
56.861
42
-0.414
0
VERTEX
8
2
10
50
20
56.812
0
VERTEX
8
2
10
47.45
20
56.812
0
VERTEX
8
2
10
47.45
20
51.773
0
VERTEX
8
2
10
50
20
51.773
42
-0.414
0
VERTEX
8
2
10
50.05
20
51.723
0
VERTEX
8
2
10
50.05
20
46.523
42
-0.414
0
VERTEX
8
2
10
50
20
46.473
0
VERTEX
8
2
10
47.45
20
46.473
0
VERTEX
8
2
10
47.45
20
41.435
0
VERTEX
8
2
10
50
20
41.435
42
-0.414
0
VERTEX
8
2
10
50.05
20
41.385
0
VERTEX
8
2
10
50.05
20
36.185
42
-0.414
0
VERTEX
8
2
10
50
20
36.135
0
VERTEX
8
2
10
47.45
20
36.135
0
VERTEX
8
2
10
47.45
20
31.096
0
VERTEX
8
2
10
50
20
31.096
42
-0.414
0
VERTEX
8
2
10
50.05
20
31.046
0
VERTEX
8
2
10
50.05
20
25.846
42
-0.414
0
VERTEX
8
2
10
50
20
25.796
0
VERTEX
8
2
10
47.45
20
25.796
0
VERTEX
8
2
10
47.45
20
20.758
0
VERTEX
8
2
10
50
20
20.758
42
-0.414
0
VERTEX
8
2
10
50.05
20
20.708
0
VERTEX
8
2
10
50.05
20
15.508
42
-0.414
0
VERTEX
8
2
10
50
20
15.458
0
VERTEX
8
2
10
47.45
20
15.458
0
VERTEX
8
2
10
47.45
20
10.419
0
VERTEX
8
2
10
50
20
10.419
42
-0.414
0
VERTEX
8
2
10
50.05
20
10.369
0
VERTEX
8
2
10
50.05
20
5.169
42
-0.414
0
VERTEX
8
2
10
50
20
5.119
0
VERTEX
8
2
10
47.45
20
5.119
0
VERTEX
8
2
10
47.45
20
0.081
0
VERTEX
8
2
10
50
20
0.081
42
-0.414
0
VERTEX
8
2
10
50.05
20
0.031
0
SEQEND
8
2
0
POLYLINE
8
3
62
1
66
1
70
1
0
VERTEX
8
3
10
50.05
20
0.031
0
VERTEX
8
3
10
50.05
20
-5.169
42
-0.414
0
VERTEX
8
3
10
50
20
-5.219
0
VERTEX
8
3
10
47.45
20
-5.219
0
VERTEX
8
3
10
47.45
20
-10.258
0
VERTEX
8
3
10
50
20
-10.258
42
-0.414
0
VERTEX
8
3
10
50.05
20
-10.308
0
VERTEX
8
3
10
50.05
20
-15.508
42
-0.414
0
VERTEX
8
3
10
50
20
-15.558
0
VERTEX
8
3
10
47.45
20
-15.558
0
VERTEX
8
3
10
47.45
20
-20.596
0
VERTEX
8
3
10
50
20
-20.596
42
-0.414
0
VERTEX
8
3
10
50.05
20
-20.646
0
VERTEX
8
3
10
50.05
20
-25.846
42
-0.414
0
VERTEX
8
3
10
50
20
-25.896
0
VERTEX
8
3
10
47.45
20
-25.896
0
VERTEX
8
3
10
47.45
20
-30.935
0
VERTEX
8
3
10
50
20
-30.935
42
-0.414
0
VERTEX
8
3
10
50.05
20
-30.985
0
VERTEX
8
3
10
50.05
20
-36.185
42
-0.414
0
VERTEX
8
3
10
50
20
-36.235
0
VERTEX
8
3
10
47.45
20
-36.235
0
VERTEX
8
3
10
47.45
20
-41.273
0
VERTEX
8
3
10
50
20
-41.273
42
-0.414
0
VERTEX
8
3
10
50.05
20
-41.323
0
VERTEX
8
3
10
50.05
20
-46.523
42
-0.414
0
VERTEX
8
3
10
50
20
-46.573
0
VERTEX
8
3
10
47.45
20
-46.573
0
VERTEX
8
3
10
47.45
20
-51.611
0
VERTEX
8
3
10
50
20
-51.611
42
-0.414
0
VERTEX
8
3
10
50.05
20
-51.661
0
VERTEX
8
3
10
50.05
20
-56.861
42
-0.414
0
VERTEX
8
3
10
50
20
-56.911
0
VERTEX
8
3
10
47.45
20
-56.911
0
VERTEX
8
3
10
47.45
20
-61.95
0
VERTEX
8
3
10
50
20
-61.95
42
-0.414
0
VERTEX
8
3
10
50.05
20
-62
0
VERTEX
8
3
10
50.05
20
-67.2
42
-0.414
0
VERTEX
8
3
10
50
20
-67.25
0
VERTEX
8
3
10
47.45
20
-67.25
0
VERTEX
8
3
10
47.45
20
-72.4
42
-0.414
0
VERTEX
8
3
10
47.4
20
-72.45
0
VERTEX
8
3
10
44.85
20
-72.45
0
VERTEX
8
3
10
44.85
20
-75
42
-0.414
0
VERTEX
8
3
10
44.8
20
-75.05
0
VERTEX
8
3
10
39.6
20
-75.05
42
-0.414
0
VERTEX
8
3
10
39.55
20
-75
0
VERTEX
8
3
10
39.55
20
-72.45
0
VERTEX
8
3
10
34.3
20
-72.45
0
VERTEX
8
3
10
34.3
20
-75
42
-0.414
0
VERTEX
8
3
10
34.25
20
-75.05
0
VERTEX
8
3
10
29.05
20
-75.05
42
-0.414
0
VERTEX
8
3
10
29
20
-75
0
VERTEX
8
3
10
29
20
-72.45
0
VERTEX
8
3
10
23.75
20
-72.45
0
VERTEX
8
3
10
23.75
20
-75
42
-0.414
0
VERTEX
8
3
10
23.7
20
-75.05
0
VERTEX
8
3
10
18.5
20
-75.05
42
-0.414
0
VERTEX
8
3
10
18.45
20
-75
0
VERTEX
8
3
10
18.45
20
-72.45
0
VERTEX
8
3
10
13.2
20
-72.45
0
VERTEX
8
3
10
13.2
20
-75
42
-0.414
0
VERTEX
8
3
10
13.15
20
-75.05
0
VERTEX
8
3
10
7.95
20
-75.05
42
-0.414
0
VERTEX
8
3
10
7.9
20
-75
0
VERTEX
8
3
10
7.9
20
-72.45
0
VERTEX
8
3
10
2.65
20
-72.45
0
VERTEX
8
3
10
2.65
20
-75
42
-0.414
0
VERTEX
8
3
10
2.6
20
-75.05
0
VERTEX
8
3
10
-2.6
20
-75.05
42
-0.414
0
VERTEX
8
3
10
-2.65
20
-75
0
VERTEX
8
3
10
-2.65
20
-72.45
0
VERTEX
8
3
10
-7.9
20
-72.45
0
VERTEX
8
3
10
-7.9
20
-75
42
-0.414
0
VERTEX
8
3
10
-7.95
20
-75.05
0
VERTEX
8
3
10
-13.15
20
-75.05
42
-0.414
0
VERTEX
8
3
10
-13.2
20
-75
0
VERTEX
8
3
10
-13.2
20
-72.45
0
VERTEX
8
3
10
-18.45
20
-72.45
0
VERTEX
8
3
10
-18.45
20
-75
42
-0.414
0
VERTEX
8
3
10
-18.5
20
-75.05
0
VERTEX
8
3
10
-23.7
20
-75.05
42
-0.414
0
VERTEX
8
3
10
-23.75
20
-75
0
VERTEX
8
3
10
-23.75
20
-72.45
0
VERTEX
8
3
10
-29
20
-72.45
0
VERTEX
8
3
10
-29
20
-75
42
-0.414
0
VERTEX
8
3
10
-29.05
20
-75.05
0
VERTEX
8
3
10
-34.25
20
-75.05
42
-0.414
0
VERTEX
8
3
10
-34.3
20
-75
0
VERTEX
8
3
10
-34.3
20
-72.45
0
VERTEX
8
3
10
-39.55
20
-72.45
0
VERTEX
8
3
10
-39.55
20
-75
42
-0.414
0
VERTEX
8
3
10
-39.6
20
-75.05
0
VERTEX
8
3
10
-44.8
20
-75.05
42
-0.414
0
VERTEX
8
3
10
-44.85
20
-75
0
VERTEX
8
3
10
-44.85
20
-72.45
0
VERTEX
8
3
10
-47.4
20
-72.45
42
-0.414
0
VERTEX
8
3
10
-47.45
20
-72.4
0
VERTEX
8
3
10
-47.45
20
-67.25
0
VERTEX
8
3
10
-50
20
-67.25
42
-0.414
0
VERTEX
8
3
10
-50.05
20
-67.2
0
VERTEX
8
3
10
-50.05
20
-62
42
-0.414
0
VERTEX
8
3
10
-50
20
-61.95
0
VERTEX
8
3
10
-47.45
20
-61.95
0
VERTEX
8
3
10
-47.45
20
-56.911
0
VERTEX
8
3
10
-50
20
-56.911
42
-0.414
0
VERTEX
8
3
10
-50.05
20
-56.861
0
VERTEX
8
3
10
-50.05
20
-51.661
42
-0.414
0
VERTEX
8
3
10
-50
20
-51.611
0
VERTEX
8
3
10
-47.45
20
-51.611
0
VERTEX
8
3
10
-47.45
20
-46.573
0
VERTEX
8
3
10
-50
20
-46.573
42
-0.414
0
VERTEX
8
3
10
-50.05
20
-46.523
0
VERTEX
8
3
10
-50.05
20
-41.323
42
-0.414
0
VERTEX
8
3
10
-50
20
-41.273
0
VERTEX
8
3
10
-47.45
20
-41.273
0
VERTEX
8
3
10
-47.45
20
-36.235
0
VERTEX
8
3
10
-50
20
-36.235
42
-0.414
0
VERTEX
8
3
10
-50.05
20
-36.185
0
VERTEX
8
3
10
-50.05
20
-30.985
42
-0.414
0
VERTEX
8
3
10
-50
20
-30.935
0
VERTEX
8
3
10
-47.45
20
-30.935
0
VERTEX
8
3
10
-47.45
20
-25.896
0
VERTEX
8
3
10
-50
20
-25.896
42
-0.414
0
VERTEX
8
3
10
-50.05
20
-25.846
0
VERTEX
8
3
10
-50.05
20
-20.646
42
-0.414
0
VERTEX
8
3
10
-50
20
-20.596
0
VERTEX
8
3
10
-47.45
20
-20.596
0
VERTEX
8
3
10
-47.45
20
-15.558
0
VERTEX
8
3
10
-50
20
-15.558
42
-0.414
0
VERTEX
8
3
10
-50.05
20
-15.508
0
VERTEX
8
3
10
-50.05
20
-10.308
42
-0.414
0
VERTEX
8
3
10
-50
20
-10.258
0
VERTEX
8
3
10
-47.45
20
-10.258
0
VERTEX
8
3
10
-47.45
20
-5.219
0
VERTEX
8
3
10
-50
20
-5.219
42
-0.414
0
VERTEX
8
3
10
-50.05
20
-5.169
0
VERTEX
8
3
10
-50.05
20
0.031
42
-0.414
0
VERTEX
8
3
10
-50
20
0.081
0
VERTEX
8
3
10
-47.45
20
0.081
0
VERTEX
8
3
10
-47.45
20
5.119
0
VERTEX
8
3
10
-50
20
5.119
42
-0.414
0
VERTEX
8
3
10
-50.05
20
5.169
0
VERTEX
8
3
10
-50.05
20
10.369
42
-0.414
0
VERTEX
8
3
10
-50
20
10.419
0
VERTEX
8
3
10
-47.45
20
10.419
0
VERTEX
8
3
10
-47.45
20
15.458
0
VERTEX
8
3
10
-50
20
15.458
42
-0.414
0
VERTEX
8
3
10
-50.05
20
15.508
0
VERTEX
8
3
10
-50.05
20
20.708
42
-0.414
0
VERTEX
8
3
10
-50
20
20.758
0
VERTEX
8
3
10
-47.45
20
20.758
0
VERTEX
8
3
10
-47.45
20
25.796
0
VERTEX
8
3
10
-50
20
25.796
42
-0.414
0
VERTEX
8
3
10
-50.05
20
25.846
0
VERTEX
8
3
10
-50.05
20
31.046
42
-0.414
0
VERTEX
8
3
10
-50
20
31.096
0
VERTEX
8
3
10
-47.45
20
31.096
0
VERTEX
8
3
10
-47.45
20
36.135
0
VERTEX
8
3
10
-50
20
36.135
42
-0.414
0
VERTEX
8
3
10
-50.05
20
36.185
0
VERTEX
8
3
10
-50.05
20
41.385
42
-0.414
0
VERTEX
8
3
10
-50
20
41.435
0
VERTEX
8
3
10
-47.45
20
41.435
0
VERTEX
8
3
10
-47.45
20
46.473
0
VERTEX
8
3
10
-50
20
46.473
42
-0.414
0
VERTEX
8
3
10
-50.05
20
46.523
0
VERTEX
8
3
10
-50.05
20
51.723
42
-0.414
0
VERTEX
8
3
10
-50
20
51.773
0
VERTEX
8
3
10
-47.45
20
51.773
0
VERTEX
8
3
10
-47.45
20
56.812
0
VERTEX
8
3
10
-50
20
56.812
42
-0.414
0
VERTEX
8
3
10
-50.05
20
56.861
0
VERTEX
8
3
10
-50.05
20
62.062
42
-0.414
0
VERTEX
8
3
10
-50
20
62.111
0
VERTEX
8
3
10
-47.45
20
62.111
0
VERTEX
8
3
10
-47.45
20
67.15
0
VERTEX
8
3
10
-50
20
67.15
42
-0.414
0
VERTEX
8
3
10
-50.05
20
67.2
0
VERTEX
8
3
10
-50.05
20
72.4
42
-0.414
0
VERTEX
8
3
10
-50
20
72.45
0
VERTEX
8
3
10
-44.85
20
72.45
0
VERTEX
8
3
10
-44.85
20
75
42
-0.414
0
VERTEX
8
3
10
-44.8
20
75.05
0
VERTEX
8
3
10
-39.6
20
75.05
42
-0.414
0
VERTEX
8
3
10
-39.55
20
75
0
VERTEX
8
3
10
-39.55
20
72.45
0
VERTEX
8
3
10
-34.3
20
72.45
0
VERTEX
8
3
10
-34.3
20
75
42
-0.414
0
VERTEX
8
3
10
-34.25
20
75.05
0
VERTEX
8
3
10
-29.05
20
75.05
42
-0.414
0
VERTEX
8
3
10
-29
20
75
0
VERTEX
8
3
10
-29
20
72.45
0
VERTEX
8
3
10
-23.75
20
72.45
0
VERTEX
8
3
10
-23.75
20
75
42
-0.414
0
VERTEX
8
3
10
-23.7
20
75.05
0
VERTEX
8
3
10
-18.5
20
75.05
42
-0.414
0
VERTEX
8
3
10
-18.45
20
75
0
VERTEX
8
3
10
-18.45
20
72.45
0
VERTEX
8
3
10
-13.2
20
72.45
0
VERTEX
8
3
10
-13.2
20
75
42
-0.414
0
VERTEX
8
3
10
-13.15
20
75.05
0
VERTEX
8
3
10
-7.95
20
75.05
42
-0.414
0
VERTEX
8
3
10
-7.9
20
75
0
VERTEX
8
3
10
-7.9
20
72.45
0
VERTEX
8
3
10
-2.65
20
72.45
0
VERTEX
8
3
10
-2.65
20
75
42
-0.414
0
VERTEX
8
3
10
-2.6
20
75.05
0
VERTEX
8
3
10
2.6
20
75.05
42
-0.414
0
VERTEX
8
3
10
2.65
20
75
0
VERTEX
8
3
10
2.65
20
72.45
0
VERTEX
8
3
10
7.9
20
72.45
0
VERTEX
8
3
10
7.9
20
75
42
-0.414
0
VERTEX
8
3
10
7.95
20
75.05
0
VERTEX
8
3
10
13.15
20
75.05
42
-0.414
0
VERTEX
8
3
10
13.2
20
75
0
VERTEX
8
3
10
13.2
20
72.45
0
VERTEX
8
3
10
18.45
20
72.45
0
VERTEX
8
3
10
18.45
20
75
42
-0.414
0
VERTEX
8
3
10
18.5
20
75.05
0
VERTEX
8
3
10
23.7
20
75.05
42
-0.414
0
VERTEX
8
3
10
23.75
20
75
0
VERTEX
8
3
10
23.75
20
72.45
0
VERTEX
8
3
10
29
20
72.45
0
VERTEX
8
3
10
29
20
75
42
-0.414
0
VERTEX
8
3
10
29.05
20
75.05
0
VERTEX
8
3
10
34.25
20
75.05
42
-0.414
0
VERTEX
8
3
10
34.3
20
75
0
VERTEX
8
3
10
34.3
20
72.45
0
VERTEX
8
3
10
39.55
20
72.45
0
VERTEX
8
3
10
39.55
20
75
42
-0.414
0
VERTEX
8
3
10
39.6
20
75.05
0
VERTEX
8
3
10
44.8
20
75.05
42
-0.414
0
VERTEX
8
3
10
44.85
20
75
0
VERTEX
8
3
10
44.85
20
72.45
0
VERTEX
8
3
10
50
20
72.45
42
-0.414
0
VERTEX
8
3
10
50.05
20
72.4
0
VERTEX
8
3
10
50.05
20
67.2
42
-0.414
0
VERTEX
8
3
10
50
20
67.15
0
VERTEX
8
3
10
47.45
20
67.15
0
VERTEX
8
3
10
47.45
20
62.111
0
VERTEX
8
3
10
50
20
62.111
42
-0.414
0
VERTEX
8
3
10
50.05
20
62.062
0
VERTEX
8
3
10
50.05
20
56.861
42
-0.414
0
VERTEX
8
3
10
50
20
56.812
0
VERTEX
8
3
10
47.45
20
56.812
0
VERTEX
8
3
10
47.45
20
51.773
0
VERTEX
8
3
10
50
20
51.773
42
-0.414
0
VERTEX
8
3
10
50.05
20
51.723
0
VERTEX
8
3
10
50.05
20
46.523
42
-0.414
0
VERTEX
8
3
10
50
20
46.473
0
VERTEX
8
3
10
47.45
20
46.473
0
VERTEX
8
3
10
47.45
20
41.435
0
VERTEX
8
3
10
50
20
41.435
42
-0.414
0
VERTEX
8
3
10
50.05
20
41.385
0
VERTEX
8
3
10
50.05
20
36.185
42
-0.414
0
VERTEX
8
3
10
50
20
36.135
0
VERTEX
8
3
10
47.45
20
36.135
0
VERTEX
8
3
10
47.45
20
31.096
0
VERTEX
8
3
10
50
20
31.096
42
-0.414
0
VERTEX
8
3
10
50.05
20
31.046
0
VERTEX
8
3
10
50.05
20
25.846
42
-0.414
0
VERTEX
8
3
10
50
20
25.796
0
VERTEX
8
3
10
47.45
20
25.796
0
VERTEX
8
3
10
47.45
20
20.758
0
VERTEX
8
3
10
50
20
20.758
42
-0.414
0
VERTEX
8
3
10
50.05
20
20.708
0
VERTEX
8
3
10
50.05
20
15.508
42
-0.414
0
VERTEX
8
3
10
50
20
15.458
0
VERTEX
8
3
10
47.45
20
15.458
0
VERTEX
8
3
10
47.45
20
10.419
0
VERTEX
8
3
10
50
20
10.419
42
-0.414
0
VERTEX
8
3
10
50.05
20
10.369
0
VERTEX
8
3
10
50.05
20
5.169
42
-0.414
0
VERTEX
8
3
10
50
20
5.119
0
VERTEX
8
3
10
47.45
20
5.119
0
VERTEX
8
3
10
47.45
20
0.081
0
VERTEX
8
3
10
50
20
0.081
42
-0.414
0
VERTEX
8
3
10
50.05
20
0.031
0
SEQEND
8
3
0
POLYLINE
8
4
62
1
66
1
70
1
0
VERTEX
8
4
10
-65
20
-5.219
42
-0.414
0
VERTEX
8
4
10
-65.05
20
-5.169
0
VERTEX
8
4
10
-65.05
20
-0.031
42
-0.414
0
VERTEX
8
4
10
-65
20
0.019
0
VERTEX
8
4
10
-62.45
20
0.019
0
VERTEX
8
4
10
-62.45
20
5.119
0
VERTEX
8
4
10
-65
20
5.119
42
-0.414
0
VERTEX
8
4
10
-65.05
20
5.169
0
VERTEX
8
4
10
-65.05
20
10.308
42
-0.414
0
VERTEX
8
4
10
-65
20
10.358
0
VERTEX
8
4
10
-62.45
20
10.358
0
VERTEX
8
4
10
-62.45
20
15.458
0
VERTEX
8
4
10
-65
20
15.458
42
-0.414
0
VERTEX
8
4
10
-65.05
20
15.508
0
VERTEX
8
4
10
-65.05
20
20.646
42
-0.414
0
VERTEX
8
4
10
-65
20
20.696
0
VERTEX
8
4
10
-62.45
20
20.696
0
VERTEX
8
4
10
-62.45
20
25.796
0
VERTEX
8
4
10
-65
20
25.796
42
-0.414
0
VERTEX
8
4
10
-65.05
20
25.846
0
VERTEX
8
4
10
-65.05
20
30.985
42
-0.414
0
VERTEX
8
4
10
-65
20
31.035
0
VERTEX
8
4
10
-62.45
20
31.035
0
VERTEX
8
4
10
-62.45
20
36.135
0
VERTEX
8
4
10
-65
20
36.135
42
-0.414
0
VERTEX
8
4
10
-65.05
20
36.185
0
VERTEX
8
4
10
-65.05
20
41.323
42
-0.414
0
VERTEX
8
4
10
-65
20
41.373
0
VERTEX
8
4
10
-62.45
20
41.373
0
VERTEX
8
4
10
-62.45
20
46.473
0
VERTEX
8
4
10
-65
20
46.473
42
-0.414
0
VERTEX
8
4
10
-65.05
20
46.523
0
VERTEX
8
4
10
-65.05
20
51.661
42
-0.414
0
VERTEX
8
4
10
-65
20
51.711
0
VERTEX
8
4
10
-62.45
20
51.711
0
VERTEX
8
4
10
-62.45
20
56.812
0
VERTEX
8
4
10
-65
20
56.812
42
-0.414
0
VERTEX
8
4
10
-65.05
20
56.861
0
VERTEX
8
4
10
-65.05
20
62
42
-0.414
0
VERTEX
8
4
10
-65
20
62.05
0
VERTEX
8
4
10
-62.45
20
62.05
0
VERTEX
8
4
10
-62.45
20
67.15
0
VERTEX
8
4
10
-65
20
67.15
42
-0.414
0
VERTEX
8
4
10
-65.05
20
67.2
0
VERTEX
8
4
10
-65.05
20
72.4
42
-0.414
0
VERTEX
8
4
10
-65
20
72.45
0
VERTEX
8
4
10
-59.85
20
72.45
0
VERTEX
8
4
10
-59.85
20
75
42
-0.414
0
VERTEX
8
4
10
-59.8
20
75.05
0
VERTEX
8
4
10
-54.6
20
75.05
42
-0.414
0
VERTEX
8
4
10
-54.55
20
75
0
VERTEX
8
4
10
-54.55
20
72.45
0
VERTEX
8
4
10
-49.45
20
72.45
0
VERTEX
8
4
10
-49.45
20
75
42
-0.414
0
VERTEX
8
4
10
-49.4
20
75.05
0
VERTEX
8
4
10
-44.2
20
75.05
42
-0.414
0
VERTEX
8
4
10
-44.15
20
75
0
VERTEX
8
4
10
-44.15
20
72.45
0
VERTEX
8
4
10
-39.05
20
72.45
0
VERTEX
8
4
10
-39.05
20
75
42
-0.414
0
VERTEX
8
4
10
-39
20
75.05
0
VERTEX
8
4
10
-33.8
20
75.05
42
-0.414
0
VERTEX
8
4
10
-33.75
20
75
0
VERTEX
8
4
10
-33.75
20
72.45
0
VERTEX
8
4
10
-28.65
20
72.45
0
VERTEX
8
4
10
-28.65
20
75
42
-0.414
0
VERTEX
8
4
10
-28.6
20
75.05
0
VERTEX
8
4
10
-23.4
20
75.05
42
-0.414
0
VERTEX
8
4
10
-23.35
20
75
0
VERTEX
8
4
10
-23.35
20
72.45
0
VERTEX
8
4
10
-18.25
20
72.45
0
VERTEX
8
4
10
-18.25
20
75
42
-0.414
0
VERTEX
8
4
10
-18.2
20
75.05
0
VERTEX
8
4
10
-13
20
75.05
42
-0.414
0
VERTEX
8
4
10
-12.95
20
75
0
VERTEX
8
4
10
-12.95
20
72.45
0
VERTEX
8
4
10
-7.85
20
72.45
0
VERTEX
8
4
10
-7.85
20
75
42
-0.414
0
VERTEX
8
4
10
-7.8
20
75.05
0
VERTEX
8
4
10
-2.6
20
75.05
42
-0.414
0
VERTEX
8
4
10
-2.55
20
75
0
VERTEX
8
4
10
-2.55
20
72.45
0
VERTEX
8
4
10
2.55
20
72.45
0
VERTEX
8
4
10
2.55
20
75
42
-0.414
0
VERTEX
8
4
10
2.6
20
75.05
0
VERTEX
8
4
10
7.8
20
75.05
42
-0.414
0
VERTEX
8
4
10
7.85
20
75
0
VERTEX
8
4
10
7.85
20
72.45
0
VERTEX
8
4
10
12.95
20
72.45
0
VERTEX
8
4
10
12.95
20
75
42
-0.414
0
VERTEX
8
4
10
13
20
75.05
0
VERTEX
8
4
10
18.2
20
75.05
42
-0.414
0
VERTEX
8
4
10
18.25
20
75
0
VERTEX
8
4
10
18.25
20
72.45
0
VERTEX
8
4
10
23.35
20
72.45
0
VERTEX
8
4
10
23.35
20
75
42
-0.414
0
VERTEX
8
4
10
23.4
20
75.05
0
VERTEX
8
4
10
28.6
20
75.05
42
-0.414
0
VERTEX
8
4
10
28.65
20
75
0
VERTEX
8
4
10
28.65
20
72.45
0
VERTEX
8
4
10
33.75
20
72.45
0
VERTEX
8
4
10
33.75
20
75
42
-0.414
0
VERTEX
8
4
10
33.8
20
75.05
0
VERTEX
8
4
10
39
20
75.05
42
-0.414
0
VERTEX
8
4
10
39.05
20
75
0
VERTEX
8
4
10
39.05
20
72.45
0
VERTEX
8
4
10
44.15
20
72.45
0
VERTEX
8
4
10
44.15
20
75
42
-0.414
0
VERTEX
8
4
10
44.2
20
75.05
0
VERTEX
8
4
10
49.4
20
75.05
42
-0.414
0
VERTEX
8
4
10
49.45
20
75
0
VERTEX
8
4
10
49.45
20
72.45
0
VERTEX
8
4
10
54.55
20
72.45
0
VERTEX
8
4
10
54.55
20
75
42
-0.414
0
VERTEX
8
4
10
54.6
20
75.05
0
VERTEX
8
4
10
59.8
20
75.05
42
-0.414
0
VERTEX
8
4
10
59.85
20
75
0
VERTEX
8
4
10
59.85
20
72.45
0
VERTEX
8
4
10
65
20
72.45
42
-0.414
0
VERTEX
8
4
10
65.05
20
72.4
0
VERTEX
8
4
10
65.05
20
67.2
42
-0.414
0
VERTEX
8
4
10
65
20
67.15
0
VERTEX
8
4
10
62.45
20
67.15
0
VERTEX
8
4
10
62.45
20
62.05
0
VERTEX
8
4
10
65
20
62.05
42
-0.414
0
VERTEX
8
4
10
65.05
20
62
0
VERTEX
8
4
10
65.05
20
56.861
42
-0.414
0
VERTEX
8
4
10
65
20
56.812
0
VERTEX
8
4
10
62.45
20
56.812
0
VERTEX
8
4
10
62.45
20
51.711
0
VERTEX
8
4
10
65
20
51.711
42
-0.414
0
VERTEX
8
4
10
65.05
20
51.661
0
VERTEX
8
4
10
65.05
20
46.523
42
-0.414
0
VERTEX
8
4
10
65
20
46.473
0
VERTEX
8
4
10
62.45
20
46.473
0
VERTEX
8
4
10
62.45
20
41.373
0
VERTEX
8
4
10
65
20
41.373
42
-0.414
0
VERTEX
8
4
10
65.05
20
41.323
0
VERTEX
8
4
10
65.05
20
36.185
42
-0.414
0
VERTEX
8
4
10
65
20
36.135
0
VERTEX
8
4
10
62.45
20
36.135
0
VERTEX
8
4
10
62.45
20
31.035
0
VERTEX
8
4
10
65
20
31.035
42
-0.414
0
VERTEX
8
4
10
65.05
20
30.985
0
VERTEX
8
4
10
65.05
20
25.846
42
-0.414
0
VERTEX
8
4
10
65
20
25.796
0
VERTEX
8
4
10
62.45
20
25.796
0
VERTEX
8
4
10
62.45
20
20.696
0
VERTEX
8
4
10
65
20
20.696
42
-0.414
0
VERTEX
8
4
10
65.05
20
20.646
0
VERTEX
8
4
10
65.05
20
15.508
42
-0.414
0
VERTEX
8
4
10
65
20
15.458
0
VERTEX
8
4
10
62.45
20
15.458
0
VERTEX
8
4
10
62.45
20
10.358
0
VERTEX
8
4
10
65
20
10.358
42
-0.414
0
VERTEX
8
4
10
65.05
20
10.308
0
VERTEX
8
4
10
65.05
20
5.169
42
-0.414
0
VERTEX
8
4
10
65
20
5.119
0
VERTEX
8
4
10
62.45
20
5.119
0
VERTEX
8
4
10
62.45
20
0.019
0
VERTEX
8
4
10
65
20
0.019
42
-0.414
0
VERTEX
8
4
10
65.05
20
-0.031
0
VERTEX
8
4
10
65.05
20
-5.169
42
-0.414
0
VERTEX
8
4
10
65
20
-5.219
0
VERTEX
8
4
10
62.45
20
-5.219
0
VERTEX
8
4
10
62.45
20
-10.319
0
VERTEX
8
4
10
65
20
-10.319
42
-0.414
0
VERTEX
8
4
10
65.05
20
-10.369
0
VERTEX
8
4
10
65.05
20
-15.508
42
-0.414
0
VERTEX
8
4
10
65
20
-15.558
0
VERTEX
8
4
10
62.45
20
-15.558
0
VERTEX
8
4
10
62.45
20
-20.658
0
VERTEX
8
4
10
65
20
-20.658
42
-0.414
0
VERTEX
8
4
10
65.05
20
-20.708
0
VERTEX
8
4
10
65.05
20
-25.846
42
-0.414
0
VERTEX
8
4
10
65
20
-25.896
0
VERTEX
8
4
10
62.45
20
-25.896
0
VERTEX
8
4
10
62.45
20
-30.996
0
VERTEX
8
4
10
65
20
-30.996
42
-0.414
0
VERTEX
8
4
10
65.05
20
-31.046
0
VERTEX
8
4
10
65.05
20
-36.185
42
-0.414
0
VERTEX
8
4
10
65
20
-36.235
0
VERTEX
8
4
10
62.45
20
-36.235
0
VERTEX
8
4
10
62.45
20
-41.335
0
VERTEX
8
4
10
65
20
-41.335
42
-0.414
0
VERTEX
8
4
10
65.05
20
-41.385
0
VERTEX
8
4
10
65.05
20
-46.523
42
-0.414
0
VERTEX
8
4
10
65
20
-46.573
0
VERTEX
8
4
10
62.45
20
-46.573
0
VERTEX
8
4
10
62.45
20
-51.673
0
VERTEX
8
4
10
65
20
-51.673
42
-0.414
0
VERTEX
8
4
10
65.05
20
-51.723
0
VERTEX
8
4
10
65.05
20
-56.861
42
-0.414
0
VERTEX
8
4
10
65
20
-56.911
0
VERTEX
8
4
10
62.45
20
-56.911
0
VERTEX
8
4
10
62.45
20
-62.012
0
VERTEX
8
4
10
65
20
-62.012
42
-0.414
0
VERTEX
8
4
10
65.05
20
-62.062
0
VERTEX
8
4
10
65.05
20
-67.2
42
-0.414
0
VERTEX
8
4
10
65
20
-67.25
0
VERTEX
8
4
10
62.45
20
-67.25
0
VERTEX
8
4
10
62.45
20
-72.4
42
-0.414
0
VERTEX
8
4
10
62.4
20
-72.45
0
VERTEX
8
4
10
59.85
20
-72.45
0
VERTEX
8
4
10
59.85
20
-75
42
-0.414
0
VERTEX
8
4
10
59.8
20
-75.05
0
VERTEX
8
4
10
54.6
20
-75.05
42
-0.414
0
VERTEX
8
4
10
54.55
20
-75
0
VERTEX
8
4
10
54.55
20
-72.45
0
VERTEX
8
4
10
49.45
20
-72.45
0
VERTEX
8
4
10
49.45
20
-75
42
-0.414
0
VERTEX
8
4
10
49.4
20
-75.05
0
VERTEX
8
4
10
44.2
20
-75.05
42
-0.414
0
VERTEX
8
4
10
44.15
20
-75
0
VERTEX
8
4
10
44.15
20
-72.45
0
VERTEX
8
4
10
39.05
20
-72.45
0
VERTEX
8
4
10
39.05
20
-75
42
-0.414
0
VERTEX
8
4
10
39
20
-75.05
0
VERTEX
8
4
10
33.8
20
-75.05
42
-0.414
0
VERTEX
8
4
10
33.75
20
-75
0
VERTEX
8
4
10
33.75
20
-72.45
0
VERTEX
8
4
10
28.65
20
-72.45
0
VERTEX
8
4
10
28.65
20
-75
42
-0.414
0
VERTEX
8
4
10
28.6
20
-75.05
0
VERTEX
8
4
10
23.4
20
-75.05
42
-0.414
0
VERTEX
8
4
10
23.35
20
-75
0
VERTEX
8
4
10
23.35
20
-72.45
0
VERTEX
8
4
10
18.25
20
-72.45
0
VERTEX
8
4
10
18.25
20
-75
42
-0.414
0
VERTEX
8
4
10
18.2
20
-75.05
0
VERTEX
8
4
10
13
20
-75.05
42
-0.414
0
VERTEX
8
4
10
12.95
20
-75
0
VERTEX
8
4
10
12.95
20
-72.45
0
VERTEX
8
4
10
7.85
20
-72.45
0
VERTEX
8
4
10
7.85
20
-75
42
-0.414
0
VERTEX
8
4
10
7.8
20
-75.05
0
VERTEX
8
4
10
2.6
20
-75.05
42
-0.414
0
VERTEX
8
4
10
2.55
20
-75
0
VERTEX
8
4
10
2.55
20
-72.45
0
VERTEX
8
4
10
-2.55
20
-72.45
0
VERTEX
8
4
10
-2.55
20
-75
42
-0.414
0
VERTEX
8
4
10
-2.6
20
-75.05
0
VERTEX
8
4
10
-7.8
20
-75.05
42
-0.414
0
VERTEX
8
4
10
-7.85
20
-75
0
VERTEX
8
4
10
-7.85
20
-72.45
0
VERTEX
8
4
10
-12.95
20
-72.45
0
VERTEX
8
4
10
-12.95
20
-75
42
-0.414
0
VERTEX
8
4
10
-13
20
-75.05
0
VERTEX
8
4
10
-18.2
20
-75.05
42
-0.414
0
VERTEX
8
4
10
-18.25
20
-75
0
VERTEX
8
4
10
-18.25
20
-72.45
0
VERTEX
8
4
10
-23.35
20
-72.45
0
VERTEX
8
4
10
-23.35
20
-75
42
-0.414
0
VERTEX
8
4
10
-23.4
20
-75.05
0
VERTEX
8
4
10
-28.6
20
-75.05
42
-0.414
0
VERTEX
8
4
10
-28.65
20
-75
0
VERTEX
8
4
10
-28.65
20
-72.45
0
VERTEX
8
4
10
-33.75
20
-72.45
0
VERTEX
8
4
10
-33.75
20
-75
42
-0.414
0
VERTEX
8
4
10
-33.8
20
-75.05
0
VERTEX
8
4
10
-39
20
-75.05
42
-0.414
0
VERTEX
8
4
10
-39.05
20
-75
0
VERTEX
8
4
10
-39.05
20
-72.45
0
VERTEX
8
4
10
-44.15
20
-72.45
0
VERTEX
8
4
10
-44.15
20
-75
42
-0.414
0
VERTEX
8
4
10
-44.2
20
-75.05
0
VERTEX
8
4
10
-49.4
20
-75.05
42
-0.414
0
VERTEX
8
4
10
-49.45
20
-75
0
VERTEX
8
4
10
-49.45
20
-72.45
0
VERTEX
8
4
10
-54.55
20
-72.45
0
VERTEX
8
4
10
-54.55
20
-75
42
-0.414
0
VERTEX
8
4
10
-54.6
20
-75.05
0
VERTEX
8
4
10
-59.8
20
-75.05
42
-0.414
0
VERTEX
8
4
10
-59.85
20
-75
0
VERTEX
8
4
10
-59.85
20
-72.45
0
VERTEX
8
4
10
-62.4
20
-72.45
42
-0.414
0
VERTEX
8
4
10
-62.45
20
-72.4
0
VERTEX
8
4
10
-62.45
20
-67.25
0
VERTEX
8
4
10
-65
20
-67.25
42
-0.414
0
VERTEX
8
4
10
-65.05
20
-67.2
0
VERTEX
8
4
10
-65.05
20
-62.062
42
-0.414
0
VERTEX
8
4
10
-65
20
-62.012
0
VERTEX
8
4
10
-62.45
20
-62.012
0
VERTEX
8
4
10
-62.45
20
-56.911
0
VERTEX
8
4
10
-65
20
-56.911
42
-0.414
0
VERTEX
8
4
10
-65.05
20
-56.861
0
VERTEX
8
4
10
-65.05
20
-51.723
42
-0.414
0
VERTEX
8
4
10
-65
20
-51.673
0
VERTEX
8
4
10
-62.45
20
-51.673
0
VERTEX
8
4
10
-62.45
20
-46.573
0
VERTEX
8
4
10
-65
20
-46.573
42
-0.414
0
VERTEX
8
4
10
-65.05
20
-46.523
0
VERTEX
8
4
10
-65.05
20
-41.385
42
-0.414
0
VERTEX
8
4
10
-65
20
-41.335
0
VERTEX
8
4
10
-62.45
20
-41.335
0
VERTEX
8
4
10
-62.45
20
-36.235
0
VERTEX
8
4
10
-65
20
-36.235
42
-0.414
0
VERTEX
8
4
10
-65.05
20
-36.185
0
VERTEX
8
4
10
-65.05
20
-31.046
42
-0.414
0
VERTEX
8
4
10
-65
20
-30.996
0
VERTEX
8
4
10
-62.45
20
-30.996
0
VERTEX
8
4
10
-62.45
20
-25.896
0
VERTEX
8
4
10
-65
20
-25.896
42
-0.414
0
VERTEX
8
4
10
-65.05
20
-25.846
0
VERTEX
8
4
10
-65.05
20
-20.708
42
-0.414
0
VERTEX
8
4
10
-65
20
-20.658
0
VERTEX
8
4
10
-62.45
20
-20.658
0
VERTEX
8
4
10
-62.45
20
-15.558
0
VERTEX
8
4
10
-65
20
-15.558
42
-0.414
0
VERTEX
8
4
10
-65.05
20
-15.508
0
VERTEX
8
4
10
-65.05
20
-10.369
42
-0.414
0
VERTEX
8
4
10
-65
20
-10.319
0
VERTEX
8
4
10
-62.45
20
-10.319
0
VERTEX
8
4
10
-62.45
20
-5.219
0
VERTEX
8
4
10
-65
20
-5.219
42
-0.414
0
SEQEND
8
4
0
POLYLINE
8
5
62
1
66
1
70
1
0
VERTEX
8
5
10
-65
20
-5.219
42
-0.414
0
VERTEX
8
5
10
-65.05
20
-5.169
0
VERTEX
8
5
10
-65.05
20
-0.031
42
-0.414
0
VERTEX
8
5
10
-65
20
0.019
0
VERTEX
8
5
10
-62.45
20
0.019
0
VERTEX
8
5
10
-62.45
20
5.119
0
VERTEX
8
5
10
-65
20
5.119
42
-0.414
0
VERTEX
8
5
10
-65.05
20
5.169
0
VERTEX
8
5
10
-65.05
20
10.308
42
-0.414
0
VERTEX
8
5
10
-65
20
10.358
0
VERTEX
8
5
10
-62.45
20
10.358
0
VERTEX
8
5
10
-62.45
20
15.458
0
VERTEX
8
5
10
-65
20
15.458
42
-0.414
0
VERTEX
8
5
10
-65.05
20
15.508
0
VERTEX
8
5
10
-65.05
20
20.646
42
-0.414
0
VERTEX
8
5
10
-65
20
20.696
0
VERTEX
8
5
10
-62.45
20
20.696
0
VERTEX
8
5
10
-62.45
20
25.796
0
VERTEX
8
5
10
-65
20
25.796
42
-0.414
0
VERTEX
8
5
10
-65.05
20
25.846
0
VERTEX
8
5
10
-65.05
20
30.985
42
-0.414
0
VERTEX
8
5
10
-65
20
31.035
0
VERTEX
8
5
10
-62.45
20
31.035
0
VERTEX
8
5
10
-62.45
20
36.135
0
VERTEX
8
5
10
-65
20
36.135
42
-0.414
0
VERTEX
8
5
10
-65.05
20
36.185
0
VERTEX
8
5
10
-65.05
20
41.323
42
-0.414
0
VERTEX
8
5
10
-65
20
41.373
0
VERTEX
8
5
10
-62.45
20
41.373
0
VERTEX
8
5
10
-62.45
20
46.473
0
VERTEX
8
5
10
-65
20
46.473
42
-0.414
0
VERTEX
8
5
10
-65.05
20
46.523
0
VERTEX
8
5
10
-65.05
20
51.661
42
-0.414
0
VERTEX
8
5
10
-65
20
51.711
0
VERTEX
8
5
10
-62.45
20
51.711
0
VERTEX
8
5
10
-62.45
20
56.812
0
VERTEX
8
5
10
-65
20
56.812
42
-0.414
0
VERTEX
8
5
10
-65.05
20
56.861
0
VERTEX
8
5
10
-65.05
20
62
42
-0.414
0
VERTEX
8
5
10
-65
20
62.05
0
VERTEX
8
5
10
-62.45
20
62.05
0
VERTEX
8
5
10
-62.45
20
67.15
0
VERTEX
8
5
10
-65
20
67.15
42
-0.414
0
VERTEX
8
5
10
-65.05
20
67.2
0
VERTEX
8
5
10
-65.05
20
72.4
42
-0.414
0
VERTEX
8
5
10
-65
20
72.45
0
VERTEX
8
5
10
-59.85
20
72.45
0
VERTEX
8
5
10
-59.85
20
75
42
-0.414
0
VERTEX
8
5
10
-59.8
20
75.05
0
VERTEX
8
5
10
-54.6
20
75.05
42
-0.414
0
VERTEX
8
5
10
-54.55
20
75
0
VERTEX
8
5
10
-54.55
20
72.45
0
VERTEX
8
5
10
-49.45
20
72.45
0
VERTEX
8
5
10
-49.45
20
75
42
-0.414
0
VERTEX
8
5
10
-49.4
20
75.05
0
VERTEX
8
5
10
-44.2
20
75.05
42
-0.414
0
VERTEX
8
5
10
-44.15
20
75
0
VERTEX
8
5
10
-44.15
20
72.45
0
VERTEX
8
5
10
-39.05
20
72.45
0
VERTEX
8
5
10
-39.05
20
75
42
-0.414
0
VERTEX
8
5
10
-39
20
75.05
0
VERTEX
8
5
10
-33.8
20
75.05
42
-0.414
0
VERTEX
8
5
10
-33.75
20
75
0
VERTEX
8
5
10
-33.75
20
72.45
0
VERTEX
8
5
10
-28.65
20
72.45
0
VERTEX
8
5
10
-28.65
20
75
42
-0.414
0
VERTEX
8
5
10
-28.6
20
75.05
0
VERTEX
8
5
10
-23.4
20
75.05
42
-0.414
0
VERTEX
8
5
10
-23.35
20
75
0
VERTEX
8
5
10
-23.35
20
72.45
0
VERTEX
8
5
10
-18.25
20
72.45
0
VERTEX
8
5
10
-18.25
20
75
42
-0.414
0
VERTEX
8
5
10
-18.2
20
75.05
0
VERTEX
8
5
10
-13
20
75.05
42
-0.414
0
VERTEX
8
5
10
-12.95
20
75
0
VERTEX
8
5
10
-12.95
20
72.45
0
VERTEX
8
5
10
-7.85
20
72.45
0
VERTEX
8
5
10
-7.85
20
75
42
-0.414
0
VERTEX
8
5
10
-7.8
20
75.05
0
VERTEX
8
5
10
-2.6
20
75.05
42
-0.414
0
VERTEX
8
5
10
-2.55
20
75
0
VERTEX
8
5
10
-2.55
20
72.45
0
VERTEX
8
5
10
2.55
20
72.45
0
VERTEX
8
5
10
2.55
20
75
42
-0.414
0
VERTEX
8
5
10
2.6
20
75.05
0
VERTEX
8
5
10
7.8
20
75.05
42
-0.414
0
VERTEX
8
5
10
7.85
20
75
0
VERTEX
8
5
10
7.85
20
72.45
0
VERTEX
8
5
10
12.95
20
72.45
0
VERTEX
8
5
10
12.95
20
75
42
-0.414
0
VERTEX
8
5
10
13
20
75.05
0
VERTEX
8
5
10
18.2
20
75.05
42
-0.414
0
VERTEX
8
5
10
18.25
20
75
0
VERTEX
8
5
10
18.25
20
72.45
0
VERTEX
8
5
10
23.35
20
72.45
0
VERTEX
8
5
10
23.35
20
75
42
-0.414
0
VERTEX
8
5
10
23.4
20
75.05
0
VERTEX
8
5
10
28.6
20
75.05
42
-0.414
0
VERTEX
8
5
10
28.65
20
75
0
VERTEX
8
5
10
28.65
20
72.45
0
VERTEX
8
5
10
33.75
20
72.45
0
VERTEX
8
5
10
33.75
20
75
42
-0.414
0
VERTEX
8
5
10
33.8
20
75.05
0
VERTEX
8
5
10
39
20
75.05
42
-0.414
0
VERTEX
8
5
10
39.05
20
75
0
VERTEX
8
5
10
39.05
20
72.45
0
VERTEX
8
5
10
44.15
20
72.45
0
VERTEX
8
5
10
44.15
20
75
42
-0.414
0
VERTEX
8
5
10
44.2
20
75.05
0
VERTEX
8
5
10
49.4
20
75.05
42
-0.414
0
VERTEX
8
5
10
49.45
20
75
0
VERTEX
8
5
10
49.45
20
72.45
0
VERTEX
8
5
10
54.55
20
72.45
0
VERTEX
8
5
10
54.55
20
75
42
-0.414
0
VERTEX
8
5
10
54.6
20
75.05
0
VERTEX
8
5
10
59.8
20
75.05
42
-0.414
0
VERTEX
8
5
10
59.85
20
75
0
VERTEX
8
5
10
59.85
20
72.45
0
VERTEX
8
5
10
65
20
72.45
42
-0.414
0
VERTEX
8
5
10
65.05
20
72.4
0
VERTEX
8
5
10
65.05
20
67.2
42
-0.414
0
VERTEX
8
5
10
65
20
67.15
0
VERTEX
8
5
10
62.45
20
67.15
0
VERTEX
8
5
10
62.45
20
62.05
0
VERTEX
8
5
10
65
20
62.05
42
-0.414
0
VERTEX
8
5
10
65.05
20
62
0
VERTEX
8
5
10
65.05
20
56.861
42
-0.414
0
VERTEX
8
5
10
65
20
56.812
0
VERTEX
8
5
10
62.45
20
56.812
0
VERTEX
8
5
10
62.45
20
51.711
0
VERTEX
8
5
10
65
20
51.711
42
-0.414
0
VERTEX
8
5
10
65.05
20
51.661
0
VERTEX
8
5
10
65.05
20
46.523
42
-0.414
0
VERTEX
8
5
10
65
20
46.473
0
VERTEX
8
5
10
62.45
20
46.473
0
VERTEX
8
5
10
62.45
20
41.373
0
VERTEX
8
5
10
65
20
41.373
42
-0.414
0
VERTEX
8
5
10
65.05
20
41.323
0
VERTEX
8
5
10
65.05
20
36.185
42
-0.414
0
VERTEX
8
5
10
65
20
36.135
0
VERTEX
8
5
10
62.45
20
36.135
0
VERTEX
8
5
10
62.45
20
31.035
0
VERTEX
8
5
10
65
20
31.035
42
-0.414
0
VERTEX
8
5
10
65.05
20
30.985
0
VERTEX
8
5
10
65.05
20
25.846
42
-0.414
0
VERTEX
8
5
10
65
20
25.796
0
VERTEX
8
5
10
62.45
20
25.796
0
VERTEX
8
5
10
62.45
20
20.696
0
VERTEX
8
5
10
65
20
20.696
42
-0.414
0
VERTEX
8
5
10
65.05
20
20.646
0
VERTEX
8
5
10
65.05
20
15.508
42
-0.414
0
VERTEX
8
5
10
65
20
15.458
0
VERTEX
8
5
10
62.45
20
15.458
0
VERTEX
8
5
10
62.45
20
10.358
0
VERTEX
8
5
10
65
20
10.358
42
-0.414
0
VERTEX
8
5
10
65.05
20
10.308
0
VERTEX
8
5
10
65.05
20
5.169
42
-0.414
0
VERTEX
8
5
10
65
20
5.119
0
VERTEX
8
5
10
62.45
20
5.119
0
VERTEX
8
5
10
62.45
20
0.019
0
VERTEX
8
5
10
65
20
0.019
42
-0.414
0
VERTEX
8
5
10
65.05
20
-0.031
0
VERTEX
8
5
10
65.05
20
-5.169
42
-0.414
0
VERTEX
8
5
10
65
20
-5.219
0
VERTEX
8
5
10
62.45
20
-5.219
0
VERTEX
8
5
10
62.45
20
-10.319
0
VERTEX
8
5
10
65
20
-10.319
42
-0.414
0
VERTEX
8
5
10
65.05
20
-10.369
0
VERTEX
8
5
10
65.05
20
-15.508
42
-0.414
0
VERTEX
8
5
10
65
20
-15.558
0
VERTEX
8
5
10
62.45
20
-15.558
0
VERTEX
8
5
10
62.45
20
-20.658
0
VERTEX
8
5
10
65
20
-20.658
42
-0.414
0
VERTEX
8
5
10
65.05
20
-20.708
0
VERTEX
8
5
10
65.05
20
-25.846
42
-0.414
0
VERTEX
8
5
10
65
20
-25.896
0
VERTEX
8
5
10
62.45
20
-25.896
0
VERTEX
8
5
10
62.45
20
-30.996
0
VERTEX
8
5
10
65
20
-30.996
42
-0.414
0
VERTEX
8
5
10
65.05
20
-31.046
0
VERTEX
8
5
10
65.05
20
-36.185
42
-0.414
0
VERTEX
8
5
10
65
20
-36.235
0
VERTEX
8
5
10
62.45
20
-36.235
0
VERTEX
8
5
10
62.45
20
-41.335
0
VERTEX
8
5
10
65
20
-41.335
42
-0.414
0
VERTEX
8
5
10
65.05
20
-41.385
0
VERTEX
8
5
10
65.05
20
-46.523
42
-0.414
0
VERTEX
8
5
10
65
20
-46.573
0
VERTEX
8
5
10
62.45
20
-46.573
0
VERTEX
8
5
10
62.45
20
-51.673
0
VERTEX
8
5
10
65
20
-51.673
42
-0.414
0
VERTEX
8
5
10
65.05
20
-51.723
0
VERTEX
8
5
10
65.05
20
-56.861
42
-0.414
0
VERTEX
8
5
10
65
20
-56.911
0
VERTEX
8
5
10
62.45
20
-56.911
0
VERTEX
8
5
10
62.45
20
-62.012
0
VERTEX
8
5
10
65
20
-62.012
42
-0.414
0
VERTEX
8
5
10
65.05
20
-62.062
0
VERTEX
8
5
10
65.05
20
-67.2
42
-0.414
0
VERTEX
8
5
10
65
20
-67.25
0
VERTEX
8
5
10
62.45
20
-67.25
0
VERTEX
8
5
10
62.45
20
-72.4
42
-0.414
0
VERTEX
8
5
10
62.4
20
-72.45
0
VERTEX
8
5
10
59.85
20
-72.45
0
VERTEX
8
5
10
59.85
20
-75
42
-0.414
0
VERTEX
8
5
10
59.8
20
-75.05
0
VERTEX
8
5
10
54.6
20
-75.05
42
-0.414
0
VERTEX
8
5
10
54.55
20
-75
0
VERTEX
8
5
10
54.55
20
-72.45
0
VERTEX
8
5
10
49.45
20
-72.45
0
VERTEX
8
5
10
49.45
20
-75
42
-0.414
0
VERTEX
8
5
10
49.4
20
-75.05
0
VERTEX
8
5
10
44.2
20
-75.05
42
-0.414
0
VERTEX
8
5
10
44.15
20
-75
0
VERTEX
8
5
10
44.15
20
-72.45
0
VERTEX
8
5
10
39.05
20
-72.45
0
VERTEX
8
5
10
39.05
20
-75
42
-0.414
0
VERTEX
8
5
10
39
20
-75.05
0
VERTEX
8
5
10
33.8
20
-75.05
42
-0.414
0
VERTEX
8
5
10
33.75
20
-75
0
VERTEX
8
5
10
33.75
20
-72.45
0
VERTEX
8
5
10
28.65
20
-72.45
0
VERTEX
8
5
10
28.65
20
-75
42
-0.414
0
VERTEX
8
5
10
28.6
20
-75.05
0
VERTEX
8
5
10
23.4
20
-75.05
42
-0.414
0
VERTEX
8
5
10
23.35
20
-75
0
VERTEX
8
5
10
23.35
20
-72.45
0
VERTEX
8
5
10
18.25
20
-72.45
0
VERTEX
8
5
10
18.25
20
-75
42
-0.414
0
VERTEX
8
5
10
18.2
20
-75.05
0
VERTEX
8
5
10
13
20
-75.05
42
-0.414
0
VERTEX
8
5
10
12.95
20
-75
0
VERTEX
8
5
10
12.95
20
-72.45
0
VERTEX
8
5
10
7.85
20
-72.45
0
VERTEX
8
5
10
7.85
20
-75
42
-0.414
0
VERTEX
8
5
10
7.8
20
-75.05
0
VERTEX
8
5
10
2.6
20
-75.05
42
-0.414
0
VERTEX
8
5
10
2.55
20
-75
0
VERTEX
8
5
10
2.55
20
-72.45
0
VERTEX
8
5
10
-2.55
20
-72.45
0
VERTEX
8
5
10
-2.55
20
-75
42
-0.414
0
VERTEX
8
5
10
-2.6
20
-75.05
0
VERTEX
8
5
10
-7.8
20
-75.05
42
-0.414
0
VERTEX
8
5
10
-7.85
20
-75
0
VERTEX
8
5
10
-7.85
20
-72.45
0
VERTEX
8
5
10
-12.95
20
-72.45
0
VERTEX
8
5
10
-12.95
20
-75
42
-0.414
0
VERTEX
8
5
10
-13
20
-75.05
0
VERTEX
8
5
10
-18.2
20
-75.05
42
-0.414
0
VERTEX
8
5
10
-18.25
20
-75
0
VERTEX
8
5
10
-18.25
20
-72.45
0
VERTEX
8
5
10
-23.35
20
-72.45
0
VERTEX
8
5
10
-23.35
20
-75
42
-0.414
0
VERTEX
8
5
10
-23.4
20
-75.05
0
VERTEX
8
5
10
-28.6
20
-75.05
42
-0.414
0
VERTEX
8
5
10
-28.65
20
-75
0
VERTEX
8
5
10
-28.65
20
-72.45
0
VERTEX
8
5
10
-33.75
20
-72.45
0
VERTEX
8
5
10
-33.75
20
-75
42
-0.414
0
VERTEX
8
5
10
-33.8
20
-75.05
0
VERTEX
8
5
10
-39
20
-75.05
42
-0.414
0
VERTEX
8
5
10
-39.05
20
-75
0
VERTEX
8
5
10
-39.05
20
-72.45
0
VERTEX
8
5
10
-44.15
20
-72.45
0
VERTEX
8
5
10
-44.15
20
-75
42
-0.414
0
VERTEX
8
5
10
-44.2
20
-75.05
0
VERTEX
8
5
10
-49.4
20
-75.05
42
-0.414
0
VERTEX
8
5
10
-49.45
20
-75
0
VERTEX
8
5
10
-49.45
20
-72.45
0
VERTEX
8
5
10
-54.55
20
-72.45
0
VERTEX
8
5
10
-54.55
20
-75
42
-0.414
0
VERTEX
8
5
10
-54.6
20
-75.05
0
VERTEX
8
5
10
-59.8
20
-75.05
42
-0.414
0
VERTEX
8
5
10
-59.85
20
-75
0
VERTEX
8
5
10
-59.85
20
-72.45
0
VERTEX
8
5
10
-62.4
20
-72.45
42
-0.414
0
VERTEX
8
5
10
-62.45
20
-72.4
0
VERTEX
8
5
10
-62.45
20
-67.25
0
VERTEX
8
5
10
-65
20
-67.25
42
-0.414
0
VERTEX
8
5
10
-65.05
20
-67.2
0
VERTEX
8
5
10
-65.05
20
-62.062
42
-0.414
0
VERTEX
8
5
10
-65
20
-62.012
0
VERTEX
8
5
10
-62.45
20
-62.012
0
VERTEX
8
5
10
-62.45
20
-56.911
0
VERTEX
8
5
10
-65
20
-56.911
42
-0.414
0
VERTEX
8
5
10
-65.05
20
-56.861
0
VERTEX
8
5
10
-65.05
20
-51.723
42
-0.414
0
VERTEX
8
5
10
-65
20
-51.673
0
VERTEX
8
5
10
-62.45
20
-51.673
0
VERTEX
8
5
10
-62.45
20
-46.573
0
VERTEX
8
5
10
-65
20
-46.573
42
-0.414
0
VERTEX
8
5
10
-65.05
20
-46.523
0
VERTEX
8
5
10
-65.05
20
-41.385
42
-0.414
0
VERTEX
8
5
10
-65
20
-41.335
0
VERTEX
8
5
10
-62.45
20
-41.335
0
VERTEX
8
5
10
-62.45
20
-36.235
0
VERTEX
8
5
10
-65
20
-36.235
42
-0.414
0
VERTEX
8
5
10
-65.05
20
-36.185
0
VERTEX
8
5
10
-65.05
20
-31.046
42
-0.414
0
VERTEX
8
5
10
-65
20
-30.996
0
VERTEX
8
5
10
-62.45
20
-30.996
0
VERTEX
8
5
10
-62.45
20
-25.896
0
VERTEX
8
5
10
-65
20
-25.896
42
-0.414
0
VERTEX
8
5
10
-65.05
20
-25.846
0
VERTEX
8
5
10
-65.05
20
-20.708
42
-0.414
0
VERTEX
8
5
10
-65
20
-20.658
0
VERTEX
8
5
10
-62.45
20
-20.658
0
VERTEX
8
5
10
-62.45
20
-15.558
0
VERTEX
8
5
10
-65
20
-15.558
42
-0.414
0
VERTEX
8
5
10
-65.05
20
-15.508
0
VERTEX
8
5
10
-65.05
20
-10.369
42
-0.414
0
VERTEX
8
5
10
-65
20
-10.319
0
VERTEX
8
5
10
-62.45
20
-10.319
0
VERTEX
8
5
10
-62.45
20
-5.219
0
VERTEX
8
5
10
-65
20
-5.219
42
-0.414
0
SEQEND
8
5
0
ENDSEC
0
EOF
